<svg width="22" height="21" viewBox="0 0 22 21" fill="none" xmlns="http://www.w3.org/2000/svg">
<g clip-path="url(#clip0_533_457)">
<path d="M11 15.225C8.3927 15.225 6.28208 13.2986 6.08786 10.8573L2.48192 8.19722C2.00789 8.76488 1.57167 9.36502 1.21967 10.0213C1.14104 10.1697 1.10007 10.3338 1.10007 10.5002C1.10007 10.6665 1.14104 10.8306 1.21967 10.9791C3.08383 14.451 6.77433 16.8 11 16.8C11.9251 16.8 12.8175 16.6688 13.6775 16.4568L11.8938 15.1394C11.5992 15.1937 11.3001 15.2223 11 15.225ZM21.7876 17.1314L17.9875 14.3279C19.1418 13.3993 20.0912 12.2608 20.7804 10.9787C20.8591 10.8303 20.9 10.6662 20.9 10.4998C20.9 10.3335 20.8591 10.1694 20.7804 10.0209C18.9163 6.54905 15.2258 4.2 11 4.2C9.23025 4.20205 7.4892 4.62734 5.93592 5.43703L1.56274 2.21058C1.50571 2.16822 1.4405 2.137 1.37082 2.11871C1.30115 2.10042 1.22839 2.09541 1.15669 2.10398C1.08499 2.11254 1.01576 2.1345 0.952958 2.16862C0.890155 2.20273 0.835009 2.24832 0.790673 2.30278L0.115891 3.13195C0.0263785 3.24187 -0.0137317 3.38122 0.00438255 3.51937C0.0224968 3.65751 0.0973522 3.78313 0.212485 3.86859L20.4374 18.7894C20.4944 18.8318 20.5596 18.863 20.6293 18.8813C20.6989 18.8996 20.7717 18.9046 20.8434 18.896C20.9151 18.8875 20.9843 18.8655 21.0471 18.8314C21.1099 18.7973 21.1651 18.7517 21.2094 18.6972L21.8845 17.868C21.974 17.7581 22.0141 17.6187 21.9959 17.4806C21.9777 17.3424 21.9028 17.2168 21.7876 17.1314ZM15.4722 12.472L14.1213 11.4752C14.2351 11.1613 14.2954 10.8321 14.3 10.5C14.3068 10.0138 14.1939 9.53289 13.9706 9.09587C13.7473 8.65885 13.4197 8.27792 13.0141 7.98368C12.6086 7.68944 12.1364 7.49008 11.6355 7.40163C11.1346 7.31317 10.619 7.33808 10.13 7.47436C10.3373 7.74247 10.4494 8.06678 10.45 8.4C10.4449 8.51088 10.4272 8.62091 10.3971 8.72813L7.86677 6.86142C8.74573 6.16029 9.85458 5.77581 11 5.775C11.6502 5.77466 12.294 5.89664 12.8948 6.13397C13.4955 6.3713 14.0413 6.71933 14.501 7.15815C14.9608 7.59698 15.3254 8.11799 15.574 8.69141C15.8226 9.26483 15.9504 9.87941 15.95 10.5C15.95 11.2097 15.7682 11.8712 15.4722 12.4724V12.472Z" fill="#907C7C"/>
</g>
<defs>
<clipPath id="clip0_533_457">
<rect width="22" height="21" fill="white"/>
</clipPath>
</defs>
</svg>
