<svg width="22" height="21" viewBox="0 0 22 21" fill="none" xmlns="http://www.w3.org/2000/svg">
<path d="M21.8671 9.96771C19.7958 6.11005 15.6952 3.5 11 3.5C6.30474 3.5 2.20303 6.11188 0.132896 9.96807C0.0455229 10.1331 0 10.3153 0 10.5002C0 10.685 0.0455229 10.8673 0.132896 11.0323C2.20418 14.8899 6.30474 17.5 11 17.5C15.6952 17.5 19.7969 14.8881 21.8671 11.0319C21.9544 10.8669 22 10.6847 22 10.4998C22 10.315 21.9544 10.1327 21.8671 9.96771V9.96771ZM11 15.75C9.91218 15.75 8.84881 15.4421 7.94434 14.8652C7.03987 14.2883 6.33492 13.4684 5.91864 12.5091C5.50236 11.5498 5.39344 10.4942 5.60566 9.47578C5.81788 8.45738 6.3417 7.52191 7.11089 6.78769C7.88008 6.05346 8.86009 5.55345 9.92698 5.35088C10.9939 5.1483 12.0997 5.25227 13.1047 5.64963C14.1097 6.04699 14.9687 6.7199 15.5731 7.58326C16.1774 8.44661 16.5 9.46165 16.5 10.5C16.5003 11.1895 16.3583 11.8724 16.082 12.5095C15.8058 13.1466 15.4006 13.7255 14.8899 14.2131C14.3791 14.7006 13.7726 15.0873 13.1052 15.3511C12.4377 15.6148 11.7223 15.7503 11 15.75V15.75ZM11 7C10.6727 7.00437 10.3475 7.05084 10.0333 7.13818C10.2923 7.4742 10.4166 7.88772 10.3837 8.30373C10.3507 8.71974 10.1626 9.1107 9.85357 9.4057C9.54452 9.70071 9.13495 9.88022 8.69912 9.91169C8.2633 9.94316 7.8301 9.82451 7.47807 9.57724C7.27761 10.2822 7.3138 11.0294 7.58153 11.7137C7.84927 12.398 8.33507 12.9849 8.97056 13.3919C9.60605 13.7988 10.3592 14.0053 11.1241 13.9822C11.889 13.9591 12.627 13.7077 13.2343 13.2633C13.8416 12.8189 14.2876 12.2038 14.5096 11.5048C14.7316 10.8057 14.7183 10.0578 14.4716 9.36635C14.2249 8.67488 13.7573 8.07466 13.1345 7.65016C12.5118 7.22567 11.7652 6.99828 11 7V7Z" fill="#917C7C"/>
</svg>
