<svg width="26" height="26" viewBox="0 0 26 26" fill="none" xmlns="http://www.w3.org/2000/svg">
<g clip-path="url(#clip0_476_437)">
<path d="M24.7737 4.89599L13.3293 0.498045C12.9757 0.365235 12.5858 0.365235 12.2322 0.498045L0.787354 4.89599C0.638477 4.95185 0.510189 5.05181 0.419624 5.18251C0.329059 5.31321 0.28053 5.46843 0.280518 5.62744L0.280518 7.42969C0.280518 7.86133 0.630127 8.21094 1.06177 8.21094H24.4993C24.9309 8.21094 25.2805 7.86133 25.2805 7.42969V5.62744C25.2805 5.30176 25.0784 5.01025 24.7737 4.89599ZM3.40552 9.77344V17.5859H2.62427C2.19263 17.5859 1.84302 17.9355 1.84302 18.3672V20.7109H23.718V18.3672C23.718 17.9355 23.3684 17.5859 22.9368 17.5859H22.1555V9.77344H19.0305V17.5859H14.343V9.77344H11.218V17.5859H6.53052V9.77344H3.40552ZM24.4993 22.2734H1.06177C0.630127 22.2734 0.280518 22.623 0.280518 23.0547V24.6172C0.280518 25.0488 0.630127 25.3984 1.06177 25.3984H24.4993C24.9309 25.3984 25.2805 25.0488 25.2805 24.6172V23.0547C25.2805 22.623 24.9309 22.2734 24.4993 22.2734Z" fill="#ED212B"/>
</g>
<defs>
<clipPath id="clip0_476_437">
<rect width="25" height="25" fill="white" transform="translate(0.280518 0.398438)"/>
</clipPath>
</defs>
</svg>
