<svg width="25" height="25" viewBox="0 0 25 25" fill="none" xmlns="http://www.w3.org/2000/svg">
<path d="M24.375 20H21.25V6.9316C21.25 5.86676 20.409 4.99996 19.375 4.99996H15V7.49996H18.75V22.5H24.375C24.7203 22.5 25 22.2203 25 21.875V20.625C25 20.2796 24.7203 20 24.375 20ZM12.1969 2.53942L4.69687 4.48238C4.14023 4.62652 3.75 5.14449 3.75 5.73902V20H0.625C0.279687 20 0 20.2796 0 20.625V21.875C0 22.2203 0.279687 22.5 0.625 22.5H13.75V3.79606C13.75 2.95309 12.9859 2.33473 12.1969 2.53942V2.53942ZM10.3125 13.75C9.79492 13.75 9.375 13.1902 9.375 12.5C9.375 11.8097 9.79492 11.25 10.3125 11.25C10.8301 11.25 11.25 11.8097 11.25 12.5C11.25 13.1902 10.8301 13.75 10.3125 13.75Z" fill="#FD3333"/>
</svg>
