<svg width="29" height="31" viewBox="0 0 29 31" fill="none" xmlns="http://www.w3.org/2000/svg">
<g clip-path="url(#clip0_55:234)">
<path d="M13.6667 31.1875C14.9958 31.1875 16.0833 30.025 16.0833 28.6042H11.25C11.25 30.025 12.3375 31.1875 13.6667 31.1875ZM20.9167 23.4375V16.9792C20.9167 13.0138 18.9471 9.69417 15.4792 8.81583V7.9375C15.4792 6.86542 14.6696 6 13.6667 6C12.6637 6 11.8542 6.86542 11.8542 7.9375V8.81583C8.39833 9.69417 6.41667 13.0008 6.41667 16.9792V23.4375L4 26.0208V27.3125H23.3333V26.0208L20.9167 23.4375ZM18.5 24.7292H8.83333V16.9792C8.83333 13.7758 10.6579 11.1667 13.6667 11.1667C16.6754 11.1667 18.5 13.7758 18.5 16.9792V24.7292Z" fill="#ED212B"/>
</g>
<defs>
<clipPath id="clip0_55:234">
<rect width="29" height="31" fill="white"/>
</clipPath>
</defs>
</svg>
