<svg width="48" height="47" viewBox="0 0 48 47" fill="none" xmlns="http://www.w3.org/2000/svg">
<g clip-path="url(#clip0_446_501)">
<path d="M41.3665 4.32167L1.14673 16.9019L2.21204 20.8271L42.4318 8.24692L41.3665 4.32167Z" fill="#3F3D56"/>
<path d="M5.95295 34.9326L0.0248696 13.09C-0.0190796 12.928 -0.00130342 12.754 0.0742848 12.6061C0.149873 12.4582 0.277082 12.3486 0.427929 12.3015L39.6727 0.02623C39.8236 -0.0207928 39.9856 -0.00164467 40.1233 0.0794735C40.261 0.160592 40.3631 0.297051 40.4072 0.458899L45.659 19.8099L45.4965 19.8608L40.2447 0.509738C40.2131 0.394181 40.1402 0.296765 40.0419 0.238832C39.9435 0.1809 39.8278 0.167173 39.7201 0.200662L0.475276 12.4759C0.367527 12.5096 0.276664 12.5879 0.222673 12.6935C0.168681 12.7991 0.155984 12.9234 0.187374 13.0391L6.11546 34.8818L5.95295 34.9326Z" fill="#3F3D56"/>
<path d="M36.972 19.8993C36.8529 19.8992 36.7371 19.8577 36.6418 19.781C36.5466 19.7043 36.477 19.5965 36.4436 19.4738L35.4493 15.8103C35.4087 15.6599 35.4252 15.4984 35.4954 15.3611C35.5656 15.2239 35.6836 15.1221 35.8235 15.0781L39.2361 14.0107C39.3762 13.9671 39.5267 13.9849 39.6546 14.0602C39.7824 14.1356 39.8772 14.2623 39.9182 14.4126L40.9124 18.0761C40.9531 18.2265 40.9365 18.388 40.8663 18.5253C40.7962 18.6625 40.6782 18.7643 40.5382 18.8083L37.1256 19.8757C37.0757 19.8913 37.024 19.8993 36.972 19.8993Z" fill="#F50057"/>
<path d="M5.86031 13.1568C5.85009 13.1192 5.83793 13.0822 5.8239 13.046C5.72849 12.7974 5.55085 12.5954 5.32513 12.4788C5.09942 12.3623 4.84154 12.3394 4.60105 12.4146C4.36056 12.4897 4.15443 12.6576 4.02227 12.8861C3.89011 13.1145 3.84123 13.3873 3.88504 13.652C3.89119 13.6906 3.89939 13.7289 3.90958 13.7665C3.97139 13.9929 4.09986 14.1918 4.27576 14.3333C4.45167 14.4748 4.66554 14.5514 4.88536 14.5515C4.98133 14.5517 5.07683 14.537 5.16888 14.5079C5.42725 14.4268 5.64514 14.2391 5.77476 13.9858C5.90437 13.7325 5.93514 13.4344 5.86031 13.1568ZM5.12148 14.3334C4.90601 14.4006 4.67454 14.3732 4.47781 14.2574C4.28109 14.1416 4.13518 13.9467 4.07207 13.7156C4.06216 13.678 4.05424 13.6397 4.04835 13.6011C4.01661 13.383 4.05996 13.1599 4.1703 12.9736C4.28064 12.7873 4.45042 12.6505 4.64788 12.5888C4.84535 12.5272 5.05698 12.5448 5.2432 12.6385C5.42943 12.7322 5.57749 12.8954 5.65972 13.0978C5.67505 13.1333 5.68778 13.1701 5.69782 13.2077C5.76027 13.439 5.73466 13.6875 5.6266 13.8986C5.51854 14.1096 5.33687 14.266 5.12148 14.3334V14.3334Z" fill="#F50057"/>
<path d="M3.36936 13.9355C3.3152 13.7358 3.32041 13.523 3.38424 13.3266C3.44808 13.1303 3.56738 12.9602 3.72552 12.8401C3.57736 12.8323 3.42963 12.8627 3.29462 12.9286C3.15961 12.9946 3.04123 13.0942 2.94936 13.2192C2.85748 13.3442 2.79476 13.491 2.76642 13.6473C2.73808 13.8036 2.74494 13.9649 2.78643 14.1178C2.82792 14.2707 2.90284 14.4107 3.00495 14.5262C3.10706 14.6417 3.2334 14.7294 3.37345 14.7819C3.5135 14.8343 3.6632 14.8501 3.81008 14.8279C3.95696 14.8057 4.09677 14.7461 4.21786 14.6541C4.02437 14.644 3.83864 14.5693 3.68655 14.4405C3.53446 14.3117 3.42358 14.1352 3.36936 13.9355Z" fill="#F50057"/>
<path d="M29.6779 18.438C29.6599 18.3685 29.6293 18.3035 29.5879 18.2466C29.5464 18.1898 29.495 18.1423 29.4364 18.1069C29.3778 18.0715 29.3134 18.0488 29.2466 18.0401C29.1799 18.0314 29.1122 18.037 29.0475 18.0564L23.4288 19.7436L22.8237 19.9253H26.6236L27.2287 19.7436L29.3233 19.1149C29.4539 19.0755 29.5646 18.9821 29.6311 18.8552C29.6976 18.7283 29.7144 18.5783 29.6779 18.438Z" fill="#CCCCCC"/>
<path d="M25.7028 17.1784C25.6662 17.0381 25.5792 16.9192 25.461 16.8479C25.3427 16.7765 25.2029 16.7584 25.0723 16.7977L16.6414 19.3289C16.5236 19.3647 16.4216 19.4445 16.3538 19.554C16.286 19.6634 16.2568 19.7953 16.2716 19.9258H18.4542L19.0601 19.7441L25.3482 17.8561C25.4789 17.8166 25.5896 17.7231 25.6561 17.596C25.7226 17.4689 25.7394 17.3187 25.7028 17.1784Z" fill="#CCCCCC"/>
<path d="M47.4075 19.7437H6.53089C6.37383 19.7438 6.22325 19.8109 6.11219 19.9301C6.00112 20.0494 5.93865 20.211 5.93848 20.3796V46.3641C5.93865 46.5327 6.00111 46.6944 6.11218 46.8136C6.22324 46.9328 6.37382 46.9999 6.53089 47.0001H47.4075C47.5646 46.9999 47.7152 46.9328 47.8262 46.8136C47.9373 46.6943 47.9998 46.5327 47.9999 46.3641V20.3796C47.9998 20.211 47.9373 20.0494 47.8262 19.9301C47.7152 19.8109 47.5646 19.7438 47.4075 19.7437ZM47.8307 46.3641C47.8306 46.4845 47.7861 46.6001 47.7067 46.6852C47.6274 46.7704 47.5197 46.8183 47.4075 46.8184H6.53089C6.41868 46.8183 6.31107 46.7704 6.23172 46.6852C6.15237 46.6001 6.10778 46.4845 6.10774 46.3641V20.3796C6.10779 20.2592 6.15238 20.1437 6.23173 20.0585C6.31108 19.9733 6.41868 19.9254 6.53089 19.9254H47.4075C47.5197 19.9254 47.6273 19.9733 47.7067 20.0585C47.786 20.1437 47.8306 20.2592 47.8307 20.3796V46.3641Z" fill="#3F3D56"/>
<path d="M10.5082 23.2874C10.3074 23.2874 10.111 23.2235 9.94402 23.1037C9.77701 22.9839 9.64685 22.8136 9.56998 22.6144C9.49312 22.4152 9.473 22.196 9.51219 21.9845C9.55138 21.773 9.6481 21.5787 9.79013 21.4263C9.93216 21.2738 10.1131 21.17 10.3101 21.1279C10.5071 21.0858 10.7113 21.1074 10.8969 21.1899C11.0825 21.2724 11.2411 21.4122 11.3527 21.5915C11.4643 21.7708 11.5238 21.9816 11.5238 22.1972C11.5235 22.4862 11.4164 22.7634 11.226 22.9677C11.0356 23.1721 10.7775 23.2871 10.5082 23.2874ZM10.5082 21.2886C10.3409 21.2886 10.1772 21.3419 10.0381 21.4418C9.89889 21.5416 9.79041 21.6835 9.72636 21.8495C9.6623 22.0155 9.64554 22.1982 9.6782 22.3744C9.71085 22.5507 9.79146 22.7126 9.90982 22.8396C10.0282 22.9667 10.179 23.0532 10.3431 23.0883C10.5073 23.1233 10.6775 23.1053 10.8321 23.0366C10.9868 22.9678 11.1189 22.8514 11.2119 22.7019C11.3049 22.5525 11.3545 22.3769 11.3545 22.1972C11.3543 21.9563 11.2651 21.7254 11.1064 21.555C10.9477 21.3847 10.7326 21.2889 10.5082 21.2886Z" fill="#F50057"/>
<path d="M8.92969 22.1967C8.92972 21.9887 8.99017 21.7859 9.10262 21.6166C9.21507 21.4472 9.37393 21.3198 9.55705 21.2519C9.41683 21.2 9.26708 21.1848 9.12027 21.2075C8.97347 21.2303 8.83386 21.2904 8.71307 21.3829C8.59229 21.4753 8.49383 21.5974 8.42589 21.7389C8.35795 21.8805 8.32251 22.0374 8.32251 22.1967C8.32251 22.3559 8.35795 22.5128 8.42589 22.6544C8.49383 22.796 8.59229 22.918 8.71307 23.0105C8.83386 23.1029 8.97347 23.163 9.12027 23.1858C9.26708 23.2086 9.41683 23.1934 9.55705 23.1414C9.37393 23.0736 9.21507 22.9461 9.10262 22.7768C8.99017 22.6074 8.92972 22.4046 8.92969 22.1967Z" fill="#F50057"/>
<path d="M14.625 35.0782C14.423 35.078 14.2294 34.9917 14.0866 34.8384C13.9438 34.6851 13.8635 34.4773 13.8633 34.2605V31.8074C13.8633 31.5906 13.9435 31.3826 14.0864 31.2292C14.2292 31.0759 14.4229 30.9897 14.625 30.9897C14.827 30.9897 15.0207 31.0759 15.1635 31.2292C15.3064 31.3826 15.3866 31.5906 15.3866 31.8074V34.2605C15.3864 34.4773 15.3061 34.6851 15.1633 34.8384C15.0205 34.9917 14.8269 35.078 14.625 35.0782Z" fill="#F50057"/>
<path d="M16.6562 35.0782C16.4543 35.078 16.2607 34.9917 16.1179 34.8384C15.9751 34.6851 15.8948 34.4773 15.8945 34.2605V31.8074C15.8945 31.5906 15.9748 31.3826 16.1176 31.2292C16.2605 31.0759 16.4542 30.9897 16.6562 30.9897C16.8582 30.9897 17.0519 31.0759 17.1948 31.2292C17.3376 31.3826 17.4179 31.5906 17.4179 31.8074V34.2605C17.4176 34.4773 17.3373 34.6851 17.1945 34.8384C17.0517 34.9917 16.8581 35.078 16.6562 35.0782Z" fill="#F50057"/>
<path d="M18.6872 35.0782C18.4853 35.078 18.2917 34.9917 18.1489 34.8384C18.0061 34.6851 17.9258 34.4773 17.9255 34.2605V31.8074C17.9255 31.5906 18.0058 31.3826 18.1486 31.2292C18.2915 31.0759 18.4852 30.9897 18.6872 30.9897C18.8892 30.9897 19.083 31.0759 19.2258 31.2292C19.3686 31.3826 19.4489 31.5906 19.4489 31.8074V34.2605C19.4487 34.4773 19.3683 34.6851 19.2255 34.8384C19.0828 34.9917 18.8892 35.078 18.6872 35.0782Z" fill="#F50057"/>
<path d="M21.8186 35.0782C21.6166 35.078 21.423 34.9917 21.2802 34.8384C21.1374 34.6851 21.0571 34.4773 21.0569 34.2605V31.8074C21.0569 31.5906 21.1371 31.3826 21.28 31.2292C21.4228 31.0759 21.6166 30.9897 21.8186 30.9897C22.0206 30.9897 22.2143 31.0759 22.3571 31.2292C22.5 31.3826 22.5802 31.5906 22.5802 31.8074V34.2605C22.58 34.4773 22.4997 34.6851 22.3569 34.8384C22.2141 34.9917 22.0205 35.078 21.8186 35.0782Z" fill="#F50057"/>
<path d="M23.8498 35.0782C23.6479 35.078 23.4543 34.9917 23.3115 34.8384C23.1687 34.6851 23.0884 34.4773 23.0881 34.2605V31.8074C23.0881 31.5906 23.1684 31.3826 23.3112 31.2292C23.4541 31.0759 23.6478 30.9897 23.8498 30.9897C24.0518 30.9897 24.2456 31.0759 24.3884 31.2292C24.5312 31.3826 24.6115 31.5906 24.6115 31.8074V34.2605C24.6113 34.4773 24.5309 34.6851 24.3881 34.8384C24.2454 34.9917 24.0517 35.078 23.8498 35.0782Z" fill="#F50057"/>
<path d="M25.8808 35.0782C25.6789 35.078 25.4853 34.9917 25.3425 34.8384C25.1997 34.6851 25.1194 34.4773 25.1191 34.2605V31.8074C25.1191 31.5906 25.1994 31.3826 25.3422 31.2292C25.4851 31.0759 25.6788 30.9897 25.8808 30.9897C26.0828 30.9897 26.2766 31.0759 26.4194 31.2292C26.5622 31.3826 26.6425 31.5906 26.6425 31.8074V34.2605C26.6423 34.4773 26.5619 34.6851 26.4191 34.8384C26.2764 34.9917 26.0828 35.078 25.8808 35.0782Z" fill="#F50057"/>
<path d="M29.0122 35.0782C28.8102 35.078 28.6166 34.9917 28.4738 34.8384C28.331 34.6851 28.2507 34.4773 28.2505 34.2605V31.8074C28.2505 31.5906 28.3307 31.3826 28.4736 31.2292C28.6164 31.0759 28.8102 30.9897 29.0122 30.9897C29.2142 30.9897 29.4079 31.0759 29.5507 31.2292C29.6936 31.3826 29.7738 31.5906 29.7738 31.8074V34.2605C29.7736 34.4773 29.6933 34.6851 29.5505 34.8384C29.4077 34.9917 29.2141 35.078 29.0122 35.0782Z" fill="#F50057"/>
<path d="M31.0434 35.0782C30.8415 35.078 30.6479 34.9917 30.5051 34.8384C30.3623 34.6851 30.282 34.4773 30.2817 34.2605V31.8074C30.2817 31.5906 30.362 31.3826 30.5048 31.2292C30.6477 31.0759 30.8414 30.9897 31.0434 30.9897C31.2454 30.9897 31.4392 31.0759 31.582 31.2292C31.7248 31.3826 31.8051 31.5906 31.8051 31.8074V34.2605C31.8049 34.4773 31.7245 34.6851 31.5817 34.8384C31.439 34.9917 31.2454 35.078 31.0434 35.0782Z" fill="#F50057"/>
<path d="M33.0747 35.0782C32.8727 35.078 32.6791 34.9917 32.5363 34.8384C32.3935 34.6851 32.3132 34.4773 32.313 34.2605V31.8074C32.313 31.5906 32.3932 31.3826 32.5361 31.2292C32.6789 31.0759 32.8727 30.9897 33.0747 30.9897C33.2767 30.9897 33.4704 31.0759 33.6133 31.2292C33.7561 31.3826 33.8363 31.5906 33.8363 31.8074V34.2605C33.8361 34.4773 33.7558 34.6851 33.613 34.8384C33.4702 34.9917 33.2766 35.078 33.0747 35.0782Z" fill="#F50057"/>
<path d="M36.2058 35.0782C36.0038 35.078 35.8102 34.9917 35.6674 34.8384C35.5246 34.6851 35.4443 34.4773 35.4441 34.2605V31.8074C35.4441 31.5906 35.5243 31.3826 35.6672 31.2292C35.81 31.0759 36.0038 30.9897 36.2058 30.9897C36.4078 30.9897 36.6015 31.0759 36.7444 31.2292C36.8872 31.3826 36.9674 31.5906 36.9674 31.8074V34.2605C36.9672 34.4773 36.8869 34.6851 36.7441 34.8384C36.6013 34.9917 36.4077 35.078 36.2058 35.0782Z" fill="#F50057"/>
<path d="M38.237 35.0782C38.0351 35.078 37.8415 34.9917 37.6987 34.8384C37.5559 34.6851 37.4756 34.4773 37.4753 34.2605V31.8074C37.4753 31.5906 37.5556 31.3826 37.6984 31.2292C37.8413 31.0759 38.035 30.9897 38.237 30.9897C38.439 30.9897 38.6328 31.0759 38.7756 31.2292C38.9184 31.3826 38.9987 31.5906 38.9987 31.8074V34.2605C38.9985 34.4773 38.9181 34.6851 38.7754 34.8384C38.6326 34.9917 38.439 35.078 38.237 35.0782Z" fill="#F50057"/>
<path d="M40.2683 35.0782C40.0663 35.078 39.8727 34.9917 39.7299 34.8384C39.5871 34.6851 39.5068 34.4773 39.5066 34.2605V31.8074C39.5066 31.5906 39.5868 31.3826 39.7297 31.2292C39.8725 31.0759 40.0663 30.9897 40.2683 30.9897C40.4703 30.9897 40.664 31.0759 40.8069 31.2292C40.9497 31.3826 41.0299 31.5906 41.0299 31.8074V34.2605C41.0297 34.4773 40.9494 34.6851 40.8066 34.8384C40.6638 34.9917 40.4702 35.078 40.2683 35.0782Z" fill="#F50057"/>
<path d="M19.7889 44.1785H8.8343C8.69857 44.1785 8.56839 44.1206 8.47241 44.0175C8.37643 43.9145 8.32251 43.7747 8.32251 43.629C8.32251 43.4833 8.37643 43.3436 8.47241 43.2405C8.56839 43.1375 8.69857 43.0796 8.8343 43.0796H19.7889C19.9247 43.0796 20.0548 43.1375 20.1508 43.2405C20.2468 43.3436 20.3007 43.4833 20.3007 43.629C20.3007 43.7747 20.2468 43.9145 20.1508 44.0175C20.0548 44.1206 19.9247 44.1785 19.7889 44.1785Z" fill="#E6E6E6"/>
<path d="M16.2768 41.8162H12.3465C12.2108 41.8162 12.0806 41.7583 11.9846 41.6552C11.8886 41.5522 11.8347 41.4124 11.8347 41.2667C11.8347 41.121 11.8886 40.9813 11.9846 40.8782C12.0806 40.7752 12.2108 40.7173 12.3465 40.7173H16.2768C16.4125 40.7173 16.5427 40.7752 16.6387 40.8782C16.7347 40.9813 16.7886 41.121 16.7886 41.2667C16.7886 41.4124 16.7347 41.5522 16.6387 41.6552C16.5427 41.7583 16.4125 41.8162 16.2768 41.8162Z" fill="#E6E6E6"/>
<path d="M47.8003 25.1748H6.07739V25.3565H47.8003V25.1748Z" fill="#3F3D56"/>
</g>
<defs>
<clipPath id="clip0_446_501">
<rect width="48" height="47" fill="white"/>
</clipPath>
</defs>
</svg>
