<svg width="21" height="23" viewBox="0 0 21 23" fill="none" xmlns="http://www.w3.org/2000/svg">
<path d="M20.25 1.43751H14.625L14.1844 0.597469C14.091 0.417877 13.9473 0.266809 13.7692 0.161259C13.5912 0.0557084 13.3859 -0.000136022 13.1766 7.87602e-06H7.81875C7.60987 -0.00076166 7.40498 0.0548745 7.22756 0.160542C7.05015 0.26621 6.90739 0.417635 6.81562 0.597469L6.375 1.43751H0.75C0.551088 1.43751 0.360322 1.51323 0.21967 1.64802C0.0790176 1.78282 0 1.96563 0 2.15626L0 3.59376C0 3.78438 0.0790176 3.9672 0.21967 4.10199C0.360322 4.23678 0.551088 4.31251 0.75 4.31251H20.25C20.4489 4.31251 20.6397 4.23678 20.7803 4.10199C20.921 3.9672 21 3.78438 21 3.59376V2.15626C21 1.96563 20.921 1.78282 20.7803 1.64802C20.6397 1.51323 20.4489 1.43751 20.25 1.43751V1.43751ZM2.49375 20.9785C2.52952 21.5259 2.78164 22.0397 3.19878 22.4153C3.61591 22.7908 4.16672 22.9999 4.73906 23H16.2609C16.8333 22.9999 17.3841 22.7908 17.8012 22.4153C18.2184 22.0397 18.4705 21.5259 18.5062 20.9785L19.5 5.75001H1.5L2.49375 20.9785Z" fill="#F61010"/>
</svg>
