<svg width="192" height="150" viewBox="0 0 192 150" fill="none" xmlns="http://www.w3.org/2000/svg">
<g clip-path="url(#clip0_470_437)">
<path d="M12.7257 150H179.265C179.349 150 179.43 149.963 179.49 149.898C179.55 149.832 179.583 149.744 179.583 149.651C179.583 149.559 179.55 149.47 179.49 149.404C179.43 149.339 179.349 149.302 179.265 149.302H12.7257C12.6413 149.302 12.5604 149.339 12.5007 149.404C12.441 149.47 12.4075 149.559 12.4075 149.651C12.4075 149.744 12.441 149.832 12.5007 149.898C12.5604 149.963 12.6413 150 12.7257 150V150Z" fill="#CCCCCC"/>
<path d="M44.7226 65.4913C34.9828 54.9815 30.8692 44.0172 33.1391 34.6184C36.0523 22.5569 48.9938 14.2174 68.6455 11.7383L68.7181 12.4301C49.34 14.8746 36.5958 23.0269 33.7533 34.7965C31.5441 43.9434 35.598 54.6682 45.1684 64.9952L44.7226 65.4913Z" fill="#F0F0F0"/>
<path d="M138.696 102.798C126.54 102.798 113.33 100.818 100.209 97.0101C83.9836 92.3017 69.1064 85.1948 57.186 76.4576L57.539 75.8789C69.402 84.5738 84.2133 91.6482 100.372 96.3369C114.974 100.574 129.686 102.538 142.911 102.02L142.934 102.715C141.537 102.77 140.125 102.798 138.696 102.798Z" fill="#F0F0F0"/>
<path d="M166.583 98.4188L166.379 97.7592C177.251 93.7301 184.051 87.2396 186.044 78.9889C188.577 68.5002 183.074 56.3288 170.547 44.7166C157.957 33.0455 139.802 23.3614 119.425 17.4486L119.588 16.7754C140.054 22.7142 158.297 32.4485 170.957 44.1851C183.682 55.9805 189.258 68.404 186.658 79.167C184.608 87.6544 177.666 94.3114 166.583 98.4188Z" fill="#F0F0F0"/>
<path d="M66.7542 103.089C42.8685 91.4769 24.4628 76.412 14.9279 60.6689L15.457 60.2837C24.9261 75.9179 43.2351 90.8935 67.0116 102.452L66.7542 103.089Z" fill="#F0F0F0"/>
<path d="M150.734 123.205C148.271 123.205 145.765 123.145 143.217 123.024L143.244 122.329C162.258 123.231 179.034 120.737 191.762 115.115L192 115.761C180.897 120.665 166.745 123.205 150.734 123.205Z" fill="#F0F0F0"/>
<path d="M136.875 12.3626C132.928 10.9537 128.867 9.64189 124.806 8.4635C101.438 1.68252 78.4668 -0.725082 58.3752 1.50233L58.3113 0.809446C78.4778 -1.42527 101.528 0.988098 124.969 7.79034C129.041 8.97212 133.113 10.2877 137.072 11.7007L136.875 12.3626Z" fill="#F0F0F0"/>
<path d="M29.7948 66.5357C20.0549 56.026 15.9413 45.0616 18.2113 35.6628C21.1244 23.6013 34.066 15.2619 53.7176 12.7827L53.7902 13.4746C34.4121 15.9191 21.668 24.0714 18.8254 35.8409C16.6162 44.9879 20.6702 55.7127 30.2405 66.0397L29.7948 66.5357Z" fill="#F0F0F0"/>
<path d="M123.768 103.842C111.612 103.842 98.4023 101.862 85.2814 98.0545C69.0557 93.3461 54.1785 86.2392 42.2582 77.502L42.6112 76.9233C54.4741 85.6183 69.2854 92.6926 85.4439 97.3813C100.046 101.619 114.758 103.582 127.983 103.064L128.006 103.76C126.61 103.815 125.197 103.842 123.768 103.842Z" fill="#F0F0F0"/>
<path d="M151.655 99.4637L151.451 98.8041C162.323 94.775 169.123 88.2845 171.116 80.0338C173.649 69.5451 168.146 57.3737 155.62 45.7615C143.029 34.0904 124.874 24.4063 104.497 18.4935L104.66 17.8203C125.126 23.7592 143.369 33.4934 156.03 45.23C168.754 57.0254 174.33 69.4489 171.73 80.212C169.68 88.6993 162.738 95.3564 151.655 99.4637Z" fill="#F0F0F0"/>
<path d="M51.8263 104.133C27.9407 92.5213 9.53496 77.4564 0 61.7133L0.529159 61.3281C9.99821 76.9623 28.3073 91.9379 52.0838 103.497L51.8263 104.133Z" fill="#F0F0F0"/>
<path d="M135.806 124.25C133.343 124.25 130.837 124.189 128.289 124.069L128.316 123.373C147.33 124.276 164.106 121.781 176.835 116.159L177.072 116.805C165.969 121.709 151.817 124.25 135.806 124.25Z" fill="#F0F0F0"/>
<path d="M121.948 13.407C118 11.9982 113.939 10.6863 109.878 9.50794C86.5101 2.72696 63.539 0.319362 43.4473 2.54676L43.3834 1.85388C63.55 -0.380835 86.5997 2.03253 110.041 8.83477C114.113 10.0166 118.185 11.3321 122.144 12.7451L121.948 13.407Z" fill="#F0F0F0"/>
<path d="M10.8272 47.886C15.392 42.2759 22.6737 38.8568 29.2726 40.9035C23.1849 45.6258 18.8172 52.5561 16.9424 60.4683C16.2294 63.5226 15.7266 67.0011 13.4092 68.8685C11.9673 70.0305 10.0567 70.3081 8.28349 70.0435C6.51017 69.7788 4.83344 69.0229 3.17934 68.2738L2.73425 68.3161C4.01391 60.9309 6.2623 53.496 10.8272 47.886Z" fill="#F2F2F2"/>
<path d="M29.2524 41.0598C23.7353 42.524 18.7794 45.8564 15.0885 50.5838C14.2775 51.586 13.6156 52.7221 13.1273 53.9503C12.687 55.1635 12.551 56.4838 12.7336 57.7741C12.8818 58.9809 13.1609 60.1965 13.0389 61.4218C12.9679 62.048 12.777 62.6507 12.4787 63.1903C12.1803 63.7299 11.7813 64.1943 11.3077 64.5531C10.1489 65.4806 8.7552 65.8964 7.37936 66.2511C5.85176 66.6449 4.25936 67.0274 3.01411 68.1402C2.86324 68.275 2.68119 68.0105 2.83184 67.8759C4.99835 65.9399 8.00932 66.1884 10.4064 64.7822C11.5249 64.126 12.4697 63.0964 12.6995 61.6835C12.9004 60.4481 12.6135 59.1942 12.4538 57.9737C12.2589 56.7179 12.3474 55.4288 12.7117 54.2191C13.1414 52.9677 13.7622 51.8055 14.5476 50.7824C16.2822 48.4481 18.3409 46.4273 20.6482 44.794C23.2721 42.9139 26.17 41.5397 29.2167 40.7307C29.4053 40.6807 29.4397 41.0101 29.2524 41.0598H29.2524Z" fill="white"/>
<path d="M16.1953 48.985C15.5558 48.1986 15.1921 47.1886 15.1692 46.1354C15.1464 45.0821 15.4658 44.0543 16.0705 43.2354C16.1933 43.0702 16.4334 43.2717 16.3103 43.4372C15.746 44.1986 15.4485 45.156 15.4716 46.1367C15.4947 47.1174 15.8369 48.0568 16.4364 48.7852C16.5665 48.9437 16.3247 49.1426 16.1953 48.985Z" fill="white"/>
<path d="M12.585 57.1732C14.5455 57.3159 16.4829 56.6434 18.0111 55.2899C18.1624 55.1557 18.3445 55.4201 18.1934 55.5542C16.6007 56.9595 14.5832 57.6547 12.5434 57.5013C12.349 57.4865 12.3917 57.1585 12.585 57.1732Z" fill="white"/>
<path d="M23.3401 43.3467C23.5297 43.7075 23.7981 44.011 24.1211 44.23C24.4442 44.449 24.8119 44.5767 25.1911 44.6015C25.3855 44.6135 25.3426 44.9416 25.1495 44.9296C24.7306 44.9001 24.3247 44.7586 23.9673 44.5175C23.6099 44.2764 23.3117 43.943 23.099 43.5465C23.076 43.5109 23.0663 43.4672 23.0718 43.4241C23.0773 43.381 23.0975 43.3418 23.1284 43.3144C23.1604 43.2881 23.2006 43.2768 23.2403 43.2828C23.2799 43.2889 23.3158 43.3118 23.3401 43.3467L23.3401 43.3467Z" fill="white"/>
<path d="M38.6398 64.1924C38.5182 64.1886 38.3965 64.1849 38.2733 64.1834C36.6378 64.1423 35.0019 64.2469 33.3819 64.4962C33.2563 64.5133 33.1293 64.5327 33.0045 64.5537C29.1072 65.1999 25.3533 66.6336 21.9335 68.782C20.5734 69.6382 19.2746 70.6066 18.0486 71.6788C16.3554 73.1597 14.6271 74.913 12.6449 75.672C12.4389 75.7537 12.2285 75.8214 12.0148 75.8746L2.81579 68.908C2.80213 68.8807 2.78693 68.8555 2.77317 68.8281L2.39429 68.5684C2.45399 68.5082 2.5171 68.4473 2.57682 68.3872C2.61132 68.3521 2.64788 68.3186 2.68237 68.2836C2.70602 68.2607 2.72979 68.2379 2.74993 68.2158C2.75778 68.2081 2.76574 68.2006 2.77214 68.1952C2.7923 68.1731 2.81315 68.1549 2.83184 68.1351C3.18374 67.7932 3.53844 67.4535 3.89594 67.1158C3.89739 67.1135 3.89739 67.1135 3.90089 67.1128C6.60256 64.5115 9.5762 62.2708 12.7595 60.4375C12.8552 60.3842 12.9522 60.3285 13.052 60.2784C14.4892 59.488 15.9828 58.8278 17.518 58.3042C18.3595 58.0205 19.2136 57.7836 20.0769 57.5945C22.3086 57.1107 24.5957 57.0146 26.8546 57.3098C31.3575 57.899 35.6383 60.0602 38.4292 63.8969C38.5005 63.9951 38.5699 64.0919 38.6398 64.1924Z" fill="#F2F2F2"/>
<path d="M38.5385 64.3047C33.3291 61.8328 27.5417 61.223 21.9981 62.5618C20.8 62.8268 19.6476 63.2971 18.5831 63.9555C17.5651 64.6335 16.7313 65.598 16.1684 66.7487C15.6239 67.8101 15.179 68.9649 14.4086 69.8627C14.008 70.3159 13.5245 70.6711 12.9899 70.905C12.4553 71.139 11.8816 71.2465 11.3064 71.2204C9.87171 71.1962 8.53051 70.6084 7.23715 69.9837C5.80112 69.29 4.31957 68.5445 2.71408 68.6112C2.51955 68.6193 2.51949 68.288 2.71372 68.2799C5.50698 68.1639 7.77453 70.3494 10.4609 70.8085C11.7143 71.0227 13.0343 70.8241 13.9938 69.8477C14.8328 68.9938 15.2925 67.8034 15.8354 66.7235C16.3695 65.5921 17.1483 64.6213 18.1036 63.8959C19.134 63.1802 20.2681 62.662 21.4571 62.3634C24.1243 61.6444 26.878 61.3894 29.6174 61.608C32.7451 61.8385 35.8138 62.6537 38.6907 64.0184C38.8688 64.103 38.7154 64.3887 38.5385 64.3047H38.5385Z" fill="white"/>
<path d="M23.7599 62.0155C23.6813 60.9655 23.9457 59.9191 24.5059 59.063C25.0662 58.207 25.8858 57.5972 26.8184 57.3424C27.0072 57.2915 27.0882 57.6108 26.8991 57.6618C26.0302 57.8973 25.2668 58.4654 24.7466 59.2637C24.2264 60.062 23.9837 61.0378 24.0622 62.0151C24.079 62.2275 23.7767 62.2266 23.7599 62.0155Z" fill="white"/>
<path d="M16.3798 66.1707C17.8667 67.5784 19.783 68.3201 21.7467 68.2479C21.9412 68.2406 21.9414 68.5719 21.747 68.5792C19.7035 68.6502 17.7107 67.8739 16.1664 66.4052C16.0192 66.2652 16.2335 66.0314 16.3798 66.1707V66.1707Z" fill="white"/>
<path d="M32.5615 62.2289C32.5147 62.6421 32.5623 63.0616 32.6999 63.4497C32.8376 63.8378 33.061 64.1823 33.3502 64.4523C33.4988 64.5903 33.2844 64.824 33.1367 64.6869C32.8185 64.3869 32.5722 64.0061 32.4192 63.5777C32.2662 63.1493 32.2113 62.6864 32.2592 62.2293C32.2605 62.1858 32.2767 62.1445 32.3048 62.1137C32.3328 62.0829 32.3705 62.0649 32.4102 62.0635C32.4502 62.0636 32.4885 62.0811 32.5169 62.1121C32.5452 62.1431 32.5612 62.1851 32.5615 62.2289H32.5615Z" fill="white"/>
<path d="M189.694 93.8746C187.115 86.9092 181.305 81.0063 174.463 80.5029C178.749 87.1932 180.737 95.3294 180.077 103.472C179.812 106.611 179.219 110.073 180.829 112.685C181.83 114.311 183.545 115.276 185.296 115.68C187.047 116.084 188.858 115.99 190.646 115.894L191.052 116.098C192.111 108.671 192.273 100.84 189.694 93.8746Z" fill="#F2F2F2"/>
<path d="M174.434 80.6573C179.181 84.0689 182.827 89.0333 184.854 94.8454C185.31 96.0881 185.585 97.4019 185.668 98.7385C185.711 100.043 185.434 101.337 184.867 102.485C184.357 103.567 183.722 104.609 183.461 105.808C183.336 106.424 183.331 107.062 183.446 107.68C183.562 108.298 183.795 108.883 184.131 109.395C184.938 110.695 186.123 111.6 187.31 112.441C188.628 113.375 190.011 114.322 190.842 115.829C190.943 116.011 191.196 115.829 191.095 115.647C189.648 113.025 186.736 112.15 184.91 109.943C184.057 108.913 183.483 107.595 183.7 106.18C183.89 104.942 184.544 103.867 185.069 102.776C185.638 101.665 185.95 100.418 185.977 99.1448C185.956 97.8079 185.728 96.4846 185.302 95.2317C184.384 92.3942 183.065 89.7325 181.393 87.3442C179.498 84.6068 177.19 82.2449 174.568 80.3606C174.406 80.244 174.273 80.5415 174.434 80.6573V80.6573Z" fill="white"/>
<path d="M184.301 92.9319C185.145 92.4269 185.797 91.6096 186.142 90.6261C186.486 89.6425 186.5 88.5568 186.182 87.5628C186.117 87.3619 185.829 87.4633 185.894 87.6644C186.192 88.5895 186.179 89.6008 185.856 90.516C185.534 91.4311 184.924 92.1897 184.136 92.6549C183.965 92.7563 184.131 93.0327 184.301 92.9319Z" fill="white"/>
<path d="M185.191 101.974C183.301 101.386 181.682 100.039 180.658 98.201C180.557 98.0188 180.304 98.2008 180.405 98.3828C181.474 100.293 183.161 101.691 185.13 102.298C185.317 102.356 185.378 102.031 185.191 101.974V101.974Z" fill="white"/>
<path d="M179.301 84.9892C179.012 85.2592 178.666 85.4462 178.295 85.5335C177.923 85.6207 177.538 85.6055 177.173 85.4891C176.986 85.4288 176.926 85.7536 177.112 85.8135C177.515 85.94 177.941 85.9563 178.351 85.8609C178.762 85.7655 179.145 85.5613 179.467 85.2663C179.499 85.2412 179.522 85.2036 179.53 85.161C179.538 85.1184 179.531 85.074 179.51 85.0369C179.488 85.0003 179.454 84.9748 179.415 84.9659C179.376 84.957 179.335 84.9654 179.301 84.9892H179.301Z" fill="white"/>
<path d="M158.5 98.9859C158.615 99.0272 158.731 99.0685 158.847 99.1124C160.4 99.6762 161.909 100.377 163.358 101.209C163.471 101.271 163.585 101.337 163.696 101.402C167.169 103.447 170.265 106.18 172.827 109.463C173.845 110.771 174.771 112.161 175.597 113.623C176.738 115.641 177.828 117.929 179.462 119.374C179.631 119.527 179.809 119.668 179.993 119.797L190.794 116.625C190.815 116.604 190.837 116.586 190.858 116.565L191.295 116.46C191.257 116.382 191.216 116.301 191.178 116.222C191.157 116.177 191.132 116.132 191.111 116.086C191.095 116.056 191.08 116.026 191.068 115.997C191.063 115.987 191.058 115.977 191.053 115.97C191.041 115.941 191.027 115.917 191.015 115.891C190.789 115.439 190.559 114.989 190.326 114.539C190.325 114.536 190.325 114.536 190.322 114.534C188.575 111.089 186.462 107.883 184.026 104.984C183.952 104.898 183.878 104.81 183.799 104.726C182.688 103.452 181.483 102.28 180.198 101.222C179.492 100.644 178.761 100.107 178.006 99.6105C176.052 98.3327 173.927 97.3996 171.71 96.8455C167.288 95.7415 162.593 96.1999 158.788 98.7852C158.691 98.8515 158.596 98.917 158.5 98.9859Z" fill="#F2F2F2"/>
<path d="M158.561 99.1289C164.225 98.72 169.863 100.278 174.673 103.581C175.72 104.272 176.661 105.14 177.462 106.152C178.213 107.165 178.702 108.381 178.88 109.672C179.067 110.872 179.132 112.124 179.582 113.253C179.821 113.828 180.167 114.34 180.599 114.758C181.031 115.175 181.538 115.487 182.088 115.675C183.447 116.181 184.89 116.121 186.3 116.009C187.865 115.885 189.489 115.729 190.98 116.383C191.161 116.462 191.263 116.15 191.082 116.071C188.487 114.933 185.681 116.156 183.011 115.598C181.764 115.338 180.582 114.665 179.978 113.392C179.449 112.279 179.381 110.988 179.201 109.771C179.045 108.509 178.609 107.307 177.932 106.272C177.181 105.219 176.272 104.313 175.243 103.593C172.952 101.934 170.437 100.679 167.79 99.8757C164.773 98.9405 161.633 98.5778 158.505 98.8032C158.311 98.8172 158.368 99.1429 158.561 99.1289V99.1289Z" fill="white"/>
<path d="M173.181 102.418C173.577 101.458 173.649 100.375 173.384 99.3622C173.119 98.3496 172.534 97.4733 171.734 96.8897C171.571 96.7723 171.397 97.0432 171.56 97.1608C172.306 97.7027 172.851 98.5191 173.096 99.4626C173.341 100.406 173.27 101.415 172.897 102.306C172.816 102.5 173.101 102.61 173.181 102.418L173.181 102.418Z" fill="white"/>
<path d="M178.858 109.05C177.026 109.828 174.994 109.821 173.166 109.029C172.985 108.951 172.884 109.263 173.065 109.341C174.967 110.161 177.082 110.164 178.987 109.35C179.169 109.272 179.039 108.973 178.858 109.05V109.05Z" fill="white"/>
<path d="M164.826 99.3761C164.744 99.7826 164.57 100.16 164.322 100.475C164.073 100.79 163.757 101.032 163.402 101.18C163.219 101.255 163.35 101.554 163.531 101.479C163.922 101.314 164.271 101.046 164.547 100.699C164.822 100.352 165.016 99.936 165.111 99.4879C165.123 99.4465 165.12 99.4015 165.103 99.3622C165.086 99.3228 165.056 99.2921 165.02 99.2761C164.982 99.2615 164.94 99.2638 164.904 99.2826C164.868 99.3013 164.84 99.3349 164.826 99.3762V99.3761Z" fill="white"/>
<path d="M53.9069 40.3379C55.3102 40.3379 56.4478 39.0909 56.4478 37.5527C56.4478 36.0145 55.3102 34.7676 53.9069 34.7676C52.5036 34.7676 51.366 36.0145 51.366 37.5527C51.366 39.0909 52.5036 40.3379 53.9069 40.3379Z" fill="#FD6584"/>
<path d="M151.166 67.8159C151.391 66.2976 150.45 64.867 149.065 64.6206C147.68 64.3742 146.375 65.4053 146.15 66.9237C145.925 68.442 146.866 69.8726 148.251 70.119C149.636 70.3654 150.942 69.3343 151.166 67.8159Z" fill="#E6E6E6"/>
<path d="M53.8035 8.9956C55.2068 8.9956 56.3444 7.74864 56.3444 6.21044C56.3444 4.67225 55.2068 3.42529 53.8035 3.42529C52.4002 3.42529 51.2626 4.67225 51.2626 6.21044C51.2626 7.74864 52.4002 8.9956 53.8035 8.9956Z" fill="#E6E6E6"/>
<path d="M129.62 38.984H128.894V17.2061C128.894 13.8631 127.683 10.6571 125.526 8.29335C123.37 5.92955 120.445 4.60157 117.395 4.60156H75.3016C73.7915 4.60156 72.2962 4.92758 70.901 5.56101C69.5059 6.19444 68.2382 7.12287 67.1704 8.2933C66.1026 9.46373 65.2556 10.8532 64.6777 12.3825C64.0998 13.9117 63.8024 15.5508 63.8024 17.206V17.206V136.682C63.8024 140.024 65.0139 143.23 67.1704 145.594C69.3269 147.958 72.2518 149.286 75.3016 149.286H117.395C120.445 149.286 123.37 147.958 125.526 145.594C127.683 143.23 128.894 140.024 128.894 136.682V54.4859H129.62V38.984Z" fill="#3F3D56"/>
<path d="M126.446 17.2935V136.594C126.446 137.83 126.224 139.054 125.793 140.196C125.362 141.337 124.729 142.375 123.932 143.249C123.135 144.123 122.189 144.816 121.147 145.289C120.105 145.763 118.989 146.006 117.861 146.006H75.5622C73.285 146.006 71.101 145.015 69.4906 143.25C67.8803 141.485 66.9756 139.091 66.9755 136.595V17.2936C66.9754 16.0576 67.1974 14.8337 67.6289 13.6918C68.0603 12.5499 68.6927 11.5123 69.49 10.6383C70.2873 9.76434 71.2338 9.07102 72.2755 8.59797C73.3172 8.12493 74.4338 7.88142 75.5613 7.88135H80.6955C80.4427 8.56032 80.3462 9.29702 80.4143 10.0265C80.4825 10.7561 80.7133 11.456 81.0865 12.0647C81.4596 12.6734 81.9636 13.1722 82.554 13.517C83.1444 13.8619 83.8032 14.0423 84.4722 14.0424H108.588C109.257 14.0419 109.915 13.8611 110.506 13.5161C111.096 13.1711 111.6 12.6724 111.973 12.0638C112.346 11.4553 112.577 10.7556 112.645 10.0262C112.713 9.29691 112.617 8.56034 112.365 7.88135H117.859C118.987 7.88129 120.103 8.12467 121.145 8.5976C122.187 9.07052 123.133 9.76373 123.931 10.6376C124.728 11.5116 125.361 12.5491 125.792 13.6909C126.224 14.8328 126.446 16.0566 126.446 17.2926V17.2926L126.446 17.2935Z" fill="#F2F2F2"/>
<path d="M83.3021 19.2695H70.1805V19.9133H83.3021V19.2695Z" fill="white"/>
<path d="M103.272 19.2695H90.15V19.9133H103.272V19.2695Z" fill="white"/>
<path d="M117.281 96.3551H74.5083C74.3642 96.3551 74.2215 96.324 74.0884 96.2635C73.9552 96.2031 73.8342 96.1145 73.7323 96.0028C73.6304 95.8911 73.5496 95.7584 73.4944 95.6125C73.4393 95.4666 73.4109 95.3101 73.4109 95.1522C73.4109 94.9942 73.4393 94.8378 73.4944 94.6918C73.5496 94.5459 73.6304 94.4133 73.7323 94.3016C73.8342 94.1899 73.9552 94.1012 74.0884 94.0408C74.2215 93.9803 74.3642 93.9492 74.5083 93.9492H117.281C117.426 93.9492 117.568 93.9803 117.701 94.0408C117.835 94.1012 117.956 94.1899 118.057 94.3016C118.159 94.4133 118.24 94.5459 118.295 94.6918C118.351 94.8378 118.379 94.9942 118.379 95.1522C118.379 95.3101 118.351 95.4666 118.295 95.6125C118.24 95.7584 118.159 95.8911 118.057 96.0028C117.956 96.1145 117.835 96.2031 117.701 96.2635C117.568 96.324 117.426 96.3551 117.281 96.3551V96.3551Z" fill="#CCCCCC"/>
<path d="M117.281 104.724H74.5083C74.2173 104.724 73.9381 104.598 73.7323 104.372C73.5265 104.146 73.4109 103.84 73.4109 103.521C73.4109 103.202 73.5265 102.896 73.7323 102.671C73.9381 102.445 74.2173 102.318 74.5083 102.318H117.281C117.573 102.318 117.852 102.445 118.057 102.671C118.263 102.896 118.379 103.202 118.379 103.521C118.379 103.84 118.263 104.146 118.057 104.372C117.852 104.598 117.573 104.724 117.281 104.724V104.724Z" fill="#CCCCCC"/>
<path d="M117.281 113.093H74.5083C74.2173 113.093 73.9381 112.967 73.7323 112.741C73.5265 112.515 73.4109 112.209 73.4109 111.89C73.4109 111.571 73.5265 111.265 73.7323 111.04C73.9381 110.814 74.2173 110.688 74.5083 110.688H117.281C117.573 110.688 117.852 110.814 118.057 111.04C118.263 111.265 118.379 111.571 118.379 111.89C118.379 112.209 118.263 112.515 118.057 112.741C117.852 112.967 117.573 113.093 117.281 113.093V113.093Z" fill="#CCCCCC"/>
<path d="M123.241 19.2695H110.119V19.9133H123.241V19.2695Z" fill="white"/>
<path d="M83.3021 134.83H70.1805V135.474H83.3021V134.83Z" fill="white"/>
<path d="M103.272 134.83H90.15V135.474H103.272V134.83Z" fill="white"/>
<path d="M123.241 134.83H110.119V135.474H123.241V134.83Z" fill="white"/>
<path d="M96.7107 79.876C107.696 79.876 116.6 70.1152 116.6 58.0745C116.6 46.0338 107.696 36.2729 96.7107 36.2729C85.7259 36.2729 76.8209 46.0338 76.8209 58.0745C76.8209 70.1152 85.7259 79.876 96.7107 79.876Z" fill="#D1D3D4"/>
<path d="M96.7108 78.9301C106.732 78.9301 114.856 70.0252 114.856 59.0405C114.856 48.0557 106.732 39.1509 96.7108 39.1509C86.6893 39.1509 78.5653 48.0557 78.5653 59.0405C78.5653 70.0252 86.6893 78.9301 96.7108 78.9301Z" fill="#1EB366"/>
<path d="M95.1265 66.8359C95.0874 66.8359 95.0477 66.8348 95.008 66.8328C94.66 66.8143 94.3198 66.7135 94.0106 66.5374C93.7015 66.3612 93.4307 66.1139 93.217 65.8123L90.3571 61.7824C89.9638 61.2271 89.7876 60.5235 89.8671 59.826C89.9465 59.1285 90.2752 58.494 90.781 58.0618L90.8834 57.9744C91.3901 57.5433 92.0321 57.3502 92.6686 57.4372C93.3051 57.5242 93.8841 57.8843 94.2787 58.4385C94.407 58.6196 94.5696 58.7681 94.7552 58.8739C94.9408 58.9796 95.1451 59.0401 95.3541 59.0512C95.5632 59.0646 95.7725 59.0273 95.967 58.9417C96.1615 58.8562 96.3363 58.7247 96.4791 58.5565L102.286 51.8378C102.727 51.3281 103.335 51.0312 103.976 51.0122C104.617 50.9932 105.239 51.2536 105.705 51.7363L105.799 51.8341C106.265 52.3181 106.536 52.9845 106.553 53.6873C106.571 54.3901 106.333 55.0717 105.892 55.5826L96.8818 66.008C96.656 66.2696 96.3838 66.478 96.082 66.6203C95.7802 66.7627 95.4551 66.836 95.1265 66.8359V66.8359Z" fill="white"/>
<path d="M64.9314 27.563H62.582V41.4044H64.9314V27.563Z" fill="#3F3D56"/>
<path d="M64.9314 43.0137H62.582V51.061H64.9314V43.0137Z" fill="#3F3D56"/>
<path d="M64.9314 52.6704H62.582V60.7178H64.9314V52.6704Z" fill="#3F3D56"/>
<path d="M85.1944 11.1464C85.8432 11.1464 86.3691 10.57 86.3691 9.85887C86.3691 9.14776 85.8432 8.57129 85.1944 8.57129C84.5457 8.57129 84.0198 9.14776 84.0198 9.85887C84.0198 10.57 84.5457 11.1464 85.1944 11.1464Z" fill="white"/>
<path opacity="0.16" d="M96.7108 76.1751C92.1201 76.1744 87.7002 74.2662 84.3422 70.8351C80.9842 67.404 78.9376 62.7051 78.615 57.6855C78.5856 58.1486 78.5653 58.6144 78.5653 59.0856C78.5653 64.3607 80.4771 69.4197 83.88 73.1497C87.2829 76.8797 91.8983 78.9752 96.7108 78.9752C101.523 78.9752 106.139 76.8797 109.542 73.1497C112.945 69.4197 114.856 64.3607 114.856 59.0856C114.856 58.6144 114.836 58.1486 114.807 57.6855C114.484 62.7051 112.437 67.404 109.079 70.8351C105.721 74.2662 101.302 76.1744 96.7108 76.1751V76.1751Z" fill="#231F20"/>
<path d="M122.293 75.0901L136.682 75.7338L138.444 65.1111L126.11 60.9268L122.293 75.0901Z" fill="#FFB8B8"/>
<path d="M127.731 52.0825L127.871 47.064L120.897 45.1475L108.341 41.1323C108.174 40.5798 107.859 40.0955 107.436 39.7437C107.014 39.3918 106.504 39.1889 105.973 39.1618C105.443 39.1347 104.918 39.2847 104.467 39.5919C104.016 39.8991 103.661 40.349 103.449 40.8822C103.237 41.4154 103.177 42.0067 103.278 42.5779C103.379 43.1491 103.635 43.6733 104.014 44.0811C104.392 44.4889 104.875 44.7611 105.398 44.8617C105.921 44.9623 106.459 44.8866 106.942 44.6446L119.148 50.1446L127.731 52.0825Z" fill="#FFB8B8"/>
<path d="M123.238 52.0475L127.161 45.9141L127.259 45.9283C127.32 45.9372 133.473 46.8395 137.506 48.156C137.959 48.2877 138.381 48.5261 138.742 48.8548C139.102 49.1834 139.393 49.5943 139.594 50.0588C139.882 50.7079 139.991 51.4351 139.908 52.1512C139.824 52.8673 139.552 53.5411 139.124 54.0898C138.688 54.683 138.106 55.1261 137.446 55.3662C136.787 55.6063 136.079 55.6333 135.406 55.4438L123.238 52.0475Z" fill="#ED212B"/>
<path d="M125.723 145.035L121.732 145.035L119.833 128.163L125.723 128.163L125.723 145.035Z" fill="#FFB8B8"/>
<path d="M156.795 143.141L152.85 143.795L148.671 127.423L153.844 126.458L156.795 143.141Z" fill="#FFB8B8"/>
<path d="M137.27 72.5146L123.467 69.9395L122.977 71.0486C120.335 77.0241 118.775 83.5043 118.384 90.1305C118.05 95.7242 117.854 101.632 117.848 107.825C117.838 117.421 118.285 126.324 118.991 134.426L126.566 134.374C126.347 125.772 126.645 117.164 127.458 108.606C128.038 102.503 128.844 96.8017 129.776 91.5413C131.505 99.2638 133.946 106.774 137.06 113.955C139.708 120.092 145.153 127.185 147.8 133.321C150.512 132.964 153.225 132.608 155.938 132.251C153.8 126.054 149.986 117.005 147.849 110.809C144.792 101.949 143.411 95.9412 140.355 87.0813C140.529 85.4158 140.563 83.7362 140.457 82.0638C140.314 79.2764 139.785 75.9314 138.239 73.7014L137.27 72.5146Z" fill="#2F2E41"/>
<path d="M139.402 67.8964C140.091 69.3086 138.454 72.2344 137.27 72.5147L123.621 67.6786L130.493 45.8496L133.951 46.5385L139.481 47.5597L141.443 49.5141C141.937 50.0068 142.29 50.6461 142.458 51.3544C142.627 52.0626 142.605 52.8094 142.394 53.504L139.402 67.8964Z" fill="#ED212B"/>
<path d="M130.006 59.4602L126.145 56.7593L121.072 62.3439L111.496 72.1093C110.978 71.9828 110.437 72.0317 109.945 72.2495C109.452 72.4673 109.032 72.8437 108.739 73.329C108.447 73.8143 108.295 74.3856 108.305 74.9673C108.315 75.549 108.486 76.1137 108.795 76.5867C109.104 77.0597 109.537 77.4187 110.036 77.6162C110.535 77.8137 111.077 77.8405 111.591 77.6929C112.104 77.5453 112.565 77.2303 112.911 76.7896C113.258 76.349 113.474 75.8033 113.532 75.225L124.092 66.5488L130.006 59.4602Z" fill="#FFB8B8"/>
<path d="M127.677 63.6734L124.88 56.839L124.941 56.7541C124.98 56.7009 128.837 51.3701 131.934 48.247C132.27 47.8876 132.673 47.6128 133.115 47.4416C133.557 47.2703 134.028 47.2069 134.495 47.2557C135.151 47.3169 135.776 47.5868 136.295 48.0321C136.813 48.4774 137.202 49.0789 137.413 49.7627C137.654 50.4765 137.703 51.2515 137.554 51.9951C137.405 52.7387 137.063 53.4194 136.57 53.9558L127.677 63.6734Z" fill="#ED212B"/>
<path d="M136.378 44.3912C139.731 44.3912 142.448 41.4122 142.448 37.7374C142.448 34.0625 139.731 31.0835 136.378 31.0835C133.025 31.0835 130.308 34.0625 130.308 37.7374C130.308 41.4122 133.025 44.3912 136.378 44.3912Z" fill="#FFB8B8"/>
<path d="M141.28 47.3789L141.257 47.3725L132.436 44.954C132.13 44.8702 131.847 44.7091 131.608 44.4835C131.369 44.2579 131.182 43.9742 131.062 43.6551C130.941 43.336 130.891 42.9903 130.914 42.6459C130.937 42.3015 131.034 41.9678 131.196 41.6717L131.488 41.1403C131.772 40.6214 131.934 40.0327 131.957 39.4278C131.981 38.8229 131.866 38.2211 131.623 37.6774C131.205 36.7895 130.486 36.1165 129.621 35.803L129.592 35.7876L129.406 35.6612C129.224 35.567 129.062 35.4321 128.93 35.2652C128.799 35.0983 128.7 34.9031 128.641 34.6921C128.58 34.4734 128.562 34.243 128.587 34.016C128.612 33.7889 128.68 33.5701 128.787 33.3738C129.566 31.946 130.731 30.8198 132.121 30.1519C133.878 29.3232 135.856 29.2581 137.654 29.9697C137.774 29.8491 137.919 29.7629 138.077 29.719C138.234 29.6751 138.399 29.6748 138.557 29.7181C143.126 30.9309 143.502 34.2921 142.599 39.6876L143.667 44.4102C143.743 44.7436 143.751 45.0911 143.692 45.4285C143.633 45.7658 143.507 46.085 143.324 46.3637C143.14 46.6424 142.904 46.8741 142.631 47.0425C142.357 47.211 142.054 47.3122 141.742 47.3392L141.28 47.3789ZM137.605 30.0229L137.604 30.0235L137.605 30.0229ZM137.715 29.9933L137.716 29.9936L137.715 29.9933Z" fill="#2F2E41"/>
<path d="M126.695 149.409H124.418L124.011 147.052L122.97 149.409H116.929C116.64 149.409 116.358 149.307 116.124 149.119C115.891 148.931 115.719 148.666 115.633 148.363C115.547 148.06 115.551 147.735 115.645 147.435C115.74 147.135 115.919 146.876 116.158 146.695L120.981 143.043V140.661L126.055 140.993L126.695 149.409Z" fill="#2F2E41"/>
<path d="M157.431 149.409H155.153L154.746 147.052L153.705 149.409H147.665C147.375 149.409 147.093 149.307 146.86 149.119C146.627 148.931 146.454 148.666 146.368 148.363C146.282 148.06 146.286 147.735 146.381 147.435C146.475 147.135 146.655 146.876 146.893 146.695L151.717 143.043V140.661L156.791 140.993L157.431 149.409Z" fill="#2F2E41"/>
</g>
<defs>
<clipPath id="clip0_470_437">
<rect width="192" height="150" fill="white"/>
</clipPath>
</defs>
</svg>
