<svg width="23" height="23" viewBox="0 0 23 23" fill="none" xmlns="http://www.w3.org/2000/svg">
<path d="M3.13739 18.5585L3.30156 18.0691L2.9977 17.6518C1.73977 15.9243 1 13.7976 1 11.5C1 5.70979 5.70884 1 11.4971 1H11.5029C17.2911 1 22 5.71115 22 11.5C22 17.2889 17.2911 22 11.5029 22C9.36607 22 7.3881 21.3652 5.7287 20.266L5.32882 20.0011L4.87194 20.1471L2.33209 20.959L3.13739 18.5585Z" fill="#4CAF50" stroke="white" stroke-width="2"/>
<path d="M18.1944 16.2394C17.917 17.0228 16.8159 17.6726 15.9376 17.8623C15.3367 17.9903 14.5518 18.0923 11.9097 16.997C8.53014 15.5968 6.35376 12.1626 6.18414 11.9398C6.0217 11.717 4.81851 10.1214 4.81851 8.47114C4.81851 6.82089 5.65657 6.01733 5.99439 5.67233C6.27182 5.38914 6.73039 5.25977 7.17026 5.25977C7.31257 5.25977 7.44051 5.26695 7.55551 5.2727C7.89332 5.28708 8.06295 5.3072 8.28576 5.84052C8.5632 6.50895 9.23882 8.1592 9.31932 8.32883C9.40126 8.49845 9.4832 8.72845 9.3682 8.95127C9.26039 9.18127 9.16551 9.28333 8.99589 9.47883C8.82626 9.67433 8.66526 9.82383 8.49564 10.0337C8.34039 10.2163 8.16501 10.4118 8.36051 10.7496C8.55601 11.0802 9.23164 12.1828 10.2264 13.0683C11.5101 14.2111 12.5508 14.5762 12.9231 14.7315C13.2006 14.8465 13.5312 14.8191 13.7339 14.6035C13.9912 14.3261 14.3089 13.8661 14.6323 13.4133C14.8623 13.0884 15.1527 13.0481 15.4574 13.1631C15.7679 13.271 17.411 14.0831 17.7488 14.2513C18.0866 14.421 18.3094 14.5015 18.3914 14.6438C18.4719 14.7861 18.4719 15.4545 18.1944 16.2394Z" fill="#FAFAFA"/>
</svg>
