<svg width="32" height="32" viewBox="0 0 32 32" fill="none" xmlns="http://www.w3.org/2000/svg">
<mask id="mask0_98:3365" style="mask-type:alpha" maskUnits="userSpaceOnUse" x="0" y="0" width="32" height="27">
<rect x="31" y="25.4614" width="30" height="24.4613" transform="rotate(-180 31 25.4614)" fill="#FEFEFE" stroke="#E2E2E2" stroke-width="2"/>
</mask>
<g mask="url(#mask0_98:3365)">
<path d="M2.64094 26.4619C2.64094 20.86 4.20091 15.8324 6.6711 12.233C9.14441 8.62906 12.4597 6.53899 15.9999 6.53899C19.5401 6.53899 22.8554 8.62906 25.3287 12.233C27.7989 15.8324 29.3589 20.86 29.3589 26.4619C29.3589 32.0637 27.7989 37.0914 25.3287 40.6907C22.8554 44.2947 19.5401 46.3848 15.9999 46.3848C12.4597 46.3848 9.14441 44.2947 6.6711 40.6907C4.20091 37.0914 2.64094 32.0637 2.64094 26.4619Z" fill="#FEFEFE" stroke="#E2E2E2" stroke-width="2"/>
</g>
<path d="M30.9031 26.8462C30.4375 29.2139 28.3504 31 25.8462 31H6.15379C3.64958 31 1.56251 29.2139 1.09695 26.8462H30.9031Z" fill="#FEFEFE" stroke="#E2E2E2" stroke-width="2"/>
<rect x="16.25" y="3.25" width="0.5" height="2.5" fill="#FEFEFE" stroke="#E2E2E2" stroke-width="0.5"/>
<rect x="15.25" y="2.75" width="0.5" height="2.5" transform="rotate(-90 15.25 2.75)" fill="#FEFEFE" stroke="#E2E2E2" stroke-width="0.5"/>
<path d="M7.94333 17.2412C7.60095 18.0096 7.2836 18.8318 7 19.6862L7.81648 20.7664C8.07511 19.9882 8.36405 19.2384 8.67555 18.5394L7.94333 17.2412Z" fill="#E2E2E2"/>
<path d="M15.9995 10C13.2489 10.003 10.6299 12.0774 8.62573 15.8382L9.29677 17.2625C11.1188 13.8429 13.4997 11.9581 16.0001 11.9552L15.9995 10Z" fill="#E2E2E2"/>
</svg>
