<svg width="292" height="230" viewBox="0 0 292 230" fill="none" xmlns="http://www.w3.org/2000/svg">
<ellipse cx="146" cy="115" rx="146" ry="115" fill="#FDF5DA"/>
<path d="M144.063 188C199.257 188 244 185.423 244 182.243C244 179.064 199.257 176.487 144.063 176.487C88.8696 176.487 44.1263 179.064 44.1263 182.243C44.1263 185.423 88.8696 188 144.063 188Z" fill="#F8CE39"/>
<path d="M197.96 100.5C197.96 100.5 198.574 106.831 198.574 107.066C198.574 107.3 194.278 123.48 194.278 123.48C194.278 123.48 188.142 132.391 194.278 132.157C200.415 131.922 198.574 123.715 198.574 123.715L205.018 110.114L202.256 100.5L197.96 100.5Z" fill="#A0616A"/>
<path d="M200.765 116.618H76.7299V182.243H200.765V116.618Z" fill="#F2F2F2"/>
<path d="M118.547 141.947H87.3614V182.819H118.547V141.947Z" fill="#3F3D56"/>
<path d="M101.537 144.25H93.0315V150.007H101.537V144.25Z" fill="#F2F2F2"/>
<path d="M112.877 144.25H104.372V150.007H112.877V144.25Z" fill="#F2F2F2"/>
<path d="M101.537 152.309H93.0315V158.066H101.537V152.309Z" fill="#F2F2F2"/>
<path d="M112.877 152.309H104.372V158.066H112.877V152.309Z" fill="#F2F2F2"/>
<path d="M114.649 166.701C115.628 166.701 116.421 165.928 116.421 164.974C116.421 164.02 115.628 163.247 114.649 163.247C113.671 163.247 112.877 164.02 112.877 164.974C112.877 165.928 113.671 166.701 114.649 166.701Z" fill="#6C63FF"/>
<path d="M190.842 137.918H129.179V176.487H190.842V137.918Z" fill="#FF7070"/>
<path d="M214.232 129.283H63.9719L73.9904 113.452L76.2325 109.908L79.1657 105.272L81.4078 101.728L84.007 97.6216H202.393L203.928 101.728L205.254 105.272L206.987 109.908L208.313 113.452L214.232 129.283Z" fill="#DC4141"/>
<path d="M133.432 154.036H131.305V163.822H133.432V154.036Z" fill="#DC4141"/>
<path d="M133.432 155.763H131.305V156.914H133.432V155.763Z" fill="#F2F2F2"/>
<path d="M133.432 161.52H131.305V162.671H133.432V161.52Z" fill="#F2F2F2"/>
<path d="M139.811 154.036H134.14V163.822H139.811V154.036Z" fill="#DC4141"/>
<path d="M139.811 155.763H134.14V156.914H139.811V155.763Z" fill="#F2F2F2"/>
<path d="M139.811 161.52H134.14V162.671H139.811V161.52Z" fill="#F2F2F2"/>
<path d="M190.842 163.823H129.179V164.974H190.842V163.823Z" fill="#F2F2F2"/>
<path d="M160.365 137.918H158.947V146.553H160.365V137.918Z" fill="#F2F2F2"/>
<path d="M160.011 147.704C160.989 147.704 161.782 147.189 161.782 146.553C161.782 145.917 160.989 145.401 160.011 145.401C159.032 145.401 158.239 145.917 158.239 146.553C158.239 147.189 159.032 147.704 160.011 147.704Z" fill="#F2F2F2"/>
<path d="M205.018 105.105H79.5649L81.7957 101.651H203.699L205.018 105.105Z" fill="#F2F2F2"/>
<path d="M207.853 113.165H73.8947L76.1307 109.711H206.53L207.853 113.165Z" fill="#F2F2F2"/>
<path d="M66.0982 153.461C79.4073 153.461 90.1965 145.342 90.1965 135.327C90.1965 125.313 79.4073 117.194 66.0982 117.194C52.7892 117.194 42 125.313 42 135.327C42 145.342 52.7892 153.461 66.0982 153.461Z" fill="#F44848"/>
<path opacity="0.1" d="M66.0983 151.158C77.4502 151.158 86.6527 144.199 86.6527 135.615C86.6527 127.031 77.4502 120.072 66.0983 120.072C54.7465 120.072 45.5439 127.031 45.5439 135.615C45.5439 144.199 54.7465 151.158 66.0983 151.158Z" fill="black"/>
<path d="M65.1961 144.826V142.559C63.6573 142.537 62.0654 142.133 61.1368 141.572L61.7735 140.069C62.877 140.685 64.2152 141.022 65.5941 141.034C67.4779 141.034 68.7514 140.114 68.7514 138.835C68.7514 137.601 67.7166 136.838 65.7533 136.165C63.0471 135.267 61.3756 134.235 61.3756 132.283C61.3756 130.421 62.941 129.007 65.3819 128.671V126.405H67.0268V128.581C68.2534 128.593 69.4498 128.866 70.4759 129.366L69.8126 130.847C68.8284 130.346 67.6622 130.08 66.4696 130.084C64.4268 130.084 63.6573 131.116 63.6573 132.014C63.6573 133.181 64.639 133.764 66.9473 134.572C69.6799 135.514 71.0596 136.681 71.0596 138.678C71.0596 140.45 69.6004 142.111 66.8676 142.492V144.826H65.1961Z" fill="#F2F2F2"/>
<path d="M138.999 77.594C127.534 60.1297 125.406 58.3373 125.406 51.9189C125.406 43.1271 132.189 36 140.556 36C148.924 36 155.706 43.1271 155.706 51.9189C155.706 58.3373 153.578 60.1297 142.113 77.594C141.361 78.736 139.752 78.7359 138.999 77.594Z" fill="#F44848"/>
<path d="M133.764 58.1949C133.764 58.1949 132.726 60.6406 133.609 60.6406C134.492 60.6406 145.616 60.6932 145.925 60.0095C146.141 59.5304 146.022 57.825 145.931 56.8469C145.913 56.6567 145.835 56.4819 145.713 56.3583C145.59 56.2347 145.433 56.1717 145.272 56.1823C142.866 56.3405 133.879 56.9269 133.918 56.8537C133.995 56.709 133.94 56.7485 133.94 56.7485C133.94 56.7485 133.587 58.0897 133.764 58.1949Z" fill="#D5BA5C"/>
<path opacity="0.1" d="M145.953 56.8469C145.935 56.6567 145.857 56.4819 145.735 56.3583C145.612 56.2347 145.455 56.1717 145.294 56.1823C142.889 56.3405 133.901 56.9269 133.94 56.8537C134.017 56.709 133.962 56.7485 133.962 56.7485C133.962 56.7485 133.883 57.0479 133.819 57.3749C133.828 57.3738 133.835 57.3841 133.805 57.4465C133.802 57.4606 133.8 57.4747 133.797 57.4888C134.157 57.5312 142.79 56.968 145.14 56.8135C145.3 56.8029 145.458 56.8658 145.58 56.9895C145.703 57.1131 145.781 57.2879 145.799 57.478C145.866 58.2053 145.949 59.3344 145.899 60.0627C145.918 60.0501 145.935 60.0318 145.947 60.0094C146.163 59.5304 146.044 57.825 145.953 56.8469Z" fill="black"/>
<path d="M135 54.5297C134.885 54.4877 134.739 54.4335 134.753 54.345C134.76 54.2981 134.812 54.2614 134.851 54.222C134.924 54.1461 134.944 54.0392 134.865 53.9658C134.786 53.8925 134.595 53.8827 134.525 53.9603C134.489 54.0002 134.492 54.0503 134.473 54.0954C134.415 54.236 134.181 54.2978 133.982 54.3524C133.783 54.4071 133.561 54.5087 133.579 54.6542C133.6 54.813 133.907 54.9538 133.783 55.0891C133.738 55.1382 133.644 55.1656 133.624 55.2218C133.61 55.2613 133.638 55.3014 133.666 55.3375L133.861 55.594C133.939 55.696 134.019 55.807 133.993 55.9206C133.941 56.1457 133.522 56.2319 133.19 56.2066C133.068 56.1973 132.925 56.1846 132.841 56.2456C132.777 56.2926 132.777 56.3657 132.798 56.4284C132.853 56.5895 133.03 56.7291 133.256 56.7902C133.003 56.8497 132.903 57.1005 133.078 57.2387C132.978 57.2797 132.87 57.2833 132.768 57.2492C132.682 57.344 132.732 57.4741 132.842 57.5571C132.952 57.64 133.107 57.6867 133.257 57.731L133.117 57.8877C133.218 57.9825 133.438 57.9491 133.587 57.8892C133.735 57.8293 133.896 57.7489 134.062 57.7802C134.218 57.8096 134.336 57.9335 134.494 57.9123C134.617 57.8958 134.676 57.8017 134.714 57.7204L134.877 57.375C135.109 57.4182 135.352 57.2289 135.259 57.078C135.519 57.1112 135.774 56.9105 135.689 56.7403C135.827 56.8672 135.924 57.0147 135.972 57.1694C135.993 57.2385 136.006 57.3116 136.064 57.3701C136.102 57.4037 136.146 57.4264 136.192 57.4364C136.239 57.4464 136.286 57.4435 136.332 57.4278C136.284 57.5371 136.246 57.6646 136.343 57.7573C136.44 57.8501 136.721 57.8238 136.709 57.7101C136.857 57.786 137.023 57.8574 137.208 57.863C137.393 57.8687 137.596 57.7847 137.613 57.6589C137.874 57.7615 138.147 57.8139 138.422 57.8141C138.445 57.7299 138.609 57.7027 138.731 57.7232C138.853 57.7438 138.966 57.7933 139.092 57.7933C139.218 57.7934 139.353 57.7032 139.289 57.6296C139.553 57.6956 139.825 57.712 140.094 57.6781C140.348 57.646 140.589 57.5697 140.846 57.5532C141.107 57.5343 141.368 57.5834 141.611 57.6972C141.695 57.7393 141.8 57.7922 141.892 57.7592C141.945 57.7405 141.97 57.7 142.006 57.6678C142.16 57.529 142.474 57.5556 142.716 57.6102C142.958 57.6648 143.24 57.7304 143.452 57.634C143.532 57.5976 143.591 57.5414 143.676 57.5108C143.981 57.4014 144.347 57.6818 144.67 57.6011C144.776 57.5749 144.862 57.512 144.973 57.5042C145.171 57.4905 145.302 57.6505 145.495 57.6849C145.695 57.7207 145.912 57.5757 145.863 57.4389C146.055 57.444 146.247 57.4123 146.43 57.3449L146.34 57.1503C146.566 57.146 146.732 56.9528 146.627 56.8162C146.854 56.7647 147.033 56.6262 147.08 56.4665C147.127 56.3068 147.039 56.1321 146.858 56.0255C146.751 55.9626 146.611 55.9183 146.551 55.8316C146.507 55.7692 146.513 55.6966 146.496 55.6284C146.459 55.4791 146.297 55.3472 146.088 55.2958C145.997 55.2735 145.897 55.265 145.815 55.2305C145.733 55.196 145.673 55.1213 145.721 55.064C145.746 55.0337 145.794 55.0159 145.826 54.9883C145.952 54.8767 145.735 54.7354 145.549 54.6727L145.993 54.6554L146.088 54.1409C145.912 54.311 145.457 54.2752 145.343 54.0824C145.486 54.1381 145.677 54.0669 145.746 53.9656C145.816 53.8642 145.799 53.7464 145.78 53.6352C145.779 53.6076 145.771 53.581 145.758 53.558C145.745 53.535 145.727 53.5164 145.707 53.504C145.663 53.4793 145.594 53.4691 145.58 53.4318C145.565 53.3938 145.621 53.3602 145.63 53.3213C145.646 53.2468 145.502 53.2139 145.405 53.1778C145.175 53.0927 145.064 52.8535 144.803 52.8613C144.545 52.869 144.472 53.1045 144.472 53.281C144.472 53.4574 144.384 53.6935 144.125 53.6902C144.022 53.6889 143.932 53.6446 143.849 53.6022L143.107 53.2209C143.009 53.1666 142.907 53.123 142.802 53.0908C142.653 53.0491 142.487 53.0442 142.326 53.0399L141.288 53.0118C141.235 53.0068 141.182 53.0123 141.13 53.0279C141.076 53.0496 141.049 53.0923 141.017 53.1291C140.872 53.2907 140.532 53.3541 140.287 53.265C140.222 53.2414 140.164 53.2089 140.095 53.1911C139.878 53.135 139.65 53.2387 139.425 53.2762C139.055 53.3376 138.596 53.2319 138.329 53.4169C138.24 53.4785 138.193 53.5629 138.111 53.6286C138.029 53.6943 137.88 53.7389 137.776 53.6892C137.789 53.8099 137.801 53.9357 137.733 54.0473C137.664 54.1589 137.488 54.2499 137.316 54.2218C137.224 54.1929 137.231 54.1011 137.275 54.039C137.318 53.9769 137.384 53.9134 137.363 53.8463C137.341 53.7796 137.243 53.7409 137.17 53.6944C137.097 53.6479 137.048 53.5599 137.126 53.517C137.073 53.4366 136.884 53.4464 136.801 53.5138C136.718 53.5813 136.71 53.6762 136.701 53.764C136.692 53.8518 136.672 53.9479 136.576 54.0067C136.412 54.1068 136.097 54.0548 135.989 54.1852C135.954 54.2267 135.952 54.2766 135.932 54.3223C135.844 54.5263 135.464 54.5791 135.152 54.5958C135.146 54.6382 135.144 54.6815 135.148 54.7245C135.254 54.6696 135.077 54.5579 135 54.5297Z" fill="#61AB43"/>
<path opacity="0.1" d="M145.78 54.2966C145.799 54.4078 145.816 54.5257 145.746 54.627C145.736 54.6416 145.724 54.6548 145.712 54.6663C145.805 54.6627 145.899 54.659 145.993 54.6554C146.024 54.4839 146.056 54.3124 146.088 54.1409C146.015 54.2113 145.895 54.2463 145.77 54.2496C145.774 54.265 145.778 54.2807 145.78 54.2966Z" fill="black"/>
<path opacity="0.1" d="M145.862 54.9027C145.851 54.8332 145.755 54.7626 145.647 54.7122C145.552 54.7658 145.445 54.7771 145.343 54.7439C145.422 54.8769 145.663 54.9351 145.862 54.9027Z" fill="black"/>
<path opacity="0.1" d="M146 55.2776C145.998 55.2907 145.995 55.3038 145.993 55.3169C145.845 55.3227 145.697 55.3284 145.549 55.3342C145.735 55.3969 145.952 55.5382 145.826 55.6498C145.794 55.6774 145.746 55.6952 145.721 55.7255C145.673 55.7828 145.733 55.8575 145.815 55.892C145.897 55.9265 145.997 55.935 146.087 55.9573C146.297 56.0087 146.459 56.1405 146.496 56.2899C146.513 56.3581 146.507 56.4307 146.551 56.4931C146.611 56.5798 146.751 56.624 146.858 56.687C146.868 56.693 146.878 56.6994 146.888 56.7059C146.984 56.6409 147.054 56.5572 147.08 56.4665C147.127 56.3068 147.039 56.1321 146.858 56.0255C146.751 55.9625 146.611 55.9183 146.551 55.8316C146.507 55.7692 146.513 55.6966 146.496 55.6284C146.459 55.479 146.297 55.3472 146.087 55.2958C146.059 55.2888 146.029 55.2831 146 55.2776Z" fill="black"/>
<path opacity="0.1" d="M133.006 57.6467C133.041 57.5591 133.129 57.4813 133.256 57.4515C133.135 57.4215 133.02 57.3602 132.921 57.2719C132.87 57.2737 132.818 57.266 132.768 57.249C132.682 57.3438 132.732 57.4739 132.842 57.5569C132.894 57.5941 132.949 57.6242 133.006 57.6467Z" fill="black"/>
<path opacity="0.1" d="M133.788 55.0827C133.852 55.0545 133.916 55.0315 133.982 55.0139C134.181 54.9593 134.415 54.8975 134.473 54.7569C134.492 54.7118 134.489 54.6617 134.525 54.6218C134.595 54.5442 134.786 54.554 134.865 54.6273C134.944 54.7007 134.924 54.8076 134.851 54.8835C134.812 54.9229 134.76 54.9596 134.753 55.0066C134.739 55.095 134.885 55.1492 135 55.1912C135.054 55.2119 135.105 55.2438 135.15 55.2853C135.151 55.2759 135.152 55.2666 135.152 55.2573C135.464 55.2406 135.844 55.1878 135.932 54.9838C135.952 54.9381 135.954 54.8882 135.989 54.8467C136.098 54.7163 136.412 54.7683 136.576 54.6682C136.672 54.6094 136.692 54.5133 136.701 54.4255C136.71 54.3377 136.718 54.2428 136.801 54.1753C136.884 54.1079 137.073 54.0981 137.126 54.1785C137.048 54.2214 137.097 54.3094 137.17 54.3559C137.243 54.4024 137.341 54.4411 137.363 54.5078C137.385 54.5749 137.318 54.6384 137.275 54.7005C137.231 54.7627 137.224 54.8544 137.316 54.8833C137.488 54.9114 137.664 54.8204 137.733 54.7088C137.801 54.5972 137.789 54.4714 137.776 54.3508C137.88 54.4004 138.029 54.3558 138.111 54.2901C138.193 54.2244 138.24 54.14 138.329 54.0784C138.596 53.8934 139.055 53.9991 139.425 53.9377C139.65 53.9002 139.878 53.7965 140.095 53.8526C140.164 53.8704 140.222 53.9029 140.287 53.9265C140.532 54.0156 140.872 53.9523 141.017 53.7906C141.049 53.7538 141.076 53.7111 141.13 53.6894C141.182 53.6738 141.235 53.6683 141.288 53.6733C141.634 53.6826 141.98 53.692 142.326 53.7014C142.487 53.7057 142.653 53.7107 142.802 53.7523C142.907 53.7845 143.009 53.8281 143.107 53.8824C143.354 54.0095 143.602 54.1366 143.849 54.2637C143.932 54.3061 144.022 54.3505 144.125 54.3517C144.384 54.355 144.472 54.1189 144.472 53.9425C144.472 53.766 144.545 53.5305 144.803 53.5228C145.064 53.515 145.175 53.7542 145.405 53.8393C145.502 53.8754 145.646 53.9083 145.63 53.9829C145.622 54.0175 145.577 54.0479 145.577 54.081C145.642 54.0629 145.701 54.0228 145.746 53.9656C145.816 53.8642 145.799 53.7464 145.78 53.6352C145.779 53.6076 145.771 53.581 145.758 53.558C145.745 53.535 145.727 53.5164 145.707 53.504C145.663 53.4793 145.594 53.4691 145.58 53.4318C145.565 53.3938 145.621 53.3602 145.63 53.3213C145.646 53.2468 145.502 53.2139 145.405 53.1778C145.175 53.0927 145.064 52.8535 144.803 52.8613C144.545 52.869 144.472 53.1045 144.472 53.281C144.472 53.4574 144.384 53.6935 144.125 53.6902C144.022 53.689 143.932 53.6446 143.849 53.6022C143.602 53.4751 143.354 53.348 143.107 53.2209C143.009 53.1666 142.907 53.123 142.802 53.0908C142.653 53.0491 142.487 53.0442 142.326 53.0399C141.98 53.0305 141.634 53.0211 141.288 53.0118C141.235 53.0068 141.182 53.0123 141.13 53.0279C141.076 53.0496 141.049 53.0923 141.017 53.1291C140.872 53.2907 140.532 53.3541 140.287 53.265C140.222 53.2414 140.164 53.2089 140.095 53.1911C139.878 53.135 139.65 53.2387 139.425 53.2762C139.055 53.3376 138.596 53.2319 138.329 53.4169C138.24 53.4785 138.193 53.5629 138.111 53.6286C138.029 53.6943 137.88 53.7389 137.776 53.6892C137.789 53.8099 137.801 53.9357 137.733 54.0473C137.664 54.1589 137.488 54.2499 137.316 54.2218C137.224 54.1929 137.231 54.1011 137.275 54.039C137.318 53.9769 137.385 53.9134 137.363 53.8463C137.341 53.7796 137.243 53.7409 137.17 53.6944C137.097 53.6479 137.048 53.5599 137.126 53.517C137.073 53.4366 136.884 53.4464 136.801 53.5138C136.718 53.5813 136.71 53.6762 136.701 53.764C136.692 53.8518 136.672 53.9479 136.576 54.0067C136.412 54.1068 136.098 54.0548 135.989 54.1852C135.954 54.2267 135.952 54.2766 135.932 54.3223C135.844 54.5263 135.464 54.5791 135.152 54.5958C135.152 54.605 135.151 54.6144 135.15 54.6238C135.105 54.5823 135.054 54.5504 135 54.5297C134.885 54.4877 134.739 54.4335 134.753 54.345C134.76 54.2981 134.812 54.2614 134.851 54.222C134.924 54.1461 134.944 54.0392 134.865 53.9658C134.786 53.8925 134.595 53.8827 134.525 53.9603C134.489 54.0002 134.492 54.0503 134.473 54.0954C134.415 54.236 134.181 54.2978 133.982 54.3524C133.783 54.4071 133.561 54.5087 133.579 54.6542C133.6 54.8104 133.897 54.9493 133.788 55.0827Z" fill="black"/>
<path opacity="0.1" d="M133.256 56.7901C133.201 56.8021 133.149 56.8265 133.102 56.8619C133.132 56.8635 133.161 56.8658 133.19 56.868C133.522 56.8933 133.942 56.8071 133.993 56.582C134.019 56.4684 133.939 56.3574 133.861 56.2554C133.83 56.2144 133.799 56.1733 133.768 56.1323C133.605 56.1982 133.383 56.2212 133.19 56.2065C133.068 56.1972 132.925 56.1845 132.841 56.2455C132.777 56.2924 132.777 56.3656 132.798 56.4282C132.853 56.5894 133.03 56.729 133.256 56.7901Z" fill="black"/>
<path d="M140.026 55.7607C141.855 55.7607 143.337 54.5951 143.337 53.1572C143.337 51.7193 141.855 50.5537 140.026 50.5537C138.198 50.5537 136.716 51.7193 136.716 53.1572C136.716 54.5951 138.198 55.7607 140.026 55.7607Z" fill="#EA565C"/>
<path opacity="0.2" d="M138.901 52.9732C138.901 52.9732 137.4 53.1572 137.841 52.3946C138.283 51.632 138.834 51.369 139.099 51.5794C139.364 51.7897 139.474 52.3683 139.43 52.3683C139.386 52.3683 138.746 51.9212 138.525 52.2631C138.305 52.605 138.901 52.9732 138.901 52.9732Z" fill="white"/>
<path opacity="0.2" d="M140.201 53.0476C140.201 53.0476 141.44 54.0728 140.689 54.3089C139.937 54.5449 139.374 54.3161 139.288 53.9509C139.202 53.5857 139.435 53.0611 139.468 53.0954C139.502 53.1296 139.743 53.9656 140.098 53.8776C140.452 53.7895 140.201 53.0476 140.201 53.0476Z" fill="white"/>
<path opacity="0.2" d="M140.49 52.4051C140.49 52.4051 140.588 50.6112 141.146 51.2569C141.703 51.9026 141.829 52.5947 141.611 52.8708C141.392 53.1469 140.895 53.1801 140.903 53.1283C140.91 53.0764 141.387 52.399 141.141 52.0827C140.894 51.7664 140.49 52.4051 140.49 52.4051Z" fill="white"/>
<path d="M136.031 55.5503C137.86 55.5503 139.342 54.3846 139.342 52.9468C139.342 51.5089 137.86 50.3433 136.031 50.3433C134.203 50.3433 132.721 51.5089 132.721 52.9468C132.721 54.3846 134.203 55.5503 136.031 55.5503Z" fill="#EA565C"/>
<path opacity="0.2" d="M134.906 52.7627C134.906 52.7627 133.405 52.9468 133.846 52.1842C134.288 51.4215 134.84 51.1585 135.104 51.3689C135.369 51.5793 135.48 52.1579 135.436 52.1579C135.391 52.1579 134.751 51.7108 134.531 52.0527C134.31 52.3945 134.906 52.7627 134.906 52.7627Z" fill="white"/>
<path opacity="0.2" d="M136.206 52.8374C136.206 52.8374 137.446 53.8626 136.694 54.0986C135.942 54.3347 135.379 54.1059 135.294 53.7407C135.208 53.3755 135.44 52.8509 135.474 52.8852C135.507 52.9194 135.748 53.7554 136.103 53.6674C136.457 53.5793 136.206 52.8374 136.206 52.8374Z" fill="white"/>
<path opacity="0.2" d="M136.496 52.1947C136.496 52.1947 136.593 50.4008 137.151 51.0465C137.708 51.6922 137.834 52.3843 137.616 52.6604C137.398 52.9365 136.9 52.9697 136.908 52.9178C136.915 52.866 137.392 52.1885 137.146 51.8722C136.9 51.5559 136.496 52.1947 136.496 52.1947Z" fill="white"/>
<path opacity="0.1" d="M137.754 50.7312C138.475 51.2088 138.934 51.9239 138.934 52.7234C138.934 54.1612 137.452 55.3269 135.623 55.3269C134.997 55.3269 134.411 55.19 133.911 54.9522C134.487 55.3336 135.231 55.5635 136.042 55.5635C137.871 55.5635 139.353 54.3979 139.353 52.96C139.353 52.0149 138.713 51.1873 137.754 50.7312Z" fill="black"/>
<path opacity="0.1" d="M141.749 50.9153C142.47 51.3929 142.929 52.108 142.929 52.9074C142.929 54.3453 141.446 55.511 139.618 55.511C138.991 55.511 138.406 55.3741 137.906 55.1363C138.482 55.5177 139.225 55.7476 140.037 55.7476C141.866 55.7476 143.348 54.582 143.348 53.1441C143.348 52.1989 142.707 51.3714 141.749 50.9153Z" fill="black"/>
<path d="M134.019 52.4481C134.019 52.4481 136.867 48.819 143.841 50.318C149.354 51.503 144.827 53.5425 142.688 54.345C142.068 54.5777 141.425 54.7156 140.775 54.7554C138.362 54.9035 132.293 55.0358 134.019 52.4481Z" fill="#714B4F"/>
<path opacity="0.1" d="M142.688 53.5297C142.068 53.7624 141.425 53.9003 140.775 53.9401C138.82 54.06 134.466 54.1696 133.801 52.8311C132.961 54.9945 138.497 54.8688 140.775 54.729C141.425 54.6892 142.068 54.5513 142.688 54.3186C144.256 53.7304 147.107 52.4775 146.346 51.3838C145.834 52.2421 143.886 53.08 142.688 53.5297Z" fill="black"/>
<path opacity="0.1" d="M140.1 50.3311L140.872 52.1456" stroke="black" stroke-width="2" stroke-miterlimit="10"/>
<path opacity="0.1" d="M137.716 50.9885L138.379 52.5138" stroke="black" stroke-width="2" stroke-miterlimit="10"/>
<path opacity="0.1" d="M141.49 50.3311L142.528 52.1456" stroke="black" stroke-width="2" stroke-miterlimit="10"/>
<path opacity="0.1" d="M137.716 52.6716L144.669 51.6196" stroke="black" stroke-width="2" stroke-miterlimit="10"/>
<path opacity="0.1" d="M144.404 50.6729L144.889 51.4881" stroke="black" stroke-width="2" stroke-miterlimit="10"/>
<path opacity="0.1" d="M136.348 51.6196L136.657 52.3823" stroke="black" stroke-width="2" stroke-miterlimit="10"/>
<path d="M137.386 49.1492C137.386 49.1492 143.735 49.1149 143.793 49.0465C143.851 48.978 145.191 48.9418 145.453 49.3867C145.715 49.8316 145.802 50.037 145.453 50.1054C145.103 50.1738 133.6 57.1898 133.6 57.1898C133.6 57.1898 132.959 57.2582 133.279 56.5053C133.6 55.7524 137.386 49.1492 137.386 49.1492Z" fill="#F6C964"/>
<path d="M140.051 52.2785C140.051 52.5617 138.905 53.2515 137.491 53.2515C136.077 53.2515 134.931 52.5617 134.931 52.2785C134.931 51.9953 136.077 51.884 137.491 51.884C138.905 51.884 140.051 51.9953 140.051 52.2785Z" fill="#61AB43"/>
<path d="M137.491 52.7781C138.905 52.7781 140.051 52.5485 140.051 52.2653C140.051 51.982 138.905 51.7524 137.491 51.7524C136.077 51.7524 134.931 51.982 134.931 52.2653C134.931 52.5485 136.077 52.7781 137.491 52.7781Z" fill="#61AB43"/>
<path d="M143.141 51.8051C143.141 52.0883 141.995 52.7781 140.581 52.7781C139.167 52.7781 138.021 52.0883 138.021 51.8051C138.021 51.5219 139.167 51.4106 140.581 51.4106C141.995 51.4106 143.141 51.5219 143.141 51.8051Z" fill="#61AB43"/>
<path d="M140.581 52.3047C141.995 52.3047 143.141 52.0751 143.141 51.7919C143.141 51.5086 141.995 51.2791 140.581 51.2791C139.167 51.2791 138.021 51.5086 138.021 51.7919C138.021 52.0751 139.167 52.3047 140.581 52.3047Z" fill="#61AB43"/>
<path d="M146.231 51.3317C146.231 51.6149 145.085 52.3048 143.671 52.3048C142.257 52.3048 141.111 51.6149 141.111 51.3317C141.111 51.0485 142.257 50.9373 143.671 50.9373C145.085 50.9373 146.231 51.0485 146.231 51.3317Z" fill="#61AB43"/>
<path d="M143.671 51.8313C145.085 51.8313 146.231 51.6017 146.231 51.3185C146.231 51.0353 145.085 50.8057 143.671 50.8057C142.257 50.8057 141.111 51.0353 141.111 51.3185C141.111 51.6017 142.257 51.8313 143.671 51.8313Z" fill="#61AB43"/>
<path d="M134.242 51.4773C134.242 51.4773 133.189 51.2731 133.728 50.2519C134.266 49.2307 134.448 48.0859 134.683 47.8301C134.946 47.5442 140.37 42.5309 144.597 48.0784C145.044 48.6731 145.408 49.3503 145.674 50.0836C145.726 50.2223 145.782 50.3467 145.837 50.4124C146.008 50.6166 146.155 51.2002 145.837 51.4919C145.519 51.7837 136.14 52.9217 134.242 51.4773Z" fill="#D5BA5C"/>
<path d="M139.176 47.2318C139.111 47.2856 139.035 47.316 138.956 47.3194C138.834 47.3194 138.735 47.2802 138.735 47.2318C138.735 47.1835 138.834 47.1443 138.956 47.1443C139.035 47.1477 139.111 47.1781 139.176 47.2318Z" fill="#F2F2F2"/>
<path d="M137.413 46.6776C137.348 46.7314 137.272 46.7618 137.193 46.7652C137.071 46.7652 136.972 46.726 136.972 46.6776C136.972 46.6293 137.071 46.5901 137.193 46.5901C137.272 46.5935 137.348 46.6239 137.413 46.6776Z" fill="#F2F2F2"/>
<path d="M142.203 47.4855C142.127 47.5137 142.047 47.5155 141.97 47.4906C141.854 47.4473 141.77 47.3748 141.782 47.3286C141.794 47.2825 141.898 47.2802 142.014 47.3235C142.089 47.3548 142.154 47.4111 142.203 47.4855Z" fill="#F2F2F2"/>
<path d="M138.946 45.9974C138.87 46.0256 138.79 46.0274 138.714 46.0026C138.597 45.9593 138.513 45.8867 138.525 45.8406C138.537 45.7945 138.641 45.7922 138.757 45.8355C138.832 45.8668 138.897 45.923 138.946 45.9974Z" fill="#F2F2F2"/>
<path d="M142.497 46.5226C142.421 46.5508 142.341 46.5526 142.264 46.5277C142.148 46.4844 142.064 46.4119 142.076 46.3658C142.088 46.3196 142.192 46.3173 142.308 46.3606C142.383 46.3919 142.448 46.4482 142.497 46.5226Z" fill="#F2F2F2"/>
<path d="M141.772 46.4442C141.707 46.498 141.631 46.5284 141.552 46.5318C141.43 46.5318 141.331 46.4926 141.331 46.4442C141.331 46.3959 141.43 46.3567 141.552 46.3567C141.631 46.3601 141.707 46.3905 141.772 46.4442Z" fill="#F2F2F2"/>
<path d="M139.666 45.9188C139.601 45.9726 139.525 46.003 139.446 46.0064C139.324 46.0064 139.225 45.9672 139.225 45.9188C139.225 45.8705 139.324 45.8313 139.446 45.8313C139.525 45.8347 139.601 45.8651 139.666 45.9188Z" fill="#F2F2F2"/>
<path d="M141.282 45.9188C141.217 45.9726 141.141 46.003 141.062 46.0064C140.94 46.0064 140.841 45.9672 140.841 45.9188C140.841 45.8705 140.94 45.8313 141.062 45.8313C141.141 45.8347 141.217 45.8651 141.282 45.9188Z" fill="#F2F2F2"/>
<path d="M140.67 47.057C140.605 47.1108 140.529 47.1412 140.45 47.1445C140.328 47.1445 140.229 47.1054 140.229 47.057C140.229 47.0087 140.328 46.9695 140.45 46.9695C140.529 46.9729 140.605 47.0032 140.67 47.057Z" fill="#F2F2F2"/>
<path d="M138.889 46.8525C138.908 46.7609 138.948 46.6775 139.005 46.6123C139.096 46.5158 139.191 46.4667 139.218 46.5028C139.245 46.5389 139.194 46.6464 139.103 46.743C139.042 46.8031 138.968 46.8411 138.889 46.8525Z" fill="#F2F2F2"/>
<path d="M137.787 46.5314C137.806 46.4398 137.846 46.3565 137.903 46.2913C137.994 46.1947 138.089 46.1457 138.116 46.1818C138.143 46.2178 138.092 46.3254 138.001 46.4219C137.94 46.4821 137.866 46.5201 137.787 46.5314Z" fill="#F2F2F2"/>
<path d="M135.877 48.1071C135.896 48.0155 135.936 47.9322 135.993 47.867C136.084 47.7704 136.179 47.7214 136.206 47.7575C136.233 47.7935 136.182 47.901 136.091 47.9976C136.03 48.0577 135.956 48.0958 135.877 48.1071Z" fill="#F2F2F2"/>
<path d="M140.114 46.3564C140.132 46.2648 140.172 46.1814 140.229 46.1162C140.32 46.0197 140.416 45.9707 140.443 46.0067C140.47 46.0428 140.418 46.1503 140.327 46.2469C140.266 46.307 140.192 46.345 140.114 46.3564Z" fill="#F2F2F2"/>
<path d="M139.673 47.4067C139.691 47.3151 139.731 47.2317 139.789 47.1665C139.879 47.07 139.975 47.0209 140.002 47.057C140.029 47.0931 139.977 47.2006 139.886 47.2972C139.826 47.3573 139.751 47.3953 139.673 47.4067Z" fill="#F2F2F2"/>
<path opacity="0.2" d="M129.663 60.3393C129.296 60.3428 128.811 60.2712 128.713 60.2003C128.639 60.1463 128.609 59.9525 128.599 59.863C128.592 59.8634 128.588 59.8635 128.588 59.8635C128.588 59.8635 128.609 60.1758 128.706 60.2467C128.804 60.3176 129.29 60.3892 129.656 60.3857C129.762 60.3847 129.799 60.3398 129.797 60.2733C129.782 60.3135 129.742 60.3386 129.663 60.3393Z" fill="black"/>
<path d="M213.283 81.7021C201.818 64.2378 199.69 62.4455 199.69 56.0271C199.69 47.2353 206.473 40.1082 214.84 40.1082C223.207 40.1082 229.99 47.2353 229.99 56.0271C229.99 62.4455 227.862 64.2378 216.397 81.7021C215.645 82.8441 214.036 82.8441 213.283 81.7021Z" fill="#F44848"/>
<path d="M172.86 159.491C172.86 159.491 171.823 161.937 172.706 161.937C173.589 161.937 184.713 161.989 185.022 161.306C185.238 160.827 185.119 159.121 185.028 158.143C185.01 157.953 184.932 157.778 184.81 157.654C184.687 157.531 184.529 157.468 184.369 157.478C181.963 157.637 172.976 158.223 173.015 158.15C173.092 158.005 173.037 158.045 173.037 158.045C173.037 158.045 172.684 159.386 172.86 159.491Z" fill="#D5BA5C"/>
<path opacity="0.1" d="M185.05 158.143C185.032 157.953 184.954 157.778 184.832 157.654C184.709 157.531 184.552 157.468 184.391 157.478C181.985 157.637 172.998 158.223 173.037 158.15C173.114 158.005 173.059 158.045 173.059 158.045C173.059 158.045 172.98 158.344 172.916 158.671C172.925 158.67 172.932 158.68 172.902 158.743C172.899 158.757 172.897 158.771 172.894 158.785C173.254 158.827 181.886 158.264 184.237 158.11C184.397 158.099 184.555 158.162 184.677 158.286C184.8 158.409 184.878 158.584 184.895 158.774C184.963 159.501 185.046 160.631 184.996 161.359C185.015 161.346 185.032 161.328 185.044 161.306C185.26 160.827 185.141 159.121 185.05 158.143Z" fill="black"/>
<path d="M174.097 155.826C173.982 155.784 173.836 155.73 173.849 155.641C173.856 155.594 173.909 155.558 173.947 155.518C174.021 155.442 174.041 155.335 173.962 155.262C173.883 155.189 173.692 155.179 173.622 155.256C173.586 155.296 173.588 155.346 173.57 155.391C173.512 155.532 173.278 155.594 173.079 155.649C172.88 155.703 172.658 155.805 172.676 155.95C172.697 156.109 173.004 156.25 172.88 156.385C172.835 156.434 172.741 156.462 172.721 156.518C172.707 156.557 172.735 156.598 172.763 156.634L172.958 156.89C173.036 156.992 173.116 157.103 173.09 157.217C173.038 157.442 172.619 157.528 172.287 157.503C172.165 157.493 172.022 157.481 171.938 157.542C171.874 157.589 171.874 157.662 171.895 157.724C171.95 157.886 172.127 158.025 172.352 158.086C172.099 158.146 172 158.397 172.175 158.535C172.075 158.576 171.967 158.579 171.865 158.545C171.778 158.64 171.829 158.77 171.939 158.853C172.048 158.936 172.204 158.983 172.354 159.027L172.213 159.184C172.315 159.279 172.535 159.245 172.683 159.185C172.832 159.125 172.993 159.045 173.159 159.076C173.315 159.106 173.432 159.23 173.591 159.208C173.714 159.192 173.773 159.098 173.811 159.017L173.974 158.671C174.206 158.714 174.449 158.525 174.356 158.374C174.616 158.407 174.871 158.207 174.786 158.036C174.924 158.163 175.021 158.311 175.069 158.466C175.09 158.535 175.103 158.608 175.161 158.666C175.199 158.7 175.243 158.723 175.289 158.733C175.335 158.743 175.383 158.74 175.428 158.724C175.381 158.833 175.343 158.961 175.44 159.053C175.537 159.146 175.818 159.12 175.805 159.006C175.954 159.082 176.12 159.154 176.305 159.159C176.49 159.165 176.693 159.081 176.71 158.955C176.971 159.058 177.244 159.11 177.519 159.11C177.542 159.026 177.706 158.999 177.828 159.019C177.95 159.04 178.063 159.089 178.189 159.089C178.315 159.09 178.45 158.999 178.385 158.926C178.65 158.992 178.922 159.008 179.191 158.974C179.445 158.942 179.686 158.866 179.943 158.849C180.203 158.83 180.465 158.88 180.708 158.993C180.792 159.035 180.897 159.088 180.989 159.055C181.042 159.037 181.067 158.996 181.103 158.964C181.256 158.825 181.57 158.852 181.813 158.906C182.055 158.961 182.337 159.027 182.549 158.93C182.629 158.894 182.688 158.838 182.773 158.807C183.078 158.698 183.443 158.978 183.767 158.897C183.873 158.871 183.958 158.808 184.07 158.8C184.268 158.787 184.399 158.947 184.592 158.981C184.792 159.017 185.009 158.872 184.96 158.735C185.152 158.74 185.343 158.708 185.527 158.641L185.436 158.446C185.663 158.442 185.829 158.249 185.724 158.112C185.951 158.061 186.13 157.922 186.177 157.763C186.224 157.603 186.136 157.428 185.955 157.322C185.848 157.259 185.708 157.214 185.647 157.128C185.604 157.065 185.61 156.993 185.593 156.925C185.555 156.775 185.394 156.643 185.184 156.592C185.094 156.57 184.994 156.561 184.912 156.527C184.83 156.492 184.77 156.417 184.818 156.36C184.843 156.33 184.891 156.312 184.922 156.284C185.049 156.173 184.832 156.032 184.646 155.969L185.09 155.952L185.185 155.437C185.009 155.607 184.554 155.571 184.44 155.379C184.583 155.434 184.774 155.363 184.843 155.262C184.913 155.16 184.896 155.043 184.877 154.931C184.876 154.904 184.868 154.877 184.855 154.854C184.842 154.831 184.824 154.813 184.803 154.8C184.76 154.775 184.691 154.765 184.677 154.728C184.662 154.69 184.718 154.656 184.727 154.617C184.743 154.543 184.599 154.51 184.501 154.474C184.272 154.389 184.161 154.15 183.9 154.157C183.641 154.165 183.569 154.401 183.569 154.577C183.569 154.754 183.481 154.99 183.222 154.986C183.119 154.985 183.028 154.941 182.946 154.898L182.204 154.517C182.106 154.463 182.004 154.419 181.899 154.387C181.75 154.345 181.584 154.34 181.423 154.336L180.385 154.308C180.332 154.303 180.279 154.308 180.227 154.324C180.173 154.346 180.146 154.388 180.113 154.425C179.969 154.587 179.629 154.65 179.384 154.561C179.319 154.538 179.261 154.505 179.192 154.487C178.975 154.431 178.747 154.535 178.522 154.572C178.152 154.634 177.693 154.528 177.426 154.713C177.337 154.775 177.29 154.859 177.208 154.925C177.126 154.99 176.977 155.035 176.873 154.985C176.886 155.106 176.898 155.232 176.83 155.343C176.761 155.455 176.585 155.546 176.413 155.518C176.321 155.489 176.328 155.397 176.372 155.335C176.415 155.273 176.481 155.21 176.46 155.142C176.438 155.076 176.34 155.037 176.267 154.991C176.193 154.944 176.145 154.856 176.222 154.813C176.17 154.733 175.981 154.743 175.898 154.81C175.815 154.877 175.807 154.972 175.798 155.06C175.789 155.148 175.769 155.244 175.673 155.303C175.509 155.403 175.194 155.351 175.086 155.481C175.051 155.523 175.049 155.573 175.029 155.618C174.941 155.822 174.56 155.875 174.249 155.892C174.243 155.934 174.241 155.978 174.245 156.021C174.351 155.966 174.174 155.854 174.097 155.826Z" fill="#61AB43"/>
<path opacity="0.1" d="M184.877 155.593C184.896 155.704 184.913 155.822 184.843 155.923C184.833 155.938 184.821 155.951 184.808 155.962C184.902 155.959 184.996 155.955 185.09 155.952C185.121 155.78 185.153 155.609 185.185 155.437C185.112 155.507 184.991 155.542 184.867 155.546C184.871 155.561 184.875 155.577 184.877 155.593Z" fill="black"/>
<path opacity="0.1" d="M184.959 156.199C184.948 156.129 184.852 156.059 184.744 156.008C184.649 156.062 184.541 156.073 184.44 156.04C184.519 156.173 184.76 156.231 184.959 156.199Z" fill="black"/>
<path opacity="0.1" d="M185.097 156.574C185.094 156.587 185.092 156.6 185.09 156.613C184.942 156.619 184.794 156.625 184.646 156.63C184.832 156.693 185.049 156.834 184.922 156.946C184.891 156.973 184.843 156.991 184.818 157.022C184.77 157.079 184.83 157.154 184.912 157.188C184.994 157.223 185.094 157.231 185.184 157.253C185.394 157.305 185.555 157.437 185.593 157.586C185.61 157.654 185.604 157.727 185.647 157.789C185.708 157.876 185.848 157.92 185.955 157.983C185.965 157.989 185.975 157.996 185.985 158.002C186.081 157.937 186.15 157.853 186.177 157.763C186.224 157.603 186.136 157.428 185.955 157.322C185.848 157.259 185.708 157.214 185.647 157.128C185.604 157.065 185.61 156.993 185.593 156.924C185.555 156.775 185.394 156.643 185.184 156.592C185.156 156.585 185.126 156.579 185.097 156.574Z" fill="black"/>
<path opacity="0.1" d="M172.103 158.943C172.138 158.855 172.226 158.777 172.352 158.748C172.231 158.718 172.117 158.656 172.018 158.568C171.966 158.57 171.915 158.562 171.865 158.545C171.778 158.64 171.829 158.77 171.939 158.853C171.991 158.89 172.046 158.92 172.103 158.943Z" fill="black"/>
<path opacity="0.1" d="M172.885 156.379C172.949 156.351 173.013 156.328 173.079 156.31C173.278 156.255 173.512 156.194 173.57 156.053C173.588 156.008 173.586 155.958 173.622 155.918C173.692 155.84 173.883 155.85 173.962 155.923C174.041 155.997 174.021 156.104 173.947 156.18C173.909 156.219 173.856 156.256 173.849 156.303C173.836 156.391 173.982 156.445 174.097 156.487C174.151 156.508 174.202 156.54 174.247 156.581C174.248 156.572 174.248 156.563 174.249 156.553C174.56 156.537 174.941 156.484 175.029 156.28C175.049 156.234 175.051 156.184 175.086 156.143C175.194 156.012 175.509 156.064 175.673 155.964C175.769 155.906 175.789 155.809 175.798 155.722C175.807 155.634 175.815 155.539 175.898 155.471C175.981 155.404 176.17 155.394 176.222 155.475C176.145 155.518 176.194 155.606 176.267 155.652C176.34 155.698 176.438 155.737 176.46 155.804C176.481 155.871 176.415 155.935 176.372 155.997C176.328 156.059 176.321 156.151 176.413 156.179C176.585 156.208 176.761 156.117 176.83 156.005C176.898 155.893 176.886 155.768 176.873 155.647C176.977 155.697 177.126 155.652 177.208 155.586C177.29 155.52 177.337 155.436 177.426 155.375C177.693 155.19 178.152 155.295 178.522 155.234C178.747 155.196 178.975 155.093 179.192 155.149C179.261 155.167 179.319 155.199 179.384 155.223C179.629 155.312 179.969 155.248 180.114 155.087C180.146 155.05 180.173 155.007 180.227 154.986C180.279 154.97 180.332 154.964 180.385 154.969C180.731 154.979 181.077 154.988 181.423 154.998C181.584 155.002 181.75 155.007 181.899 155.048C182.004 155.081 182.106 155.124 182.204 155.179C182.451 155.306 182.698 155.433 182.946 155.56C183.028 155.602 183.119 155.647 183.222 155.648C183.481 155.651 183.569 155.415 183.569 155.239C183.569 155.062 183.641 154.827 183.9 154.819C184.161 154.811 184.272 155.05 184.501 155.135C184.599 155.172 184.743 155.204 184.727 155.279C184.719 155.314 184.674 155.344 184.674 155.377C184.739 155.359 184.798 155.319 184.843 155.262C184.913 155.16 184.896 155.043 184.877 154.931C184.876 154.904 184.868 154.877 184.855 154.854C184.842 154.831 184.824 154.813 184.803 154.8C184.76 154.775 184.691 154.765 184.677 154.728C184.662 154.69 184.718 154.656 184.727 154.617C184.743 154.543 184.599 154.51 184.501 154.474C184.272 154.389 184.161 154.15 183.9 154.157C183.641 154.165 183.569 154.401 183.569 154.577C183.569 154.754 183.481 154.99 183.222 154.986C183.119 154.985 183.028 154.941 182.946 154.898C182.698 154.771 182.451 154.644 182.204 154.517C182.106 154.463 182.004 154.419 181.899 154.387C181.75 154.345 181.584 154.34 181.423 154.336C181.077 154.327 180.731 154.317 180.385 154.308C180.332 154.303 180.279 154.308 180.227 154.324C180.173 154.346 180.146 154.388 180.114 154.425C179.969 154.587 179.629 154.65 179.384 154.561C179.319 154.538 179.261 154.505 179.192 154.487C178.975 154.431 178.747 154.535 178.522 154.572C178.152 154.634 177.693 154.528 177.426 154.713C177.337 154.775 177.29 154.859 177.208 154.925C177.126 154.99 176.977 155.035 176.873 154.985C176.886 155.106 176.898 155.232 176.83 155.343C176.761 155.455 176.585 155.546 176.413 155.518C176.321 155.489 176.328 155.397 176.372 155.335C176.415 155.273 176.481 155.21 176.46 155.142C176.438 155.076 176.34 155.037 176.267 154.991C176.194 154.944 176.145 154.856 176.222 154.813C176.17 154.733 175.981 154.743 175.898 154.81C175.815 154.877 175.807 154.972 175.798 155.06C175.789 155.148 175.769 155.244 175.673 155.303C175.509 155.403 175.194 155.351 175.086 155.481C175.051 155.523 175.049 155.573 175.029 155.618C174.941 155.822 174.56 155.875 174.249 155.892C174.248 155.901 174.248 155.911 174.247 155.92C174.202 155.878 174.151 155.847 174.097 155.826C173.982 155.784 173.836 155.73 173.849 155.641C173.856 155.594 173.909 155.558 173.947 155.518C174.021 155.442 174.041 155.335 173.962 155.262C173.883 155.189 173.692 155.179 173.622 155.256C173.586 155.296 173.588 155.346 173.57 155.391C173.512 155.532 173.278 155.594 173.079 155.649C172.88 155.703 172.658 155.805 172.676 155.95C172.696 156.107 172.994 156.245 172.885 156.379Z" fill="black"/>
<path opacity="0.1" d="M172.353 158.086C172.298 158.098 172.246 158.123 172.199 158.158C172.228 158.16 172.258 158.162 172.287 158.164C172.619 158.189 173.038 158.103 173.09 157.878C173.116 157.765 173.036 157.654 172.958 157.552C172.927 157.51 172.896 157.469 172.864 157.428C172.702 157.494 172.48 157.517 172.287 157.503C172.165 157.493 172.022 157.481 171.938 157.542C171.874 157.589 171.874 157.662 171.895 157.724C171.95 157.886 172.127 158.025 172.353 158.086Z" fill="black"/>
<path d="M179.123 157.057C180.952 157.057 182.434 155.891 182.434 154.453C182.434 153.015 180.952 151.85 179.123 151.85C177.295 151.85 175.812 153.015 175.812 154.453C175.812 155.891 177.295 157.057 179.123 157.057Z" fill="#EA565C"/>
<path opacity="0.2" d="M177.997 154.269C177.997 154.269 176.497 154.453 176.938 153.691C177.379 152.928 177.931 152.665 178.196 152.876C178.461 153.086 178.571 153.664 178.527 153.664C178.483 153.664 177.843 153.217 177.622 153.559C177.402 153.901 177.997 154.269 177.997 154.269Z" fill="white"/>
<path opacity="0.2" d="M179.298 154.344C179.298 154.344 180.537 155.369 179.785 155.605C179.034 155.841 178.471 155.612 178.385 155.247C178.299 154.882 178.532 154.357 178.565 154.392C178.599 154.426 178.84 155.262 179.194 155.174C179.549 155.086 179.298 154.344 179.298 154.344Z" fill="white"/>
<path opacity="0.2" d="M179.587 153.701C179.587 153.701 179.685 151.907 180.243 152.553C180.8 153.199 180.926 153.891 180.708 154.167C180.489 154.443 179.992 154.476 180 154.424C180.007 154.373 180.484 153.695 180.237 153.379C179.991 153.063 179.587 153.701 179.587 153.701Z" fill="white"/>
<path d="M175.128 156.846C176.957 156.846 178.439 155.681 178.439 154.243C178.439 152.805 176.957 151.639 175.128 151.639C173.3 151.639 171.818 152.805 171.818 154.243C171.818 155.681 173.3 156.846 175.128 156.846Z" fill="#EA565C"/>
<path opacity="0.2" d="M174.003 154.059C174.003 154.059 172.502 154.243 172.943 153.48C173.385 152.718 173.936 152.455 174.201 152.665C174.466 152.875 174.577 153.454 174.532 153.454C174.488 153.454 173.848 153.007 173.627 153.349C173.407 153.691 174.003 154.059 174.003 154.059Z" fill="white"/>
<path opacity="0.2" d="M175.303 154.134C175.303 154.134 176.542 155.159 175.791 155.395C175.039 155.631 174.476 155.402 174.39 155.037C174.304 154.672 174.537 154.147 174.571 154.181C174.604 154.216 174.845 155.052 175.2 154.964C175.554 154.875 175.303 154.134 175.303 154.134Z" fill="white"/>
<path opacity="0.2" d="M175.592 153.491C175.592 153.491 175.69 151.697 176.248 152.343C176.805 152.988 176.931 153.68 176.713 153.957C176.494 154.233 175.997 154.266 176.005 154.214C176.012 154.162 176.489 153.485 176.243 153.168C175.996 152.852 175.592 153.491 175.592 153.491Z" fill="white"/>
<path opacity="0.1" d="M176.851 152.027C177.572 152.505 178.031 153.22 178.031 154.02C178.031 155.457 176.548 156.623 174.72 156.623C174.093 156.623 173.508 156.486 173.008 156.248C173.584 156.63 174.327 156.86 175.139 156.86C176.968 156.86 178.45 155.694 178.45 154.256C178.45 153.311 177.809 152.483 176.851 152.027Z" fill="black"/>
<path opacity="0.1" d="M180.846 152.211C181.567 152.689 182.025 153.404 182.025 154.204C182.025 155.641 180.543 156.807 178.715 156.807C178.088 156.807 177.502 156.67 177.003 156.432C177.579 156.814 178.322 157.044 179.134 157.044C180.963 157.044 182.445 155.878 182.445 154.44C182.445 153.495 181.804 152.668 180.846 152.211Z" fill="black"/>
<path d="M173.116 153.744C173.116 153.744 175.963 150.115 182.938 151.614C188.451 152.799 183.924 154.839 181.785 155.641C181.164 155.874 180.522 156.012 179.872 156.052C177.459 156.2 171.39 156.332 173.116 153.744Z" fill="#714B4F"/>
<path opacity="0.1" d="M181.785 154.826C181.164 155.059 180.522 155.196 179.872 155.236C177.917 155.356 173.563 155.466 172.898 154.127C172.058 156.291 177.594 156.165 179.872 156.025C180.522 155.985 181.164 155.847 181.785 155.615C183.353 155.027 186.204 153.774 185.443 152.68C184.931 153.538 182.983 154.376 181.785 154.826Z" fill="black"/>
<path opacity="0.1" d="M179.197 151.627L179.969 153.442" stroke="black" stroke-width="2" stroke-miterlimit="10"/>
<path opacity="0.1" d="M176.813 152.285L177.475 153.81" stroke="black" stroke-width="2" stroke-miterlimit="10"/>
<path opacity="0.1" d="M180.587 151.627L181.625 153.442" stroke="black" stroke-width="2" stroke-miterlimit="10"/>
<path opacity="0.1" d="M176.813 153.968L183.766 152.916" stroke="black" stroke-width="2" stroke-miterlimit="10"/>
<path opacity="0.1" d="M183.501 151.969L183.986 152.784" stroke="black" stroke-width="2" stroke-miterlimit="10"/>
<path opacity="0.1" d="M175.445 152.916L175.754 153.679" stroke="black" stroke-width="2" stroke-miterlimit="10"/>
<path d="M176.483 150.445C176.483 150.445 182.832 150.411 182.89 150.343C182.948 150.274 184.288 150.238 184.55 150.683C184.812 151.128 184.899 151.333 184.55 151.402C184.2 151.47 172.697 158.486 172.697 158.486C172.697 158.486 172.056 158.554 172.376 157.801C172.697 157.049 176.483 150.445 176.483 150.445Z" fill="#F6C964"/>
<path d="M179.148 153.575C179.148 153.858 178.002 154.548 176.588 154.548C175.174 154.548 174.028 153.858 174.028 153.575C174.028 153.291 175.174 153.18 176.588 153.18C178.002 153.18 179.148 153.291 179.148 153.575Z" fill="#61AB43"/>
<path d="M176.588 154.074C178.002 154.074 179.148 153.845 179.148 153.561C179.148 153.278 178.002 153.049 176.588 153.049C175.174 153.049 174.028 153.278 174.028 153.561C174.028 153.845 175.174 154.074 176.588 154.074Z" fill="#61AB43"/>
<path d="M182.238 153.101C182.238 153.384 181.092 154.074 179.678 154.074C178.264 154.074 177.118 153.384 177.118 153.101C177.118 152.818 178.264 152.707 179.678 152.707C181.092 152.707 182.238 152.818 182.238 153.101Z" fill="#61AB43"/>
<path d="M179.678 153.601C181.092 153.601 182.238 153.371 182.238 153.088C182.238 152.805 181.092 152.575 179.678 152.575C178.264 152.575 177.118 152.805 177.118 153.088C177.118 153.371 178.264 153.601 179.678 153.601Z" fill="#61AB43"/>
<path d="M185.328 152.628C185.328 152.911 184.182 153.601 182.768 153.601C181.354 153.601 180.207 152.911 180.207 152.628C180.207 152.345 181.354 152.233 182.768 152.233C184.182 152.233 185.328 152.345 185.328 152.628Z" fill="#61AB43"/>
<path d="M182.768 153.127C184.182 153.127 185.328 152.898 185.328 152.615C185.328 152.331 184.182 152.102 182.768 152.102C181.354 152.102 180.207 152.331 180.207 152.615C180.207 152.898 181.354 153.127 182.768 153.127Z" fill="#61AB43"/>
<path d="M173.339 152.773C173.339 152.773 172.286 152.569 172.825 151.548C173.363 150.527 173.545 149.382 173.78 149.126C174.042 148.84 179.467 143.827 183.694 149.375C184.141 149.969 184.505 150.646 184.771 151.38C184.822 151.518 184.879 151.643 184.934 151.708C185.105 151.913 185.252 152.496 184.934 152.788C184.616 153.08 175.237 154.218 173.339 152.773Z" fill="#D5BA5C"/>
<path d="M178.273 148.528C178.208 148.582 178.132 148.612 178.053 148.615C177.931 148.615 177.832 148.576 177.832 148.528C177.832 148.48 177.931 148.44 178.053 148.44C178.132 148.444 178.208 148.474 178.273 148.528Z" fill="#F2F2F2"/>
<path d="M176.51 147.974C176.445 148.028 176.369 148.058 176.29 148.061C176.168 148.061 176.069 148.022 176.069 147.974C176.069 147.925 176.168 147.886 176.29 147.886C176.369 147.89 176.445 147.92 176.51 147.974Z" fill="#F2F2F2"/>
<path d="M181.3 148.782C181.224 148.81 181.144 148.812 181.067 148.787C180.951 148.743 180.867 148.671 180.879 148.625C180.891 148.579 180.995 148.576 181.111 148.62C181.186 148.651 181.251 148.707 181.3 148.782Z" fill="#F2F2F2"/>
<path d="M178.043 147.294C177.967 147.322 177.887 147.324 177.81 147.299C177.694 147.255 177.61 147.183 177.622 147.137C177.634 147.091 177.738 147.088 177.854 147.132C177.929 147.163 177.994 147.219 178.043 147.294Z" fill="#F2F2F2"/>
<path d="M181.593 147.819C181.518 147.847 181.437 147.849 181.361 147.824C181.245 147.781 181.161 147.708 181.173 147.662C181.185 147.616 181.289 147.613 181.405 147.657C181.48 147.688 181.545 147.744 181.593 147.819Z" fill="#F2F2F2"/>
<path d="M180.869 147.74C180.804 147.794 180.727 147.825 180.648 147.828C180.527 147.828 180.428 147.789 180.428 147.74C180.428 147.692 180.527 147.653 180.648 147.653C180.727 147.656 180.804 147.687 180.869 147.74Z" fill="#F2F2F2"/>
<path d="M178.763 147.215C178.698 147.269 178.622 147.299 178.543 147.303C178.421 147.303 178.322 147.263 178.322 147.215C178.322 147.167 178.421 147.127 178.543 147.127C178.622 147.131 178.698 147.161 178.763 147.215Z" fill="#F2F2F2"/>
<path d="M180.379 147.215C180.314 147.269 180.238 147.299 180.159 147.303C180.037 147.303 179.938 147.263 179.938 147.215C179.938 147.167 180.037 147.127 180.159 147.127C180.238 147.131 180.314 147.161 180.379 147.215Z" fill="#F2F2F2"/>
<path d="M179.767 148.353C179.702 148.407 179.625 148.437 179.547 148.441C179.425 148.441 179.326 148.402 179.326 148.353C179.326 148.305 179.425 148.266 179.547 148.266C179.625 148.269 179.702 148.299 179.767 148.353Z" fill="#F2F2F2"/>
<path d="M177.986 148.149C178.005 148.057 178.045 147.974 178.102 147.908C178.193 147.812 178.288 147.763 178.315 147.799C178.342 147.835 178.29 147.943 178.2 148.039C178.139 148.099 178.065 148.137 177.986 148.149Z" fill="#F2F2F2"/>
<path d="M176.884 147.828C176.903 147.736 176.943 147.653 177 147.587C177.091 147.491 177.186 147.442 177.213 147.478C177.24 147.514 177.188 147.622 177.098 147.718C177.037 147.778 176.963 147.816 176.884 147.828Z" fill="#F2F2F2"/>
<path d="M174.974 149.403C174.993 149.312 175.033 149.228 175.09 149.163C175.181 149.067 175.276 149.018 175.303 149.054C175.33 149.09 175.278 149.197 175.188 149.294C175.127 149.354 175.053 149.392 174.974 149.403Z" fill="#F2F2F2"/>
<path d="M179.211 147.653C179.229 147.561 179.269 147.478 179.326 147.412C179.417 147.316 179.513 147.267 179.54 147.303C179.567 147.339 179.515 147.446 179.424 147.543C179.363 147.603 179.289 147.641 179.211 147.653Z" fill="#F2F2F2"/>
<path d="M178.77 148.703C178.788 148.611 178.828 148.528 178.885 148.463C178.976 148.366 179.072 148.317 179.099 148.353C179.126 148.389 179.074 148.497 178.983 148.593C178.922 148.653 178.848 148.691 178.77 148.703Z" fill="#F2F2F2"/>
<path opacity="0.2" d="M168.76 161.635C168.393 161.639 167.908 161.567 167.81 161.496C167.735 161.442 167.706 161.249 167.696 161.159C167.689 161.16 167.685 161.16 167.685 161.16C167.685 161.16 167.706 161.472 167.803 161.543C167.901 161.614 168.386 161.685 168.753 161.682C168.859 161.681 168.896 161.636 168.894 161.569C168.879 161.61 168.839 161.635 168.76 161.635Z" fill="black"/>
<ellipse cx="68.0645" cy="101.045" rx="6.51613" ry="4.79279" fill="#F44848"/>
<ellipse cx="141.045" cy="87.3514" rx="6.51613" ry="4.79279" fill="#F44848"/>
<ellipse cx="214.026" cy="96.9368" rx="6.51613" ry="4.79279" fill="#F44848"/>
<path d="M214.287 157.211L213.304 157.197L213.296 157.841L214.278 157.856L214.287 157.211Z" fill="#3F3D56"/>
<path d="M216.252 157.241L215.269 157.226L215.261 157.87L216.243 157.885L216.252 157.241Z" fill="#3F3D56"/>
<path d="M218.217 157.27L217.234 157.255L217.226 157.9L218.208 157.914L218.217 157.27Z" fill="#3F3D56"/>
<path d="M220.182 157.3L219.199 157.285L219.191 157.929L220.173 157.944L220.182 157.3Z" fill="#3F3D56"/>
<path d="M222.147 157.329L221.164 157.314L221.156 157.958L222.138 157.973L222.147 157.329Z" fill="#3F3D56"/>
<path d="M224.112 157.358L223.129 157.343L223.121 157.987L224.103 158.002L224.112 157.358Z" fill="#3F3D56"/>
<path d="M226.077 157.387L225.094 157.372L225.085 158.016L226.068 158.031L226.077 157.387Z" fill="#3F3D56"/>
<path d="M228.042 157.416L227.059 157.401L227.051 158.046L228.033 158.06L228.042 157.416Z" fill="#3F3D56"/>
<path d="M230.007 157.445L229.024 157.431L229.015 158.075L229.998 158.089L230.007 157.445Z" fill="#3F3D56"/>
<path d="M231.972 157.475L230.989 157.46L230.98 158.104L231.963 158.119L231.972 157.475Z" fill="#3F3D56"/>
<path d="M233.937 157.504L232.954 157.489L232.945 158.133L233.928 158.148L233.937 157.504Z" fill="#3F3D56"/>
<path d="M236.183 157.952C236.135 161.466 234.848 164.818 232.603 167.27C230.359 169.723 227.341 171.074 224.214 171.028C221.087 170.981 218.107 169.54 215.93 167.022C213.752 164.504 212.555 161.115 212.603 157.601L236.183 157.952Z" fill="#3F3D56"/>
<path d="M235.612 158.028L228.45 132.79C229.926 132.257 231.479 132.056 233.023 132.198C234.566 132.341 236.069 132.824 237.445 133.62C238.82 134.416 240.043 135.509 241.042 136.837C242.04 138.166 242.796 139.703 243.265 141.36C243.341 141.627 243.41 141.896 243.47 142.165C244.198 145.433 243.791 148.892 242.331 151.838C240.871 154.785 238.468 156.998 235.612 158.028Z" fill="#3F3D56"/>
<path d="M235.868 160.018C236.682 160.03 237.352 159.298 237.364 158.383C237.377 157.469 236.727 156.717 235.913 156.705C235.099 156.693 234.429 157.425 234.417 158.34C234.405 159.254 235.054 160.006 235.868 160.018Z" fill="#3F3D56"/>
<path d="M220.867 161.175C220.758 161.174 220.653 161.221 220.575 161.306C220.497 161.391 220.453 161.507 220.451 161.629C220.449 161.751 220.491 161.869 220.566 161.956C220.642 162.044 220.746 162.094 220.854 162.096L227.895 162.2C228.004 162.202 228.109 162.155 228.187 162.07C228.265 161.985 228.309 161.868 228.311 161.746C228.313 161.624 228.271 161.507 228.195 161.419C228.12 161.332 228.016 161.282 227.908 161.28L220.867 161.175Z" fill="#6C63FF"/>
<path d="M233.854 181.894L232.387 181.933L227.277 169.088L228.623 168.409L233.854 181.894Z" fill="#3F3D56"/>
<path d="M214.286 181.603L215.751 181.686L221.205 168.997L219.878 168.279L214.286 181.603Z" fill="#3F3D56"/>
<path d="M230.269 174.477L218.151 174.297L218.139 175.217L230.256 175.397L230.269 174.477Z" fill="#3F3D56"/>
<path d="M228.757 132.325C228.699 132.324 228.642 132.339 228.59 132.367C228.538 132.396 228.493 132.437 228.458 132.489C228.423 132.54 228.4 132.6 228.389 132.664C228.378 132.727 228.381 132.793 228.397 132.855L228.692 134.004C228.719 134.109 228.783 134.198 228.868 134.251C228.954 134.304 229.055 134.316 229.148 134.286C229.242 134.255 229.321 134.184 229.369 134.088C229.416 133.991 229.427 133.878 229.4 133.773L229.105 132.624C229.083 132.539 229.037 132.464 228.975 132.41C228.912 132.356 228.835 132.327 228.757 132.325Z" fill="#6C63FF"/>
<path d="M212.108 157.824C212.011 157.822 211.916 157.864 211.846 157.941C211.776 158.018 211.736 158.122 211.734 158.232C211.733 158.342 211.77 158.448 211.838 158.527C211.906 158.605 211.999 158.65 212.097 158.652L213.162 158.668C213.259 158.669 213.354 158.627 213.424 158.55C213.494 158.474 213.534 158.369 213.536 158.259C213.537 158.149 213.5 158.043 213.432 157.965C213.364 157.886 213.27 157.841 213.173 157.839L212.108 157.824Z" fill="#6C63FF"/>
<path d="M220.951 154.918L216.53 154.852C216.502 154.852 216.475 154.852 216.448 154.854C216.159 154.873 215.886 155.015 215.686 155.25C215.485 155.485 215.371 155.797 215.366 156.122C215.361 156.448 215.467 156.763 215.66 157.004C215.854 157.246 216.122 157.396 216.411 157.424C216.438 157.427 216.466 157.428 216.495 157.429L220.916 157.494C221.22 157.499 221.514 157.368 221.732 157.129C221.95 156.891 222.075 156.565 222.08 156.223C222.084 155.881 221.968 155.552 221.756 155.307C221.545 155.062 221.255 154.922 220.951 154.918Z" fill="#FF6584"/>
<path opacity="0.2" d="M216.051 157.32C216.806 157.222 217.413 156.163 217.43 154.865L217.266 154.863C217.249 156.132 216.648 157.155 215.925 157.144L215.924 157.247L216.051 157.32Z" fill="black"/>
<path opacity="0.2" d="M217.642 157.354L217.645 157.17C218.367 157.18 218.969 156.157 218.986 154.888L219.15 154.891C219.131 156.261 218.455 157.366 217.642 157.354Z" fill="black"/>
<path opacity="0.2" d="M219.362 157.379L219.364 157.195C220.087 157.206 220.688 156.183 220.705 154.914L220.869 154.916C220.851 156.286 220.174 157.391 219.362 157.379Z" fill="black"/>
<path d="M228.975 155.037L224.553 154.971C224.525 154.971 224.498 154.971 224.471 154.974C224.182 154.993 223.91 155.134 223.709 155.369C223.509 155.604 223.394 155.916 223.39 156.241C223.385 156.567 223.49 156.882 223.684 157.124C223.878 157.365 224.146 157.515 224.434 157.543C224.462 157.546 224.49 157.548 224.519 157.548L228.94 157.614C229.244 157.618 229.537 157.487 229.755 157.249C229.974 157.01 230.099 156.684 230.103 156.343C230.108 156.001 229.992 155.671 229.78 155.427C229.568 155.182 229.279 155.042 228.975 155.037Z" fill="#FF6584"/>
<path opacity="0.2" d="M224.075 157.439C224.829 157.342 225.436 156.282 225.454 154.985L225.29 154.982C225.273 156.251 224.671 157.274 223.949 157.263L223.948 157.366L224.075 157.439Z" fill="black"/>
<path opacity="0.2" d="M225.666 157.473L225.668 157.289C226.391 157.299 226.992 156.276 227.009 155.008L227.173 155.01C227.155 156.38 226.479 157.485 225.666 157.473Z" fill="black"/>
<path opacity="0.2" d="M227.385 157.498L227.388 157.314C228.11 157.325 228.712 156.302 228.729 155.033L228.893 155.036C228.874 156.406 228.198 157.51 227.385 157.498Z" fill="black"/>
<path d="M220.794 142.541C220.219 142.18 219.498 142.553 219.201 143.172C218.839 143.924 219.118 144.839 219.519 145.493C219.935 146.172 220.506 146.736 220.779 147.518C221.041 148.253 221.062 149.07 220.839 149.823C220.616 150.576 220.163 151.216 219.56 151.629C219.291 151.815 219.531 152.296 219.801 152.11C220.392 151.707 220.864 151.116 221.155 150.412C221.447 149.708 221.545 148.922 221.437 148.156C221.383 147.758 221.274 147.373 221.115 147.013C220.941 146.646 220.731 146.302 220.489 145.988C220.07 145.415 219.542 144.782 219.526 143.993C219.523 143.89 219.53 143.788 219.549 143.688C219.563 143.617 219.583 143.549 219.609 143.483C219.67 143.343 219.76 143.22 219.872 143.125C219.975 143.035 220.096 142.976 220.225 142.952C220.333 142.935 220.443 142.957 220.54 143.014C220.816 143.187 221.07 142.714 220.794 142.541Z" fill="#E6E6E6"/>
<path d="M228.141 145.991C227.895 145.898 227.632 145.882 227.379 145.944C227.125 146.006 226.892 146.144 226.702 146.344C226.604 146.454 226.531 146.588 226.489 146.736C226.446 146.884 226.436 147.041 226.458 147.195C226.5 147.53 226.684 147.83 226.885 148.072C227.278 148.547 227.832 148.858 228.159 149.401C228.304 149.633 228.394 149.903 228.419 150.185C228.433 150.438 228.388 150.691 228.289 150.919C228.032 151.486 227.531 151.866 227.005 152.108C226.882 152.165 226.853 152.367 226.912 152.485C226.945 152.547 226.999 152.592 227.061 152.612C227.123 152.631 227.19 152.623 227.247 152.589C228.215 152.143 229.118 151.128 228.87 149.86C228.739 149.192 228.318 148.717 227.863 148.302C227.637 148.11 227.424 147.9 227.225 147.672C227.069 147.48 226.907 147.218 226.939 146.961C226.952 146.871 226.993 146.79 227.053 146.73C227.126 146.657 227.209 146.597 227.299 146.552C227.409 146.495 227.527 146.462 227.648 146.457C227.769 146.452 227.89 146.474 228.003 146.521C228.066 146.541 228.133 146.532 228.19 146.497C228.247 146.462 228.289 146.403 228.308 146.333C228.325 146.262 228.317 146.188 228.286 146.124C228.255 146.06 228.203 146.012 228.141 145.991L228.141 145.991Z" fill="#E6E6E6"/>
<path d="M224.507 138.081C224.362 137.938 224.179 137.855 223.986 137.846C223.804 137.847 223.625 137.909 223.474 138.024C223.131 138.296 222.886 138.696 222.783 139.152C222.52 140.217 222.829 141.374 223.266 142.321C223.487 142.801 223.746 143.256 223.968 143.734C224.183 144.192 224.346 144.678 224.453 145.181C224.673 146.212 224.679 147.287 224.472 148.322C224.261 149.353 223.834 150.37 223.121 151.073C223.074 151.124 223.047 151.194 223.046 151.267C223.045 151.34 223.07 151.411 223.115 151.463C223.161 151.516 223.223 151.546 223.288 151.547C223.353 151.548 223.416 151.52 223.463 151.468C224.096 150.845 224.525 149.983 224.789 149.094C225.081 148.09 225.177 147.027 225.07 145.978C225.022 145.456 224.923 144.941 224.775 144.444C224.615 143.942 224.412 143.459 224.17 143.001C223.72 142.117 223.24 141.222 223.188 140.176C223.162 139.662 223.226 139.127 223.515 138.718C223.499 138.741 223.527 138.702 223.527 138.702C223.545 138.679 223.563 138.657 223.582 138.635C223.617 138.593 223.655 138.554 223.696 138.519C223.687 138.526 223.665 138.542 223.705 138.512C223.725 138.497 223.746 138.483 223.766 138.469C223.783 138.458 223.801 138.449 223.818 138.439C223.828 138.433 223.839 138.428 223.849 138.423C223.825 138.434 223.827 138.434 223.853 138.423C223.873 138.417 223.968 138.395 223.915 138.402C223.933 138.4 223.951 138.398 223.968 138.399C223.976 138.398 224.042 138.403 224.01 138.399C223.972 138.394 224.04 138.407 224.04 138.407C224.061 138.413 224.082 138.421 224.102 138.43C224.051 138.406 224.185 138.494 224.154 138.466C224.201 138.516 224.262 138.545 224.327 138.546C224.391 138.547 224.454 138.52 224.502 138.471C224.588 138.377 224.611 138.174 224.507 138.081L224.507 138.081Z" fill="#E6E6E6"/>
<path d="M154.214 152.965C154.214 152.965 153.905 153.73 153.424 154.829C153.268 155.186 153.093 155.578 152.905 155.991C152.643 156.565 152.354 157.18 152.052 157.794C151.866 158.172 151.675 158.55 151.482 158.919C150.443 160.897 149.338 162.611 148.613 162.635C146.985 162.689 143.498 154.01 143.117 153.051C143.095 152.995 143.084 152.965 143.084 152.965H154.214Z" fill="#D5BA5C"/>
<path opacity="0.1" d="M153.424 154.829C153.268 155.186 153.093 155.578 152.905 155.991L148.593 152.965H150.767L153.424 154.829Z" fill="black"/>
<path opacity="0.1" d="M152.052 157.794C151.866 158.172 151.675 158.55 151.482 158.919L143.117 153.051C143.095 152.995 143.084 152.965 143.084 152.965H145.169L152.052 157.794Z" fill="black"/>
<path d="M148.842 145.278C148.332 145.6 147.525 145.478 147.035 145.819C146.699 146.053 146.61 146.452 146.701 146.799C146.793 147.146 147.036 147.454 147.281 147.751C147.449 147.955 147.625 148.161 147.862 148.317C148.194 148.534 148.619 148.636 149.037 148.717C149.946 148.894 150.874 149.001 151.808 149.037C152.225 149.053 152.697 149.037 152.978 148.791C153.141 148.648 153.207 148.452 153.255 148.262C153.33 147.965 153.372 147.645 153.217 147.369C153.089 147.142 152.844 146.971 152.596 146.82C151.818 146.346 150.902 145.953 150.427 145.27C150.238 144.998 150.121 144.684 149.835 144.473C149.462 144.199 148.633 144.087 148.193 144.27C148.261 144.393 149.148 145.085 148.842 145.278Z" fill="#FFFBDB"/>
<path d="M144.554 148.479C144.403 148.897 144.264 149.339 144.391 149.762C144.559 150.32 145.173 150.738 145.846 150.941C146.519 151.144 147.253 151.168 147.973 151.189L151.739 151.301C152.213 151.315 152.695 151.331 153.14 151.46C153.507 151.567 153.942 151.743 154.248 151.55C154.387 151.462 154.449 151.32 154.498 151.184C154.658 150.743 154.748 150.259 154.532 149.833C154.286 149.345 153.677 149.024 153.046 148.871C152.414 148.718 151.745 148.703 151.089 148.645C150.423 148.586 149.765 148.482 149.122 148.335C148.584 148.211 148.038 148.048 147.64 147.734C147.425 147.565 147.262 147.357 147.059 147.178C145.897 146.152 144.84 147.689 144.554 148.479Z" fill="#FFFBDB"/>
<path d="M143.727 150.399C143.36 150.53 143.042 150.734 142.804 150.991C142.566 151.249 142.415 151.551 142.366 151.868C142.317 152.186 142.372 152.508 142.525 152.803C142.678 153.099 142.925 153.358 143.24 153.556C143.814 153.914 144.564 154.039 145.291 154.081C146.001 154.121 146.715 154.093 147.426 154.065L153.717 153.817C154.085 153.802 154.503 153.769 154.728 153.535C154.896 153.361 154.906 153.121 154.865 152.904C154.721 152.123 153.981 151.431 153.035 151.194C152.678 151.105 152.303 151.077 151.931 151.049L149.234 150.848C148.871 150.821 148.506 150.793 148.154 150.717C147.087 150.486 146.134 149.812 145.036 149.912C144.291 149.979 143.678 150.395 143.137 150.808" fill="#FFFBDB"/>
<path opacity="0.1" d="M147.249 147.014C147.249 147.014 148.129 148.28 152.644 148.791L147.249 147.014Z" fill="black"/>
<path opacity="0.1" d="M144.751 150.33C144.751 150.33 146.387 151.649 153.137 151.649L144.751 150.33Z" fill="black"/>
<path d="M148.541 146.385C148.779 146.385 148.972 146.333 148.972 146.27C148.972 146.207 148.779 146.156 148.541 146.156C148.303 146.156 148.11 146.207 148.11 146.27C148.11 146.333 148.303 146.385 148.541 146.385Z" fill="#3F3D56"/>
<path d="M149.977 147.128C150.215 147.128 150.408 147.077 150.408 147.014C150.408 146.951 150.215 146.899 149.977 146.899C149.739 146.899 149.547 146.951 149.547 147.014C149.547 147.077 149.739 147.128 149.977 147.128Z" fill="#3F3D56"/>
<path d="M151.629 147.929C151.867 147.929 152.06 147.878 152.06 147.815C152.06 147.752 151.867 147.7 151.629 147.7C151.391 147.7 151.198 147.752 151.198 147.815C151.198 147.878 151.391 147.929 151.629 147.929Z" fill="#3F3D56"/>
<path d="M145.884 148.273C146.122 148.273 146.315 148.222 146.315 148.158C146.315 148.095 146.122 148.044 145.884 148.044C145.646 148.044 145.453 148.095 145.453 148.158C145.453 148.222 145.646 148.273 145.884 148.273Z" fill="#3F3D56"/>
<path d="M149.547 149.36C149.785 149.36 149.977 149.309 149.977 149.246C149.977 149.182 149.785 149.131 149.547 149.131C149.309 149.131 149.116 149.182 149.116 149.246C149.116 149.309 149.309 149.36 149.547 149.36Z" fill="#3F3D56"/>
<path d="M144.376 151.591C144.614 151.591 144.807 151.54 144.807 151.477C144.807 151.414 144.614 151.362 144.376 151.362C144.138 151.362 143.945 151.414 143.945 151.477C143.945 151.54 144.138 151.591 144.376 151.591Z" fill="#3F3D56"/>
<path d="M147.105 149.474C147.343 149.474 147.536 149.423 147.536 149.36C147.536 149.297 147.343 149.245 147.105 149.245C146.867 149.245 146.674 149.297 146.674 149.36C146.674 149.423 146.867 149.474 147.105 149.474Z" fill="#3F3D56"/>
<path d="M145.453 152.45C145.691 152.45 145.884 152.399 145.884 152.335C145.884 152.272 145.691 152.221 145.453 152.221C145.215 152.221 145.023 152.272 145.023 152.335C145.023 152.399 145.215 152.45 145.453 152.45Z" fill="#3F3D56"/>
<path d="M148.254 151.935C148.492 151.935 148.685 151.884 148.685 151.82C148.685 151.757 148.492 151.706 148.254 151.706C148.016 151.706 147.823 151.757 147.823 151.82C147.823 151.884 148.016 151.935 148.254 151.935Z" fill="#3F3D56"/>
<path d="M149.942 154.681C150.199 154.681 150.408 154.335 150.408 153.909C150.408 153.482 150.199 153.136 149.942 153.136C149.684 153.136 149.475 153.482 149.475 153.909C149.475 154.335 149.684 154.681 149.942 154.681Z" fill="#6C63FF"/>
<path d="M150.516 154.967C150.774 154.967 150.983 154.621 150.983 154.195C150.983 153.768 150.774 153.422 150.516 153.422C150.258 153.422 150.049 153.768 150.049 154.195C150.049 154.621 150.258 154.967 150.516 154.967Z" fill="#6C63FF"/>
<path d="M149.558 161.643C149.562 161.628 149.659 161.263 150.165 160.73C150.63 160.241 151.544 159.513 153.259 158.824C156.508 157.518 157.236 155.064 157.242 155.04L157.329 155.055C157.328 155.061 157.146 155.69 156.56 156.471C155.783 157.507 154.652 158.345 153.299 158.887C150.055 160.191 149.649 161.643 149.646 161.657L149.558 161.643Z" fill="#3F3D56"/>
<path d="M157.409 154.777C157.728 154.777 157.987 154.57 157.987 154.316C157.987 154.061 157.728 153.855 157.409 153.855C157.089 153.855 156.83 154.061 156.83 154.316C156.83 154.57 157.089 154.777 157.409 154.777Z" fill="#6C63FF"/>
<path d="M157.294 157.013C157.614 157.013 157.873 156.807 157.873 156.552C157.873 156.298 157.614 156.091 157.294 156.091C156.975 156.091 156.716 156.298 156.716 156.552C156.716 156.807 156.975 157.013 157.294 157.013Z" fill="#3F3D56"/>
<path d="M155.413 157.17C155.732 157.17 155.991 156.964 155.991 156.709C155.991 156.455 155.732 156.249 155.413 156.249C155.093 156.249 154.834 156.455 154.834 156.709C154.834 156.964 155.093 157.17 155.413 157.17Z" fill="#6C63FF"/>
<path d="M155.705 158.691C156.025 158.691 156.284 158.485 156.284 158.23C156.284 157.976 156.025 157.77 155.705 157.77C155.386 157.77 155.127 157.976 155.127 158.23C155.127 158.485 155.386 158.691 155.705 158.691Z" fill="#6C63FF"/>
<path d="M152.999 158.723C153.319 158.723 153.578 158.516 153.578 158.262C153.578 158.007 153.319 157.801 152.999 157.801C152.68 157.801 152.421 158.007 152.421 158.262C152.421 158.516 152.68 158.723 152.999 158.723Z" fill="#3F3D56"/>
<path d="M149.8 161.845C149.8 161.845 150.344 160.7 152.342 161.016L149.8 161.845Z" fill="#3F3D56"/>
<path d="M149.296 161.445C149.296 161.445 150.132 160.417 148.63 159.321L149.296 161.445Z" fill="#3F3D56"/>
<path d="M214.677 67.4956C220.795 67.4956 225.755 62.5909 225.755 56.5406C225.755 50.4904 220.795 45.5857 214.677 45.5857C208.56 45.5857 203.6 50.4904 203.6 56.5406C203.6 62.5909 208.56 67.4956 214.677 67.4956Z" fill="#EEEDFF"/>
<path opacity="0.2" d="M214.677 64.4882C212.813 64.4882 211.007 63.8506 209.566 62.6841C208.126 61.5176 207.139 59.8944 206.776 58.091C206.412 56.2875 206.694 54.4155 207.572 52.7939C208.451 51.1723 209.872 49.9014 211.594 49.1977C213.316 48.4941 215.232 48.4012 217.016 48.935C218.8 49.4688 220.34 50.5961 221.376 52.125C222.411 53.6538 222.878 55.4896 222.695 57.3195C222.512 59.1494 221.692 60.8602 220.374 62.1603C219.628 62.9007 218.74 63.4876 217.762 63.8872C216.784 64.2867 215.736 64.491 214.677 64.4882ZM214.677 49.0828C210.509 49.0828 207.118 52.4283 207.118 56.5404C207.118 60.6525 210.509 63.998 214.677 63.998C218.846 63.998 222.237 60.6525 222.237 56.5404C222.237 52.4283 218.846 49.0828 214.677 49.0828Z" fill="black"/>
<path d="M214.677 64.2737C219.034 64.2737 222.566 60.8115 222.566 56.5408C222.566 52.27 219.034 48.8079 214.677 48.8079C210.321 48.8079 206.789 52.27 206.789 56.5408C206.789 60.8115 210.321 64.2737 214.677 64.2737Z" fill="#DADADA"/>
<path d="M208.912 53.4514C208.852 53.337 208.816 53.2122 208.806 53.0842C208.796 52.9561 208.811 52.8274 208.852 52.7052C208.892 52.583 208.956 52.4699 209.041 52.3722C209.126 52.2745 209.229 52.1943 209.345 52.136C209.461 52.0777 209.588 52.0425 209.718 52.0325C209.848 52.0225 209.979 52.0378 210.103 52.0776C210.227 52.1174 210.342 52.1808 210.441 52.2644C210.54 52.3479 210.622 52.4498 210.681 52.5643L212.89 56.837C212.95 56.9514 212.986 57.0762 212.996 57.2042C213.006 57.3322 212.991 57.461 212.951 57.5832C212.91 57.7053 212.846 57.8185 212.761 57.9162C212.677 58.0138 212.573 58.0941 212.457 58.1524C212.341 58.2107 212.214 58.2458 212.084 58.2559C211.954 58.2659 211.823 58.2505 211.699 58.2108C211.575 58.171 211.46 58.1075 211.361 58.024C211.262 57.9405 211.18 57.8386 211.121 57.724L208.912 53.4514Z" fill="#FF6584"/>
<path opacity="0.2" d="M209.072 53.9632L208.971 53.7678C209.473 53.3821 210.063 53.0984 210.716 52.8892L210.817 53.0845C210.11 53.2301 209.508 53.4996 209.072 53.9632Z" fill="black"/>
<path opacity="0.2" d="M209.575 54.8223L209.474 54.627C209.977 54.2412 210.566 53.9576 211.22 53.7483L211.321 53.9436C210.613 54.0892 210.011 54.3587 209.575 54.8223Z" fill="black"/>
<path opacity="0.2" d="M210.079 55.6814L209.978 55.4861C210.48 55.1004 211.07 54.8167 211.724 54.6074L211.824 54.8028C211.117 54.9484 210.515 55.2178 210.079 55.6814Z" fill="black"/>
<path opacity="0.2" d="M210.582 56.5408L210.481 56.3455C210.984 55.9597 211.573 55.6761 212.227 55.4668L212.328 55.6621C211.62 55.8077 211.018 56.0772 210.582 56.5408Z" fill="black"/>
<path opacity="0.2" d="M211.085 57.6145L210.985 57.4192C211.487 57.0335 212.077 56.7498 212.73 56.5405L212.831 56.7359C212.124 56.8815 211.522 57.1509 211.085 57.6145Z" fill="black"/>
<path d="M207.233 54.9556C207.174 54.8412 207.138 54.7164 207.128 54.5883C207.117 54.4603 207.133 54.3314 207.173 54.2093C207.213 54.0871 207.278 53.9739 207.363 53.8762C207.447 53.7785 207.551 53.6982 207.667 53.6399C207.783 53.5816 207.91 53.5464 208.04 53.5364C208.17 53.5264 208.301 53.5417 208.425 53.5815C208.549 53.6213 208.664 53.6848 208.763 53.7683C208.862 53.8518 208.944 53.9538 209.003 54.0683L211.213 58.3423C211.332 58.5733 211.353 58.8415 211.272 59.0879C211.19 59.3342 211.013 59.5387 210.778 59.6563C210.544 59.7739 210.272 59.795 210.021 59.715C209.771 59.635 209.563 59.4604 209.444 59.2296L207.233 54.9556Z" fill="#FF6584"/>
<path opacity="0.2" d="M207.393 55.4666L207.293 55.2713C207.795 54.8855 208.385 54.6018 209.038 54.3926L209.139 54.5879C208.431 54.7335 207.83 55.003 207.393 55.4666Z" fill="black"/>
<path opacity="0.2" d="M207.897 56.3257L207.796 56.1304C208.298 55.7447 208.888 55.461 209.542 55.2517L209.642 55.447C208.935 55.5927 208.333 55.8621 207.897 56.3257Z" fill="black"/>
<path opacity="0.2" d="M208.4 57.3999L208.3 57.2046C208.802 56.8189 209.392 56.5352 210.045 56.3259L210.146 56.5213C209.438 56.6669 208.837 56.9363 208.4 57.3999Z" fill="black"/>
<path opacity="0.2" d="M208.904 58.2591L208.803 58.0637C209.305 57.678 209.895 57.3943 210.549 57.1851L210.649 57.3804C209.942 57.526 209.34 57.7955 208.904 58.2591Z" fill="black"/>
<path opacity="0.2" d="M209.407 59.1182L209.307 58.9229C209.809 58.5371 210.399 58.2535 211.052 58.0442L211.153 58.2395C210.445 58.3851 209.844 58.6546 209.407 59.1182Z" fill="black"/>
<path d="M219.842 56.7793L219.849 56.7793C220.086 56.7813 220.318 56.7116 220.515 56.5793C220.712 56.4469 220.865 56.2581 220.953 56.0374C221.135 55.5765 221.227 55.0848 221.223 54.5891C221.211 52.4912 219.509 50.7701 217.418 50.7411C216.527 50.7286 215.659 51.0254 214.962 51.5812C214.264 52.137 213.78 52.9177 213.591 53.7908C213.401 54.6638 213.519 55.5757 213.924 56.3717C214.328 57.1678 214.995 57.799 215.81 58.1584C216.026 58.2541 216.265 58.2823 216.497 58.2392C216.729 58.1961 216.942 58.0837 217.109 57.9169C217.467 57.5558 217.893 57.2693 218.362 57.0741C218.831 56.8789 219.334 56.7787 219.842 56.7793Z" fill="#E6E6E6"/>
<path d="M217.95 55.6814C218.645 55.6814 219.209 55.1044 219.209 54.3926C219.209 53.6808 218.645 53.1038 217.95 53.1038C217.255 53.1038 216.691 53.6808 216.691 54.3926C216.691 55.1044 217.255 55.6814 217.95 55.6814Z" fill="#F9A825"/>
<path d="M215.181 54.1777C215.274 54.1777 215.349 54.1296 215.349 54.0703C215.349 54.011 215.274 53.9629 215.181 53.9629C215.088 53.9629 215.013 54.011 215.013 54.0703C215.013 54.1296 215.088 54.1777 215.181 54.1777Z" fill="#3F3D56"/>
<path d="M210.146 54.3925C210.238 54.3925 210.314 54.2963 210.314 54.1777C210.314 54.0591 210.238 53.9629 210.146 53.9629C210.053 53.9629 209.978 54.0591 209.978 54.1777C209.978 54.2963 210.053 54.3925 210.146 54.3925Z" fill="#3F3D56"/>
<path d="M215.936 52.6742C215.983 52.6742 216.02 52.5781 216.02 52.4594C216.02 52.3408 215.983 52.2446 215.936 52.2446C215.89 52.2446 215.852 52.3408 215.852 52.4594C215.852 52.5781 215.89 52.6742 215.936 52.6742Z" fill="#3F3D56"/>
<path d="M215.936 56.9701C215.983 56.9701 216.02 56.874 216.02 56.7553C216.02 56.6367 215.983 56.5405 215.936 56.5405C215.89 56.5405 215.852 56.6367 215.852 56.7553C215.852 56.874 215.89 56.9701 215.936 56.9701Z" fill="#3F3D56"/>
<path d="M218.873 52.2443C218.966 52.2443 219.041 52.1963 219.041 52.1369C219.041 52.0776 218.966 52.0295 218.873 52.0295C218.781 52.0295 218.706 52.0776 218.706 52.1369C218.706 52.1963 218.781 52.2443 218.873 52.2443Z" fill="#3F3D56"/>
<path d="M209.139 56.3256C209.231 56.3256 209.307 56.2776 209.307 56.2182C209.307 56.1589 209.231 56.1108 209.139 56.1108C209.046 56.1108 208.971 56.1589 208.971 56.2182C208.971 56.2776 209.046 56.3256 209.139 56.3256Z" fill="#3F3D56"/>
<path d="M210.314 58.4738C210.406 58.4738 210.481 58.4258 210.481 58.3664C210.481 58.3071 210.406 58.259 210.314 58.259C210.221 58.259 210.146 58.3071 210.146 58.3664C210.146 58.4258 210.221 58.4738 210.314 58.4738Z" fill="#3F3D56"/>
<path d="M217.195 59.1182C217.473 59.1182 217.699 58.8778 217.699 58.5812C217.699 58.2846 217.473 58.0442 217.195 58.0442C216.917 58.0442 216.691 58.2846 216.691 58.5812C216.691 58.8778 216.917 59.1182 217.195 59.1182Z" fill="#FF6584"/>
<path opacity="0.2" d="M217.698 58.6885C217.698 58.8024 217.654 58.9117 217.576 58.9923C217.497 59.0728 217.39 59.1181 217.279 59.1181C217.168 59.1181 217.061 59.0728 216.982 58.9923C216.903 58.9117 216.859 58.8024 216.859 58.6885" fill="black"/>
<path opacity="0.2" d="M216.859 58.6886C216.859 58.5747 216.903 58.4654 216.982 58.3849C217.061 58.3043 217.168 58.259 217.279 58.259C217.39 58.259 217.497 58.3043 217.576 58.3849C217.654 58.4654 217.698 58.5747 217.698 58.6886" fill="black"/>
<path d="M217.447 58.6884C217.493 58.6884 217.531 58.6404 217.531 58.581C217.531 58.5217 217.493 58.4736 217.447 58.4736C217.4 58.4736 217.363 58.5217 217.363 58.581C217.363 58.6404 217.4 58.6884 217.447 58.6884Z" fill="#FF6584"/>
<path d="M216.943 58.9033C216.99 58.9033 217.027 58.8552 217.027 58.7959C217.027 58.7366 216.99 58.6885 216.943 58.6885C216.897 58.6885 216.859 58.7366 216.859 58.7959C216.859 58.8552 216.897 58.9033 216.943 58.9033Z" fill="#FF6584"/>
<path d="M218.286 57.6145C218.61 57.6145 218.873 57.3741 218.873 57.0775C218.873 56.781 218.61 56.5405 218.286 56.5405C217.961 56.5405 217.698 56.781 217.698 57.0775C217.698 57.3741 217.961 57.6145 218.286 57.6145Z" fill="#FF6584"/>
<path opacity="0.2" d="M218.706 57.1851C218.706 57.299 218.661 57.4083 218.583 57.4888C218.504 57.5694 218.397 57.6147 218.286 57.6147C218.175 57.6147 218.068 57.5694 217.989 57.4888C217.911 57.4083 217.866 57.299 217.866 57.1851" fill="black"/>
<path opacity="0.2" d="M217.866 57.1847C217.866 57.0708 217.911 56.9615 217.989 56.881C218.068 56.8004 218.175 56.7551 218.286 56.7551C218.397 56.7551 218.504 56.8004 218.583 56.881C218.661 56.9615 218.706 57.0708 218.706 57.1847" fill="black"/>
<path d="M218.118 57.3999C218.165 57.3999 218.202 57.3518 218.202 57.2925C218.202 57.2331 218.165 57.1851 218.118 57.1851C218.072 57.1851 218.034 57.2331 218.034 57.2925C218.034 57.3518 218.072 57.3999 218.118 57.3999Z" fill="#FF6584"/>
<path d="M219.461 58.4737C219.785 58.4737 220.048 58.2332 220.048 57.9367C220.048 57.6401 219.785 57.3997 219.461 57.3997C219.136 57.3997 218.873 57.6401 218.873 57.9367C218.873 58.2332 219.136 58.4737 219.461 58.4737Z" fill="#6C63FF"/>
<path opacity="0.2" d="M219.88 58.0442C219.88 58.1581 219.836 58.2674 219.758 58.348C219.679 58.4285 219.572 58.4738 219.461 58.4738C219.35 58.4738 219.243 58.4285 219.164 58.348C219.085 58.2674 219.041 58.1581 219.041 58.0442" fill="black"/>
<path opacity="0.2" d="M219.041 57.8293C219.041 57.7153 219.085 57.6061 219.164 57.5255C219.243 57.4449 219.35 57.3997 219.461 57.3997C219.572 57.3997 219.679 57.4449 219.758 57.5255C219.836 57.6061 219.88 57.7153 219.88 57.8293" fill="black"/>
<path d="M219.293 57.8291C219.339 57.8291 219.377 57.781 219.377 57.7217C219.377 57.6623 219.339 57.6143 219.293 57.6143C219.247 57.6143 219.209 57.6623 219.209 57.7217C219.209 57.781 219.247 57.8291 219.293 57.8291Z" fill="#6C63FF"/>
<path d="M219.461 58.259C219.507 58.259 219.545 58.2109 219.545 58.1516C219.545 58.0923 219.507 58.0442 219.461 58.0442C219.415 58.0442 219.377 58.0923 219.377 58.1516C219.377 58.2109 219.415 58.259 219.461 58.259Z" fill="#6C63FF"/>
<path d="M216.608 58.4737C216.932 58.4737 217.195 58.2332 217.195 57.9367C217.195 57.6401 216.932 57.3997 216.608 57.3997C216.283 57.3997 216.02 57.6401 216.02 57.9367C216.02 58.2332 216.283 58.4737 216.608 58.4737Z" fill="#6C63FF"/>
<path opacity="0.2" d="M217.027 58.0442C217.027 58.1581 216.983 58.2674 216.904 58.348C216.826 58.4285 216.719 58.4738 216.608 58.4738C216.496 58.4738 216.39 58.4285 216.311 58.348C216.232 58.2674 216.188 58.1581 216.188 58.0442" fill="black"/>
<path opacity="0.2" d="M216.188 58.0439C216.188 57.9299 216.232 57.8207 216.311 57.7401C216.39 57.6595 216.496 57.6143 216.608 57.6143C216.719 57.6143 216.826 57.6595 216.904 57.7401C216.983 57.8207 217.027 57.9299 217.027 58.0439" fill="black"/>
<path d="M216.608 57.8291C216.654 57.8291 216.691 57.781 216.691 57.7217C216.691 57.6623 216.654 57.6143 216.608 57.6143C216.561 57.6143 216.524 57.6623 216.524 57.7217C216.524 57.781 216.561 57.8291 216.608 57.8291Z" fill="#6C63FF"/>
<path d="M216.608 58.259C216.654 58.259 216.691 58.2109 216.691 58.1516C216.691 58.0923 216.654 58.0442 216.608 58.0442C216.561 58.0442 216.524 58.0923 216.524 58.1516C216.524 58.2109 216.561 58.259 216.608 58.259Z" fill="#6C63FF"/>
<path d="M217.95 58.9031C218.275 58.9031 218.538 58.6146 218.538 58.2587C218.538 57.9028 218.275 57.6143 217.95 57.6143C217.626 57.6143 217.363 57.9028 217.363 58.2587C217.363 58.6146 217.626 58.9031 217.95 58.9031Z" fill="#6C63FF"/>
<path opacity="0.2" d="M218.37 58.259C218.37 58.3154 218.359 58.3713 218.338 58.4234C218.317 58.4756 218.286 58.5229 218.247 58.5628C218.208 58.6027 218.162 58.6343 218.111 58.6559C218.06 58.6775 218.005 58.6886 217.95 58.6886C217.895 58.6886 217.841 58.6775 217.79 58.6559C217.739 58.6343 217.693 58.6027 217.654 58.5628C217.615 58.5229 217.584 58.4756 217.563 58.4234C217.542 58.3713 217.531 58.3154 217.531 58.259" fill="black"/>
<path opacity="0.2" d="M217.531 58.259C217.531 58.2025 217.542 58.1467 217.563 58.0945C217.584 58.0424 217.615 57.9951 217.654 57.9552C217.693 57.9153 217.739 57.8836 217.79 57.862C217.841 57.8405 217.895 57.8293 217.95 57.8293C218.005 57.8293 218.06 57.8405 218.111 57.862C218.162 57.8836 218.208 57.9153 218.247 57.9552C218.286 57.9951 218.317 58.0424 218.338 58.0945C218.359 58.1467 218.37 58.2025 218.37 58.259" fill="black"/>
<path d="M217.95 58.0441C217.997 58.0441 218.034 57.9961 218.034 57.9367C218.034 57.8774 217.997 57.8293 217.95 57.8293C217.904 57.8293 217.866 57.8774 217.866 57.9367C217.866 57.9961 217.904 58.0441 217.95 58.0441Z" fill="#6C63FF"/>
<path d="M218.118 58.259C218.165 58.259 218.202 58.2109 218.202 58.1516C218.202 58.0923 218.165 58.0442 218.118 58.0442C218.072 58.0442 218.034 58.0923 218.034 58.1516C218.034 58.2109 218.072 58.259 218.118 58.259Z" fill="#6C63FF"/>
<path d="M218.118 58.6884C218.165 58.6884 218.202 58.6403 218.202 58.581C218.202 58.5217 218.165 58.4736 218.118 58.4736C218.072 58.4736 218.034 58.5217 218.034 58.581C218.034 58.6403 218.072 58.6884 218.118 58.6884Z" fill="#6C63FF"/>
<path d="M218.79 59.333C219.114 59.333 219.377 59.0926 219.377 58.796C219.377 58.4995 219.114 58.259 218.79 58.259C218.465 58.259 218.202 58.4995 218.202 58.796C218.202 59.0926 218.465 59.333 218.79 59.333Z" fill="#FF6584"/>
<path opacity="0.2" d="M219.209 58.9036C219.209 59.0175 219.165 59.1268 219.086 59.2073C219.007 59.2879 218.901 59.3332 218.789 59.3332C218.678 59.3332 218.571 59.2879 218.493 59.2073C218.414 59.1268 218.37 59.0175 218.37 58.9036" fill="black"/>
<path opacity="0.2" d="M218.37 58.9032C218.37 58.7893 218.414 58.68 218.493 58.5995C218.571 58.5189 218.678 58.4736 218.789 58.4736C218.901 58.4736 219.007 58.5189 219.086 58.5995C219.165 58.68 219.209 58.7893 219.209 58.9032" fill="black"/>
<path d="M218.79 58.6884C218.836 58.6884 218.873 58.6404 218.873 58.581C218.873 58.5217 218.836 58.4736 218.79 58.4736C218.743 58.4736 218.706 58.5217 218.706 58.581C218.706 58.6404 218.743 58.6884 218.79 58.6884Z" fill="#FF6584"/>
<path d="M218.79 59.1184C218.836 59.1184 218.873 59.0703 218.873 59.011C218.873 58.9516 218.836 58.9036 218.79 58.9036C218.743 58.9036 218.706 58.9516 218.706 59.011C218.706 59.0703 218.743 59.1184 218.79 59.1184Z" fill="#FF6584"/>
<path d="M211.488 56.7553C211.581 56.7553 211.656 56.7072 211.656 56.6479C211.656 56.5886 211.581 56.5405 211.488 56.5405C211.396 56.5405 211.321 56.5886 211.321 56.6479C211.321 56.7072 211.396 56.7553 211.488 56.7553Z" fill="#3F3D56"/>
<path d="M215.548 62.1254L211.992 61.1317L212.128 60.6218L215.685 61.6156L215.548 62.1254Z" fill="#F9A825"/>
<path d="M215.013 61.9645C213.793 62.1793 212.54 62.1793 211.321 61.9645V61.4812C212.543 61.6676 213.791 61.6676 215.013 61.4812V61.9645Z" fill="#F9A825"/>
<path d="M215.517 60.4071C214.241 60.6935 212.932 60.6935 211.656 60.4071V59.7627C212.934 60.0112 214.239 60.0112 215.517 59.7627V60.4071Z" fill="#F9A825"/>
<path d="M216.692 60.8903C215.472 61.1051 214.219 61.1051 212.999 60.8903V60.407C214.222 60.5934 215.469 60.5934 216.692 60.407V60.8903Z" fill="#F9A825"/>
<path d="M217.027 61.5348C215.807 61.7496 214.554 61.7496 213.335 61.5348V61.0515C214.557 61.2379 215.805 61.2379 217.027 61.0515V61.5348Z" fill="#F9A825"/>
<path d="M218.202 62.4029L214.429 62.9844L214.342 62.4919L218.115 61.9104L218.202 62.4029Z" fill="#F9A825"/>
<path d="M217.531 62.4125C216.534 63.1783 215.411 63.7367 214.219 64.0584L214.006 63.5563C215.187 63.204 216.305 62.648 217.317 61.9104L217.531 62.4125Z" fill="#F9A825"/>
<path d="M217.363 60.8589C216.319 61.5481 215.142 62.0506 213.894 62.3402L213.67 61.8883C214.907 61.5712 216.079 61.0708 217.139 60.407L217.363 60.8589Z" fill="#F9A825"/>
<path d="M218.706 60.8589C217.709 61.5481 216.585 62.0506 215.394 62.3402L215.181 61.8883C216.362 61.5712 217.48 61.0708 218.492 60.407L218.706 60.8589Z" fill="#F9A825"/>
<path d="M219.209 61.2883C218.212 61.9775 217.089 62.4801 215.898 62.7697L215.684 62.3177C216.865 62.0006 217.984 61.5003 218.996 60.8364L219.209 61.2883Z" fill="#F9A825"/>
<path d="M214.845 60.1919H214.677V60.4067H214.845V60.1919Z" fill="#00BF71"/>
<path d="M215.349 63.1995H215.181V63.4143H215.349V63.1995Z" fill="#00BF71"/>
<path d="M212.496 60.1919H212.328V60.4067H212.496V60.1919Z" fill="#00BF71"/>
<path d="M216.524 62.3403H216.356V62.5551H216.524V62.3403Z" fill="#00BF71"/>
<path d="M213.769 60.9151L213.563 60.7776L213.484 60.8931L213.69 61.0306L213.769 60.9151Z" fill="#00BF71"/>
<path d="M215.871 61.3011L215.665 61.1636L215.585 61.2791L215.791 61.4166L215.871 61.3011Z" fill="#00BF71"/>
<path d="M213.306 61.9668L213.1 61.8293L213.021 61.9449L213.227 62.0824L213.306 61.9668Z" fill="#00BF71"/>
<path d="M214.613 61.957L214.753 61.7539L214.635 61.6752L214.495 61.8782L214.613 61.957Z" fill="#00BF71"/>
<path d="M215.575 62.2023L215.715 61.9993L215.597 61.9205L215.457 62.1236L215.575 62.2023Z" fill="#00BF71"/>
<path d="M218.139 61.3608L218.279 61.1577L218.162 61.079L218.022 61.282L218.139 61.3608Z" fill="#00BF71"/>
<g clip-path="url(#clip0_98:3201)">
<path d="M67.322 92.4914C55.8571 71.6469 53.729 69.5076 53.729 61.8469C53.729 51.3535 60.5119 42.8469 68.879 42.8469C77.2461 42.8469 84.029 51.3535 84.029 61.8469C84.029 69.5076 81.9009 71.6469 70.436 92.4914C69.6836 93.8544 68.0743 93.8543 67.322 92.4914Z" fill="#F44848"/>
<path d="M75.0775 64.5417C75.0775 64.5417 74.6915 65.4771 74.0892 66.8209C73.8944 67.2574 73.6763 67.7366 73.4411 68.241C73.1135 68.9434 72.7527 69.6947 72.3748 70.446C72.1423 70.9084 71.9035 71.3701 71.662 71.8213C70.3641 74.2397 68.9817 76.3349 68.076 76.3643C66.0411 76.43 61.6822 65.8191 61.2065 64.6467C61.1787 64.5781 61.1643 64.5417 61.1643 64.5417H75.0775Z" fill="#D5BA5C"/>
<path opacity="0.1" d="M74.0892 66.8209C73.8945 67.2574 73.6763 67.7366 73.4412 68.241L68.0509 64.5417H70.768L74.0892 66.8209Z" fill="black"/>
<path opacity="0.1" d="M72.3748 70.446C72.1423 70.9084 71.9035 71.3701 71.662 71.8213L61.2065 64.6467C61.1787 64.5781 61.1643 64.5417 61.1643 64.5417H63.771L72.3748 70.446Z" fill="black"/>
<path d="M68.3622 55.1439C67.7243 55.5377 66.7158 55.3888 66.1028 55.8058C65.6835 56.091 65.5717 56.5788 65.6861 57.0033C65.8005 57.4278 66.1045 57.8045 66.4104 58.1669C66.6215 58.417 66.8404 58.6691 67.1371 58.8593C67.5517 59.1252 68.084 59.249 68.6056 59.3485C69.7417 59.565 70.9017 59.696 72.0699 59.7398C72.5908 59.7594 73.1808 59.7398 73.5318 59.4392C73.7362 59.2641 73.8184 59.0242 73.8783 58.7922C73.972 58.4292 74.024 58.0385 73.8304 57.7004C73.6713 57.4225 73.365 57.2142 73.0549 57.0292C72.0822 56.4492 70.9366 55.969 70.343 55.1341C70.107 54.8022 69.9615 54.4176 69.6038 54.1602C69.1376 53.8246 68.1004 53.6873 67.5514 53.9115C67.6362 54.0622 68.7445 54.9079 68.3622 55.1439Z" fill="#FFFBDB"/>
<path d="M63.0025 59.0573C62.8133 59.5684 62.6391 60.1091 62.7984 60.6263C63.0083 61.3083 63.7755 61.819 64.6171 62.0672C65.4587 62.3154 66.3764 62.3444 67.2756 62.3706L71.9837 62.5076C72.5754 62.5249 73.1785 62.5438 73.7345 62.7023C74.1929 62.8329 74.7376 63.0481 75.1197 62.8115C75.293 62.7042 75.3708 62.5304 75.4323 62.3647C75.6324 61.8255 75.7444 61.2334 75.4753 60.7128C75.1669 60.1161 74.4065 59.7241 73.617 59.5367C72.8275 59.3493 71.9913 59.3311 71.171 59.2603C70.3389 59.1885 69.5161 59.0616 68.7116 58.8809C68.0391 58.7298 67.3577 58.5305 66.8602 58.1468C66.5911 57.9392 66.3873 57.6861 66.1337 57.467C64.6807 56.2122 63.3598 58.0915 63.0025 59.0573Z" fill="#FFFBDB"/>
<path d="M61.9679 61.4053C61.5099 61.5652 61.1127 61.8145 60.8147 62.1291C60.5167 62.4437 60.328 62.813 60.2669 63.2011C60.2058 63.5892 60.2743 63.9831 60.4658 64.3445C60.6573 64.706 60.9653 65.0227 61.36 65.2642C62.0769 65.7026 63.0151 65.8551 63.924 65.9062C64.8116 65.956 65.703 65.9217 66.5917 65.8874L74.4553 65.5839C74.9163 65.5661 75.438 65.5247 75.7193 65.2396C75.9293 65.0269 75.9417 64.7334 75.8915 64.4678C75.7112 63.5125 74.7856 62.6667 73.6036 62.3772C73.1578 62.268 72.6884 62.2334 72.2231 62.1995L68.8522 61.9537C68.3983 61.9206 67.9417 61.8871 67.5017 61.7939C66.1687 61.5115 64.9775 60.687 63.605 60.8091C62.6739 60.8919 61.9073 61.4 61.2309 61.9055" fill="#FFFBDB"/>
<path opacity="0.1" d="M66.3705 57.2664C66.3705 57.2664 67.4708 58.8145 73.1143 59.4395L66.3705 57.2664Z" fill="black"/>
<path opacity="0.1" d="M63.2488 61.321C63.2488 61.321 65.2934 62.9327 73.7311 62.9327L63.2488 61.321Z" fill="black"/>
<path d="M67.9862 56.4969C68.2837 56.4969 68.5248 56.4342 68.5248 56.357C68.5248 56.2797 68.2837 56.217 67.9862 56.217C67.6888 56.217 67.4476 56.2797 67.4476 56.357C67.4476 56.4342 67.6888 56.4969 67.9862 56.4969Z" fill="#3F3D56"/>
<path d="M69.7815 57.4063C70.0789 57.4063 70.3201 57.3436 70.3201 57.2664C70.3201 57.1891 70.0789 57.1265 69.7815 57.1265C69.484 57.1265 69.2429 57.1891 69.2429 57.2664C69.2429 57.3436 69.484 57.4063 69.7815 57.4063Z" fill="#3F3D56"/>
<path d="M71.8461 58.3855C72.1435 58.3855 72.3846 58.3229 72.3846 58.2456C72.3846 58.1684 72.1435 58.1057 71.8461 58.1057C71.5486 58.1057 71.3075 58.1684 71.3075 58.2456C71.3075 58.3229 71.5486 58.3855 71.8461 58.3855Z" fill="#3F3D56"/>
<path d="M64.665 58.8055C64.9625 58.8055 65.2036 58.7428 65.2036 58.6655C65.2036 58.5883 64.9625 58.5256 64.665 58.5256C64.3676 58.5256 64.1265 58.5883 64.1265 58.6655C64.1265 58.7428 64.3676 58.8055 64.665 58.8055Z" fill="#3F3D56"/>
<path d="M69.2429 60.1346C69.5404 60.1346 69.7815 60.0719 69.7815 59.9946C69.7815 59.9174 69.5404 59.8547 69.2429 59.8547C68.9455 59.8547 68.7043 59.9174 68.7043 59.9946C68.7043 60.0719 68.9455 60.1346 69.2429 60.1346Z" fill="#3F3D56"/>
<path d="M62.78 62.8628C63.0775 62.8628 63.3186 62.8002 63.3186 62.7229C63.3186 62.6456 63.0775 62.583 62.78 62.583C62.4826 62.583 62.2415 62.6456 62.2415 62.7229C62.2415 62.8002 62.4826 62.8628 62.78 62.8628Z" fill="#3F3D56"/>
<path d="M66.191 60.2745C66.4885 60.2745 66.7296 60.2118 66.7296 60.1345C66.7296 60.0573 66.4885 59.9946 66.191 59.9946C65.8936 59.9946 65.6525 60.0573 65.6525 60.1345C65.6525 60.2118 65.8936 60.2745 66.191 60.2745Z" fill="#3F3D56"/>
<path d="M64.1265 63.9121C64.4239 63.9121 64.665 63.8495 64.665 63.7722C64.665 63.695 64.4239 63.6323 64.1265 63.6323C63.829 63.6323 63.5879 63.695 63.5879 63.7722C63.5879 63.8495 63.829 63.9121 64.1265 63.9121Z" fill="#3F3D56"/>
<path d="M67.6272 63.2825C67.9246 63.2825 68.1658 63.2199 68.1658 63.1426C68.1658 63.0653 67.9246 63.0027 67.6272 63.0027C67.3298 63.0027 67.0886 63.0653 67.0886 63.1426C67.0886 63.2199 67.3298 63.2825 67.6272 63.2825Z" fill="#3F3D56"/>
<path d="M69.7367 66.6403C70.0589 66.6403 70.3201 66.2174 70.3201 65.6959C70.3201 65.1743 70.0589 64.7515 69.7367 64.7515C69.4144 64.7515 69.1532 65.1743 69.1532 65.6959C69.1532 66.2174 69.4144 66.6403 69.7367 66.6403Z" fill="#6C63FF"/>
<path d="M70.4547 66.9901C70.777 66.9901 71.0382 66.5673 71.0382 66.0457C71.0382 65.5241 70.777 65.1013 70.4547 65.1013C70.1325 65.1013 69.8713 65.5241 69.8713 66.0457C69.8713 66.5673 70.1325 66.9901 70.4547 66.9901Z" fill="#6C63FF"/>
<path d="M69.2576 75.1521C69.2624 75.1335 69.3834 74.6868 70.0163 74.0352C70.5971 73.4375 71.7393 72.5479 73.8834 71.7051C77.9452 70.1084 78.8541 67.1085 78.8628 67.0784L78.9713 67.0975C78.9691 67.1051 78.7418 67.8731 78.0101 68.8289C77.0391 70.0954 75.625 71.12 73.9335 71.7825C69.8786 73.3765 69.3713 75.1516 69.3666 75.1693L69.2576 75.1521Z" fill="#3F3D56"/>
<path d="M79.0706 66.7575C79.4699 66.7575 79.7936 66.5053 79.7936 66.1941C79.7936 65.8829 79.4699 65.6306 79.0706 65.6306C78.6713 65.6306 78.3476 65.8829 78.3476 66.1941C78.3476 66.5053 78.6713 66.7575 79.0706 66.7575Z" fill="#6C63FF"/>
<path d="M78.9275 69.4912C79.3268 69.4912 79.6505 69.2389 79.6505 68.9277C79.6505 68.6165 79.3268 68.3643 78.9275 68.3643C78.5282 68.3643 78.2045 68.6165 78.2045 68.9277C78.2045 69.2389 78.5282 69.4912 78.9275 69.4912Z" fill="#3F3D56"/>
<path d="M76.5755 69.6831C76.9748 69.6831 77.2985 69.4308 77.2985 69.1196C77.2985 68.8084 76.9748 68.5562 76.5755 68.5562C76.1762 68.5562 75.8525 68.8084 75.8525 69.1196C75.8525 69.4308 76.1762 69.6831 76.5755 69.6831Z" fill="#6C63FF"/>
<path d="M76.9411 71.5432C77.3404 71.5432 77.6641 71.2909 77.6641 70.9797C77.6641 70.6685 77.3404 70.4163 76.9411 70.4163C76.5418 70.4163 76.2181 70.6685 76.2181 70.9797C76.2181 71.2909 76.5418 71.5432 76.9411 71.5432Z" fill="#6C63FF"/>
<path d="M73.5585 71.5815C73.9578 71.5815 74.2815 71.3292 74.2815 71.0181C74.2815 70.7069 73.9578 70.4546 73.5585 70.4546C73.1592 70.4546 72.8355 70.7069 72.8355 71.0181C72.8355 71.3292 73.1592 71.5815 73.5585 71.5815Z" fill="#3F3D56"/>
<path d="M69.5598 75.399C69.5598 75.399 70.2397 73.9988 72.7378 74.3854L69.5598 75.399Z" fill="#3F3D56"/>
<path d="M68.9297 74.9091C68.9297 74.9091 69.9752 73.6532 68.0967 72.313L68.9297 74.9091Z" fill="#3F3D56"/>
</g>
<rect x="113" y="121" width="76" height="15" fill="#F8CE39"/>
<path d="M123.06 125.03V125.77H121.16V132H120.25V125.77H118.34V125.03H123.06ZM129.04 126.52V132H128.13V131.19C127.957 131.47 127.713 131.69 127.4 131.85C127.093 132.003 126.753 132.08 126.38 132.08C125.953 132.08 125.57 131.993 125.23 131.82C124.89 131.64 124.62 131.373 124.42 131.02C124.227 130.667 124.13 130.237 124.13 129.73V126.52H125.03V129.61C125.03 130.15 125.167 130.567 125.44 130.86C125.713 131.147 126.087 131.29 126.56 131.29C127.047 131.29 127.43 131.14 127.71 130.84C127.99 130.54 128.13 130.103 128.13 129.53V126.52H129.04ZM131.687 127.27V130.5C131.687 130.767 131.743 130.957 131.857 131.07C131.97 131.177 132.167 131.23 132.447 131.23H133.117V132H132.297C131.79 132 131.41 131.883 131.157 131.65C130.903 131.417 130.777 131.033 130.777 130.5V127.27H130.067V126.52H130.777V125.14H131.687V126.52H133.117V127.27H131.687ZM139.079 126.52V132H138.169V131.19C137.996 131.47 137.753 131.69 137.439 131.85C137.133 132.003 136.793 132.08 136.419 132.08C135.993 132.08 135.609 131.993 135.269 131.82C134.929 131.64 134.659 131.373 134.459 131.02C134.266 130.667 134.169 130.237 134.169 129.73V126.52H135.069V129.61C135.069 130.15 135.206 130.567 135.479 130.86C135.753 131.147 136.126 131.29 136.599 131.29C137.086 131.29 137.469 131.14 137.749 130.84C138.029 130.54 138.169 130.103 138.169 129.53V126.52H139.079ZM141.526 127.53C141.706 127.217 141.972 126.957 142.326 126.75C142.686 126.537 143.102 126.43 143.576 126.43C144.062 126.43 144.502 126.547 144.896 126.78C145.296 127.013 145.609 127.343 145.836 127.77C146.062 128.19 146.176 128.68 146.176 129.24C146.176 129.793 146.062 130.287 145.836 130.72C145.609 131.153 145.296 131.49 144.896 131.73C144.502 131.97 144.062 132.09 143.576 132.09C143.109 132.09 142.696 131.987 142.336 131.78C141.982 131.567 141.712 131.303 141.526 130.99V134.6H140.616V126.52H141.526V127.53ZM145.246 129.24C145.246 128.827 145.162 128.467 144.996 128.16C144.829 127.853 144.602 127.62 144.316 127.46C144.036 127.3 143.726 127.22 143.386 127.22C143.052 127.22 142.742 127.303 142.456 127.47C142.176 127.63 141.949 127.867 141.776 128.18C141.609 128.487 141.526 128.843 141.526 129.25C141.526 129.663 141.609 130.027 141.776 130.34C141.949 130.647 142.176 130.883 142.456 131.05C142.742 131.21 143.052 131.29 143.386 131.29C143.726 131.29 144.036 131.21 144.316 131.05C144.602 130.883 144.829 130.647 144.996 130.34C145.162 130.027 145.246 129.66 145.246 129.24ZM153.44 122.58L150.7 133.7H149.8L152.53 122.58H153.44ZM158.285 128.41C158.539 128.45 158.769 128.553 158.975 128.72C159.189 128.887 159.355 129.093 159.475 129.34C159.602 129.587 159.665 129.85 159.665 130.13C159.665 130.483 159.575 130.803 159.395 131.09C159.215 131.37 158.952 131.593 158.605 131.76C158.265 131.92 157.862 132 157.395 132H154.795V125.03H157.295C157.769 125.03 158.172 125.11 158.505 125.27C158.839 125.423 159.089 125.633 159.255 125.9C159.422 126.167 159.505 126.467 159.505 126.8C159.505 127.213 159.392 127.557 159.165 127.83C158.945 128.097 158.652 128.29 158.285 128.41ZM155.705 128.04H157.235C157.662 128.04 157.992 127.94 158.225 127.74C158.459 127.54 158.575 127.263 158.575 126.91C158.575 126.557 158.459 126.28 158.225 126.08C157.992 125.88 157.655 125.78 157.215 125.78H155.705V128.04ZM157.315 131.25C157.769 131.25 158.122 131.143 158.375 130.93C158.629 130.717 158.755 130.42 158.755 130.04C158.755 129.653 158.622 129.35 158.355 129.13C158.089 128.903 157.732 128.79 157.285 128.79H155.705V131.25H157.315ZM165.788 126.52V132H164.878V131.19C164.705 131.47 164.462 131.69 164.148 131.85C163.842 132.003 163.502 132.08 163.128 132.08C162.702 132.08 162.318 131.993 161.978 131.82C161.638 131.64 161.368 131.373 161.168 131.02C160.975 130.667 160.878 130.237 160.878 129.73V126.52H161.778V129.61C161.778 130.15 161.915 130.567 162.188 130.86C162.462 131.147 162.835 131.29 163.308 131.29C163.795 131.29 164.178 131.14 164.458 130.84C164.738 130.54 164.878 130.103 164.878 129.53V126.52H165.788ZM170.385 132L168.235 129.58V132H167.325V124.6H168.235V128.95L170.345 126.52H171.615L169.035 129.25L171.625 132H170.385ZM172.131 129.24C172.131 128.68 172.245 128.19 172.471 127.77C172.698 127.343 173.008 127.013 173.401 126.78C173.801 126.547 174.245 126.43 174.731 126.43C175.211 126.43 175.628 126.533 175.981 126.74C176.335 126.947 176.598 127.207 176.771 127.52V126.52H177.691V132H176.771V130.98C176.591 131.3 176.321 131.567 175.961 131.78C175.608 131.987 175.195 132.09 174.721 132.09C174.235 132.09 173.795 131.97 173.401 131.73C173.008 131.49 172.698 131.153 172.471 130.72C172.245 130.287 172.131 129.793 172.131 129.24ZM176.771 129.25C176.771 128.837 176.688 128.477 176.521 128.17C176.355 127.863 176.128 127.63 175.841 127.47C175.561 127.303 175.251 127.22 174.911 127.22C174.571 127.22 174.261 127.3 173.981 127.46C173.701 127.62 173.478 127.853 173.311 128.16C173.145 128.467 173.061 128.827 173.061 129.24C173.061 129.66 173.145 130.027 173.311 130.34C173.478 130.647 173.701 130.883 173.981 131.05C174.261 131.21 174.571 131.29 174.911 131.29C175.251 131.29 175.561 131.21 175.841 131.05C176.128 130.883 176.355 130.647 176.521 130.34C176.688 130.027 176.771 129.663 176.771 129.25Z" fill="#FFFBFB"/>
<defs>
<clipPath id="clip0_98:3201">
<rect width="40.4" height="50.6667" fill="white" transform="translate(47.2129 42.8469)"/>
</clipPath>
</defs>
</svg>
