<svg width="292" height="230" viewBox="0 0 292 230" fill="none" xmlns="http://www.w3.org/2000/svg">
<ellipse cx="146" cy="115" rx="146" ry="115" fill="#FDF5DA"/>
<g clip-path="url(#clip0_96:2816)">
<path d="M211.882 185.345C210.827 189.264 207.748 192.008 204.536 194.338C204.088 194.664 203.639 194.982 203.191 195.292C203.188 195.294 203.184 195.297 203.181 195.298C203.16 195.313 203.138 195.328 203.118 195.343C203.025 195.407 202.933 195.471 202.841 195.534L202.891 195.558C202.891 195.558 202.941 195.587 202.887 195.563C202.871 195.556 202.854 195.549 202.838 195.542C200.972 194.736 199.073 193.87 197.643 192.36C196.159 190.791 195.292 188.331 196.096 186.271C196.201 186.001 196.335 185.744 196.493 185.506C196.558 185.406 196.629 185.311 196.702 185.217C197.145 184.637 197.724 184.195 198.379 183.935C199.035 183.675 199.743 183.607 200.432 183.737C201.12 183.868 201.764 184.192 202.296 184.677C202.829 185.163 203.231 185.791 203.461 186.498C203.697 184.144 201.886 182.173 200.142 180.718C198.398 179.264 196.416 177.68 196.079 175.339C195.891 174.037 196.313 172.775 197.084 171.762C197.107 171.731 197.131 171.7 197.156 171.67C198.093 170.49 199.411 169.732 200.848 169.548C203.522 169.25 206.12 170.767 208.063 172.759C211.19 175.965 213.081 180.888 211.882 185.345Z" fill="#F2F2F2"/>
<path d="M206.855 180.218C207.368 181.074 207.762 182.005 208.025 182.983C208.247 183.856 208.345 184.76 208.318 185.665C208.246 187.527 207.758 189.344 206.895 190.962C206.245 192.189 205.452 193.324 204.536 194.339C204.088 194.664 203.639 194.982 203.191 195.293C203.188 195.294 203.184 195.297 203.181 195.298C203.16 195.313 203.138 195.328 203.118 195.343C203.025 195.407 202.933 195.471 202.841 195.534C202.841 195.534 202.941 195.587 202.887 195.563C202.871 195.556 202.854 195.549 202.837 195.542C203.005 194.073 202.841 192.583 202.36 191.196C201.879 189.808 201.094 188.565 200.072 187.57C199.048 186.589 197.821 185.882 196.493 185.506C196.558 185.406 196.629 185.311 196.702 185.217C197.215 185.371 197.714 185.574 198.193 185.822C199.908 186.704 201.312 188.154 202.197 189.957C202.992 191.595 203.334 193.442 203.183 195.28C203.26 195.206 203.336 195.13 203.411 195.054C204.829 193.638 206.088 192.012 206.94 190.136C207.68 188.547 208.043 186.788 207.999 185.014C207.929 183.078 207.209 181.286 206.167 179.726C205.025 178.061 203.676 176.571 202.158 175.298C200.627 173.985 198.952 172.877 197.17 171.999C197.13 171.979 197.099 171.944 197.083 171.899C197.066 171.855 197.067 171.806 197.084 171.762C197.095 171.722 197.121 171.689 197.156 171.67C197.173 171.662 197.193 171.658 197.212 171.659C197.231 171.66 197.25 171.666 197.267 171.675C197.487 171.784 197.705 171.894 197.922 172.009C199.727 172.964 201.414 174.157 202.945 175.558C204.423 176.909 205.815 178.451 206.855 180.218Z" fill="white"/>
<path d="M68.5258 177.879C70.2326 184.223 75.2163 188.664 80.4149 192.436C81.1407 192.963 81.8668 193.477 82.5931 193.98C82.5981 193.982 82.6031 193.987 82.6081 193.99C82.643 194.014 82.6781 194.038 82.7106 194.062C82.8605 194.165 83.0105 194.269 83.1591 194.371L83.0775 194.411C83.0775 194.411 82.9973 194.456 83.085 194.418C83.1111 194.406 83.1385 194.396 83.1646 194.384C86.1846 193.079 89.2583 191.678 91.5727 189.233C93.9736 186.695 95.3766 182.713 94.0766 179.378C93.9057 178.941 93.6898 178.526 93.433 178.141C93.3276 177.979 93.214 177.824 93.0958 177.672C92.3787 176.735 91.4414 176.019 90.3803 175.598C89.3192 175.177 88.1726 175.066 87.0584 175.277C85.9443 175.488 84.9027 176.014 84.0408 176.799C83.179 177.585 82.5279 178.602 82.1546 179.746C81.7727 175.936 84.7049 172.745 87.5267 170.39C90.3498 168.037 93.5576 165.474 94.1034 161.685C94.4082 159.577 93.724 157.534 92.4776 155.895C92.439 155.845 92.4005 155.795 92.3608 155.747C90.8436 153.837 88.7097 152.61 86.3853 152.312C82.0565 151.83 77.8517 154.285 74.707 157.509C69.6454 162.698 66.5855 170.666 68.5258 177.879Z" fill="#F2F2F2"/>
<path d="M76.6624 169.582C75.8316 170.966 75.1938 172.474 74.769 174.056C74.4098 175.47 74.2499 176.933 74.2947 178.398C74.3725 181.408 75.2371 184.35 76.5975 186.971C77.6499 188.957 78.9326 190.794 80.4149 192.436C81.1407 192.963 81.8668 193.477 82.5931 193.98C82.598 193.982 82.6031 193.987 82.6081 193.989C82.643 194.013 82.6781 194.038 82.7106 194.062C82.8605 194.165 83.0105 194.269 83.1591 194.371C83.1591 194.371 82.9973 194.456 83.085 194.418C83.1111 194.406 83.1385 194.396 83.1645 194.384C82.8939 192.006 83.159 189.594 83.9378 187.349C84.7166 185.104 85.9863 183.091 87.6406 181.48C89.2988 179.893 91.2836 178.749 93.433 178.14C93.3276 177.979 93.214 177.824 93.0958 177.672C92.2656 177.922 91.4577 178.249 90.6813 178.651C87.9063 180.079 85.6341 182.426 84.201 185.345C82.915 187.995 82.3615 190.984 82.6055 193.96C82.4814 193.839 82.3572 193.716 82.2367 193.594C79.9418 191.302 77.9035 188.671 76.524 185.634C75.3272 183.063 74.739 180.215 74.8112 177.343C74.9238 174.211 76.0886 171.31 77.775 168.784C79.5816 166.081 81.8465 163.69 84.2651 161.618C86.7423 159.492 89.4531 157.699 92.3368 156.279C92.4019 156.247 92.4528 156.188 92.479 156.117C92.5052 156.045 92.5047 155.966 92.4776 155.894C92.4584 155.831 92.4164 155.777 92.3607 155.746C92.3321 155.733 92.3011 155.727 92.2699 155.728C92.2388 155.73 92.2083 155.739 92.1809 155.755C91.8248 155.93 91.4712 156.108 91.1205 156.294C88.1991 157.841 85.4685 159.771 82.9912 162.039C80.5984 164.225 78.3457 166.722 76.6624 169.582Z" fill="white"/>
<path d="M184.047 71.6758H183.213V47.1784C183.213 45.3165 182.87 43.4728 182.205 41.7526C181.54 40.0324 180.565 38.4694 179.336 37.1528C178.108 35.8362 176.649 34.7918 175.043 34.0793C173.437 33.3667 171.717 33 169.979 33H121.535C118.025 33 114.659 34.4938 112.177 37.1527C109.695 39.8117 108.301 43.418 108.301 47.1784V181.573C108.301 185.333 109.695 188.94 112.177 191.599C114.659 194.258 118.025 195.752 121.535 195.752H169.979C173.488 195.752 176.855 194.258 179.336 191.599C181.818 188.94 183.213 185.334 183.213 181.573V89.1135H184.047L184.047 71.6758Z" fill="#CCCCCC"/>
<path d="M180.396 47.2775V181.474C180.396 184.283 179.354 186.976 177.501 188.962C175.647 190.948 173.134 192.063 170.512 192.063H121.836C119.215 192.063 116.701 190.948 114.848 188.962C112.994 186.976 111.953 184.283 111.953 181.474V47.2775C111.953 44.4692 112.994 41.7759 114.848 39.7902C116.701 37.8044 119.215 36.6888 121.836 36.6887H127.741C127.451 37.4526 127.341 38.2812 127.419 39.1016C127.498 39.922 127.764 40.7091 128.194 41.3936C128.623 42.078 129.203 42.639 129.882 43.027C130.561 43.4151 131.319 43.6183 132.089 43.619H159.842C160.612 43.6183 161.37 43.4151 162.049 43.027C162.728 42.639 163.308 42.078 163.737 41.3935C164.167 40.7091 164.433 39.922 164.512 39.1016C164.591 38.2812 164.48 37.4526 164.19 36.6887H170.512C173.134 36.6888 175.647 37.8044 177.501 39.7902C179.354 41.7759 180.396 44.4692 180.396 47.2775Z" fill="white"/>
<path d="M140.6 94.7208C138.014 93.4483 136.315 89.81 136.412 86.2219C136.508 82.6337 138.271 79.2779 140.702 77.5668C143.132 75.8557 146.133 75.7262 148.742 76.9159C151.351 78.1056 154.854 78.4297 156.422 81.3869C157.627 83.6593 157.193 88.729 156.34 91.2559C155.602 93.44 153.799 94.6706 152.041 95.3592C150.094 96.1146 148.02 96.4133 145.956 96.2353C143.893 96.0572 141.889 95.4065 140.081 94.3271L140.6 94.7208Z" fill="#2F2E41"/>
<path d="M155.323 136.369L154.231 131.601L154.154 131.259C154.091 130.993 153.964 130.751 153.785 130.556C153.606 130.361 153.382 130.22 153.135 130.149L152.045 129.836L151.079 129.557L148.994 128.957H148.992L144.777 127.745L141.047 126.67L140.146 126.41L137.668 125.697L136.128 125.254L133.738 124.568L133.546 124.512C133.214 124.417 132.861 124.453 132.551 124.612C132.242 124.772 131.995 125.045 131.857 125.382C131.753 125.639 131.65 125.9 131.55 126.167C130.331 129.466 129.407 132.882 128.791 136.369C128.764 136.516 128.734 136.666 128.709 136.816H150.835C150.835 136.843 150.835 136.867 150.837 136.894C150.874 136.869 150.912 136.845 150.95 136.816H155.425L155.323 136.369Z" fill="#2F2E41"/>
<path d="M151.48 95.6655C154.538 92.3892 154.538 87.0772 151.48 83.8008C148.422 80.5245 143.464 80.5245 140.405 83.8008C137.347 87.0772 137.347 92.3891 140.405 95.6655C143.464 98.9418 148.422 98.9418 151.48 95.6655Z" fill="#FFB8B8"/>
<path d="M154.295 133.768C153.48 134.741 152.566 135.614 151.569 136.369C151.367 136.523 151.16 136.673 150.949 136.816C150.912 136.845 150.874 136.87 150.837 136.894C150.835 136.867 150.835 136.843 150.835 136.816H132.896C132.86 136.784 132.826 136.75 132.794 136.713C132.681 136.606 132.571 136.487 132.464 136.369C131.761 135.599 131.168 134.722 130.702 133.768L132.894 127.128L133.737 124.568L134.963 120.86L136.282 116.859C136.167 116.489 136.074 116.112 136.002 115.73V115.728C134.752 108.934 140.905 102.341 140.905 102.341C140.953 102.301 141.001 102.263 141.049 102.227C141.642 101.758 142.286 101.367 142.967 101.065C145.852 99.7832 148.872 100.3 150.905 100.962C151.612 101.189 152.303 101.47 152.972 101.803C153.21 101.923 153.339 101.999 153.339 101.999L153.542 108.565L153.817 117.541L153.965 122.549L154.151 128.866L154.231 131.601L154.295 133.768Z" fill="#ED212B"/>
<path d="M163.11 136.369L161.14 125.646L160.864 124.147L162.196 117.761L161.572 114.364L159.245 101.695C159.187 101.39 159.046 101.111 158.838 100.893C158.63 100.676 158.366 100.53 158.08 100.476L155.233 99.9509L152.588 99.4611C152.333 99.4122 152.071 99.4388 151.829 99.5382C151.587 99.6375 151.376 99.8057 151.217 100.025C151.017 100.29 150.907 100.621 150.906 100.962C150.906 101.172 150.947 101.381 151.025 101.574C152.956 106.398 152.233 115.164 151.536 123.64C151.515 123.888 151.494 124.136 151.476 124.384C151.33 126.147 151.192 127.882 151.079 129.557C151.041 130.114 151.008 130.666 150.977 131.21C150.874 133.021 150.816 134.754 150.829 136.369C150.829 136.519 150.831 136.668 150.835 136.816C150.835 136.843 150.835 136.867 150.837 136.894C150.874 136.87 150.912 136.845 150.95 136.816H163.192L163.11 136.369Z" fill="#2F2E41"/>
<path d="M142.968 101.065C142.91 100.815 142.796 100.586 142.634 100.396C142.473 100.207 142.27 100.063 142.044 99.9791C141.817 99.8949 141.575 99.8726 141.339 99.9141C141.103 99.9557 140.88 100.06 140.69 100.217L139.966 100.921L134.47 106.282C134.315 106.432 134.192 106.618 134.111 106.825C133.6 108.138 132.646 110.609 131.519 113.686C131.12 114.777 130.699 115.947 130.266 117.166C129.546 119.199 131.955 122.311 131.233 124.516C131.108 124.903 130.975 125.283 130.834 125.657C129.371 129.604 127.292 132.938 126.574 136.369C126.543 136.518 126.511 136.668 126.482 136.816H134.433C134.443 136.782 134.454 136.749 134.464 136.713C134.495 136.599 134.529 136.485 134.562 136.369C135.149 134.318 135.804 132.066 136.495 129.7C136.591 129.374 136.687 129.045 136.783 128.714C137.073 127.723 137.368 126.718 137.668 125.697C137.71 125.55 137.754 125.402 137.797 125.254C137.898 124.91 137.999 124.566 138.1 124.221C138.234 123.769 138.367 123.316 138.501 122.862C138.847 121.681 139.196 120.493 139.545 119.313C140.958 114.507 140.649 109.884 141.713 106.195C141.73 106.141 141.745 106.089 141.759 106.038C142.216 104.45 142.619 103.041 142.945 101.867C143.019 101.607 143.027 101.33 142.968 101.065Z" fill="#2F2E41"/>
<path d="M151.51 79.2906C151.792 79.3347 152.08 79.2779 152.329 79.1292C152.577 78.9804 152.773 78.7478 152.886 78.4676C152.991 78.1837 153.033 77.8779 153.01 77.5737C152.987 77.2694 152.9 76.9749 152.754 76.7127C152.457 76.19 152.044 75.7552 151.55 75.4477C150.982 75.0407 150.325 74.7985 149.643 74.7447C149.303 74.7208 148.962 74.7755 148.643 74.9051C148.324 75.0348 148.035 75.2362 147.796 75.4959C147.562 75.7621 147.408 76.097 147.352 76.4576C147.297 76.8183 147.344 77.1885 147.486 77.5207C147.772 78.1123 148.373 78.444 148.958 78.6692C150.12 79.1149 151.357 79.289 152.586 79.1797L151.51 79.2906Z" fill="#2F2E41"/>
<path d="M154.295 88.3371C153.075 88.7178 153.141 88.0134 152.472 86.8558C151.803 85.6981 150.933 84.3358 149.664 84.4083C148.624 84.4677 147.9 85.4799 147.159 86.2636C145.838 87.6606 143.92 88.5451 142.107 88.1187C140.293 87.6923 138.798 85.6883 139.197 83.7459C139.42 82.6578 140.171 81.7528 141.072 81.1953C141.972 80.6379 143.012 80.3924 144.045 80.2642C146.346 79.9809 148.677 80.2421 150.874 81.0295C152.39 81.5746 153.914 82.4562 154.669 83.967C155.424 85.4777 156.084 87.6639 154.614 88.3371H154.295Z" fill="#2F2E41"/>
<path d="M174.353 89.6617V97.3568C174.213 97.3948 174.075 97.4306 173.935 97.4619C172.929 97.7012 171.904 97.8599 170.886 97.9919C169.305 98.1976 167.684 98.3497 166.143 97.927C163.989 97.3366 162.186 95.6326 161.092 93.5551C160 91.4798 159.57 89.0602 159.554 86.6763C159.541 84.8202 159.766 82.9618 159.647 81.1102C159.526 79.2586 159.007 77.3421 157.754 76.0607C156.502 74.777 154.385 74.3566 153.012 75.4859C152.779 75.6879 152.559 75.9068 152.354 76.1412C152.089 76.4591 151.777 76.728 151.43 76.9373C150.808 77.2727 149.825 77.0111 149.783 76.2664L150.434 74.9627C150.413 74.9336 150.39 74.9023 150.369 74.8732C149.415 73.4643 149.814 71.3198 150.993 70.1099C152.198 68.871 153.991 68.4864 155.652 68.6429C157.3 68.8205 158.875 69.4593 160.22 70.4951C161.564 71.531 162.631 72.9275 163.313 74.5445C164.365 77.1184 164.354 80.0636 165.306 82.6845C165.819 84.0771 166.589 85.3442 167.571 86.4099C168.552 87.4755 169.724 88.3177 171.017 88.8857C171.95 89.2869 172.933 89.5379 173.935 89.6304C174.075 89.6438 174.213 89.6528 174.353 89.6617Z" fill="#2F2E41"/>
<path d="M149.081 122.782H148.993V120.184C148.993 119.785 148.845 119.403 148.581 119.121C148.318 118.839 147.961 118.68 147.589 118.68H142.451C142.267 118.68 142.084 118.719 141.914 118.795C141.744 118.87 141.589 118.981 141.459 119.121C141.328 119.26 141.225 119.426 141.155 119.608C141.084 119.791 141.048 119.986 141.048 120.184V134.437C141.048 134.836 141.196 135.219 141.459 135.501C141.722 135.783 142.079 135.941 142.451 135.941H147.589C147.773 135.941 147.956 135.902 148.126 135.827C148.296 135.751 148.451 135.64 148.581 135.501C148.712 135.361 148.815 135.195 148.886 135.013C148.956 134.83 148.993 134.635 148.993 134.437V124.631H149.081V122.782Z" fill="#3F3D56"/>
<path d="M145.064 125.848C145.945 125.848 146.658 125.083 146.658 124.14C146.658 123.197 145.945 122.432 145.064 122.432C144.184 122.432 143.47 123.197 143.47 124.14C143.47 125.083 144.184 125.848 145.064 125.848Z" fill="white"/>
<path d="M144.383 128.691C144.345 128.642 144.304 128.595 144.262 128.548C143.918 128.17 143.503 127.873 143.045 127.678C142.587 127.482 142.095 127.392 141.603 127.412C141.446 127.421 141.29 127.44 141.135 127.47L141.047 127.376L140.146 126.41L138.1 124.221L136.831 122.861L134.963 120.86L133.56 119.359L133.015 118.776L133.978 114.739L131.519 113.686L128.315 112.315L128.265 112.293L128.146 112.642L127.29 115.184L126.651 117.074C126.279 118.19 126.216 119.398 126.469 120.552C126.722 121.706 127.28 122.757 128.077 123.579C128.259 123.767 128.452 123.941 128.655 124.1L130.834 125.657L131.55 126.167L132.894 127.128L135.113 128.714L136.495 129.7L138.248 130.952C138.24 131.075 138.238 131.198 138.242 131.321C138.263 131.849 138.387 132.367 138.606 132.84C138.826 133.313 139.137 133.731 139.517 134.067C139.973 134.474 140.52 134.748 141.104 134.861H141.106C141.837 135.006 142.593 134.899 143.264 134.557C143.707 134.328 144.1 134.001 144.419 133.599C144.737 133.197 144.973 132.728 145.111 132.222C145.183 131.968 145.228 131.705 145.245 131.44C145.28 130.943 145.222 130.444 145.074 129.972C144.926 129.5 144.691 129.065 144.383 128.691Z" fill="#FFB8B8"/>
<path d="M164.974 118.812L164.653 116.745L164.194 113.8L161.572 114.364L158.163 115.097L158.428 119.254L158.232 119.4L153.966 122.548L151.476 124.384L148.994 126.216L148.992 126.218L148.973 126.232C148.827 126.171 148.677 126.121 148.524 126.084C148.043 125.967 147.545 125.96 147.061 126.063C146.577 126.167 146.119 126.378 145.717 126.683C145.341 126.967 145.022 127.328 144.777 127.745C144.605 128.039 144.472 128.358 144.383 128.691C144.325 128.903 144.285 129.119 144.262 129.338C144.209 129.855 144.257 130.379 144.403 130.876C144.549 131.373 144.791 131.831 145.111 132.223C145.507 132.712 146.016 133.081 146.587 133.294C147.367 133.589 148.219 133.578 148.992 133.26H148.994C149.151 133.197 149.304 133.121 149.451 133.032C150.135 132.624 150.672 131.983 150.977 131.209C151.059 131.006 151.123 130.795 151.169 130.579C151.193 130.458 151.212 130.337 151.225 130.214L152.045 129.836L154.152 128.866L161.14 125.646L161.816 125.335C162.393 125.037 162.918 124.635 163.369 124.147C164.012 123.458 164.493 122.614 164.772 121.687C165.051 120.759 165.12 119.774 164.974 118.812Z" fill="#FFB8B8"/>
<path d="M141.532 103.464C141.427 103.029 141.264 102.613 141.049 102.227C140.769 101.722 140.401 101.279 139.966 100.921C139.783 100.771 139.589 100.635 139.386 100.516C138.361 99.9144 137.155 99.7729 136.033 100.123C134.911 100.473 133.964 101.286 133.402 102.384L128.315 112.315L128.146 112.642L126.958 114.963L127.29 115.184L130.266 117.166L133.56 119.359L133.792 119.514L136.002 115.73V115.728L141.004 107.16C141.196 106.832 141.35 106.48 141.463 106.112C141.477 106.06 141.492 106.006 141.507 105.955C141.725 105.142 141.733 104.281 141.532 103.464Z" fill="#2F2E41"/>
<path d="M160.756 102.739C160.349 101.601 159.547 100.676 158.517 100.156C157.488 99.6364 156.311 99.5629 155.233 99.9508C155.097 100 154.964 100.056 154.832 100.119C154.076 100.48 153.431 101.064 152.972 101.802C152.787 102.098 152.634 102.415 152.517 102.748C152.31 103.328 152.213 103.946 152.23 104.566C152.247 105.186 152.379 105.797 152.617 106.362L153.542 108.565L158.107 119.451L158.232 119.4L162.196 117.761L164.653 116.745L165.613 116.349L160.756 102.739Z" fill="#2F2E41"/>
<path d="M138.956 158.508H123.927C122.903 158.508 121.921 158.072 121.196 157.296C120.472 156.521 120.065 155.468 120.065 154.371C120.065 153.274 120.472 152.221 121.196 151.446C121.921 150.67 122.903 150.234 123.927 150.234H138.956C139.98 150.234 140.962 150.67 141.686 151.446C142.41 152.221 142.817 153.274 142.817 154.371C142.817 155.468 142.41 156.521 141.686 157.296C140.962 158.072 139.98 158.508 138.956 158.508Z" fill="#ED212B"/>
<path d="M168.821 158.508H153.792C152.768 158.508 151.786 158.072 151.062 157.296C150.338 156.521 149.931 155.468 149.931 154.371C149.931 153.274 150.338 152.221 151.062 151.446C151.786 150.67 152.768 150.234 153.792 150.234H168.821C169.845 150.234 170.827 150.67 171.551 151.446C172.276 152.221 172.682 153.274 172.682 154.371C172.682 155.468 172.276 156.521 171.551 157.296C170.827 158.072 169.845 158.508 168.821 158.508Z" fill="#E6E6E6"/>
<path d="M219.791 196H67.2087C67.1534 196 67.1003 195.976 67.0611 195.934C67.022 195.893 67 195.836 67 195.776C67 195.717 67.022 195.66 67.0611 195.618C67.1003 195.576 67.1534 195.553 67.2087 195.553H219.791C219.847 195.553 219.9 195.576 219.939 195.618C219.978 195.66 220 195.717 220 195.776C220 195.836 219.978 195.893 219.939 195.934C219.9 195.976 219.847 196 219.791 196Z" fill="#3F3D56"/>
<path d="M170.804 65.9258H121.544C120.603 65.9272 119.701 66.3282 119.036 67.0408C118.371 67.7535 117.996 68.7196 117.995 69.7275V133.014C117.996 134.022 118.371 134.988 119.036 135.701C119.701 136.413 120.603 136.814 121.544 136.816H170.804C171.745 136.815 172.647 136.414 173.312 135.701C173.977 134.989 174.352 134.022 174.353 133.014V69.7275C174.352 68.7195 173.977 67.7532 173.312 67.0404C172.647 66.3277 171.745 65.9268 170.804 65.9258ZM173.935 133.014C173.934 133.904 173.604 134.756 173.017 135.385C172.43 136.014 171.634 136.368 170.804 136.369H121.544C120.713 136.368 119.918 136.014 119.331 135.385C118.744 134.756 118.414 133.904 118.413 133.014V69.7275C118.414 68.8381 118.744 67.9856 119.331 67.3567C119.918 66.7279 120.713 66.3741 121.544 66.373H170.804C171.634 66.3741 172.43 66.7279 173.017 67.3567C173.604 67.9856 173.934 68.8381 173.935 69.7275V133.014Z" fill="#3F3D56"/>
<path d="M131.433 82.9288C131.256 82.9282 131.08 82.89 130.917 82.8162C130.754 82.7425 130.606 82.6348 130.482 82.4994L124.137 73.6276C123.99 73.4238 123.802 73.2586 123.586 73.1447C123.371 73.0308 123.134 72.9711 122.894 72.9704H86.1466C84.292 72.9704 82.5135 72.1811 81.2021 70.7761C79.8908 69.3712 79.1541 67.4657 79.1541 65.4788C79.1541 63.4919 79.8908 61.5864 81.2021 60.1815C82.5135 58.7766 84.2921 57.9873 86.1466 57.9873H132.067C133.759 57.9873 135.393 58.6444 136.667 59.8366C137.941 61.0288 138.769 62.6755 138.996 64.4714C139.224 66.2672 138.836 68.0906 137.905 69.6036C136.973 71.1165 135.562 72.2165 133.931 72.6996C133.604 72.7989 133.317 73.01 133.112 73.3008C132.907 73.5917 132.797 73.9462 132.798 74.3104V81.4715C132.801 81.7597 132.722 82.0421 132.573 82.2817C132.424 82.5213 132.21 82.707 131.96 82.8145C131.793 82.8894 131.614 82.9283 131.433 82.9288Z" fill="#ED212B"/>
<path d="M88.3115 68.6925C89.9683 68.6925 91.3114 67.2536 91.3114 65.4786C91.3114 63.7036 89.9683 62.2646 88.3115 62.2646C86.6548 62.2646 85.3117 63.7036 85.3117 65.4786C85.3117 67.2536 86.6548 68.6925 88.3115 68.6925Z" fill="white"/>
<path d="M97.6268 68.6925C99.2836 68.6925 100.627 67.2536 100.627 65.4786C100.627 63.7036 99.2836 62.2646 97.6268 62.2646C95.97 62.2646 94.627 63.7036 94.627 65.4786C94.627 67.2536 95.97 68.6925 97.6268 68.6925Z" fill="white"/>
<path d="M106.942 68.6925C108.599 68.6925 109.942 67.2536 109.942 65.4786C109.942 63.7036 108.599 62.2646 106.942 62.2646C105.285 62.2646 103.942 63.7036 103.942 65.4786C103.942 67.2536 105.285 68.6925 106.942 68.6925Z" fill="white"/>
</g>
<defs>
<clipPath id="clip0_96:2816">
<rect width="153" height="163" fill="white" transform="translate(67 33)"/>
</clipPath>
</defs>
</svg>
