<svg width="249" height="173" viewBox="0 0 249 173" fill="none" xmlns="http://www.w3.org/2000/svg">
<g clip-path="url(#clip0_597_455)">
<path d="M235.778 141.47C240.132 154.681 198.216 184.864 124.469 168.014C65.0917 154.448 13.1598 148.702 13.1598 141.47C13.1598 134.238 62.9945 141.824 124.469 141.824C185.943 141.824 233.482 134.507 235.778 141.47Z" fill="#3F3D56"/>
<path opacity="0.1" d="M235.778 141.47C240.132 154.681 198.216 184.864 124.469 168.014C65.0917 154.448 13.1598 148.702 13.1598 141.47C13.1598 134.238 62.9945 141.824 124.469 141.824C185.943 141.824 233.482 134.507 235.778 141.47Z" fill="black"/>
<path d="M235.778 141.47C240.132 154.681 198.216 171.415 124.469 154.565C65.0917 140.999 13.1598 148.702 13.1598 141.47C13.1598 134.237 62.9945 128.375 124.469 128.375C185.943 128.375 233.482 134.507 235.778 141.47Z" fill="#3F3D56"/>
<path opacity="0.1" d="M160.261 150.957C165.015 150.957 168.87 149.82 168.87 148.418C168.87 147.015 165.015 145.878 160.261 145.878C155.506 145.878 151.652 147.015 151.652 148.418C151.652 149.82 155.506 150.957 160.261 150.957Z" fill="black"/>
<path opacity="0.1" d="M195.359 150.957C200.114 150.957 203.968 149.82 203.968 148.418C203.968 147.015 200.114 145.878 195.359 145.878C190.604 145.878 186.75 147.015 186.75 148.418C186.75 149.82 190.604 150.957 195.359 150.957Z" fill="black"/>
<path opacity="0.1" d="M124.5 143.621C140.044 143.621 152.645 140.715 152.645 137.131C152.645 133.547 140.044 130.641 124.5 130.641C108.956 130.641 96.355 133.547 96.355 137.131C96.355 140.715 108.956 143.621 124.5 143.621Z" fill="black"/>
<path d="M249 117.38V0H0V117.38H114.898V133.071C109.159 133.656 105.295 134.749 105.295 136.003C105.295 137.873 113.893 139.388 124.5 139.388C135.107 139.388 143.705 137.873 143.705 136.003C143.705 134.749 139.841 133.656 134.102 133.071V117.38H249Z" fill="#3F3D56"/>
<path d="M236.086 4.11237H12.9136V109.317H236.086V4.11237Z" fill="#F2F2F2"/>
<path opacity="0.1" d="M236.086 4.23245C236.086 4.23245 143.374 12.4152 126.487 44.0174C109.6 75.6197 12.9136 109.197 12.9136 109.197H236.086V4.23245Z" fill="black"/>
<path d="M194.447 54.4575V62.2588H160.179V54.9344H159.186V148.418H160.179V131.682H194.447V148.418H195.441V54.4575H194.447ZM194.447 63.1053V75.974H160.179V63.1053L194.447 63.1053ZM160.179 103.405V90.536H194.447V103.405H160.179ZM194.447 104.251V117.12H160.179V104.251H194.447ZM160.179 89.6895V76.8205H194.447V89.6895H160.179ZM160.179 130.835V117.966H194.447V130.835H160.179Z" fill="#2F2E41"/>
<path d="M149.374 56.315V57.4843C149.374 57.4843 148.394 57.8184 148.394 59.1548C148.394 60.4912 147.61 65.5026 147.61 65.5026C147.61 65.5026 148.982 66.5049 150.158 66.1708C150.809 66.0024 151.41 65.7176 151.922 65.3356L152.118 60.1571L151.334 58.8207V56.482L149.374 56.315Z" fill="#6C63FF"/>
<path d="M186.875 9.8757C186.875 9.8757 183.466 10.2098 183.466 11.5462C183.466 12.8826 180.739 17.894 180.739 17.894C180.739 17.894 185.512 18.8963 189.603 18.5622C193.694 18.2281 195.739 17.727 195.739 17.727L196.421 12.5485L193.694 11.2121L186.875 9.8757Z" fill="#6C63FF"/>
<path d="M187.208 21.5691V18.3952C187.208 18.3952 183.091 11.3792 186.423 11.3792C189.756 11.3792 190.148 17.727 190.148 17.727V22.2373L187.208 21.5691Z" fill="#FFB8B8"/>
<path d="M151.922 54.8116C151.922 54.8116 149.766 53.8093 149.374 54.8116C148.982 55.8138 147.806 57.9855 149.374 58.1525C150.942 58.3196 152.51 57.1502 152.51 57.1502L151.922 54.8116Z" fill="#FFB8B8"/>
<path d="M162.535 61.5781C162.535 61.5781 161.355 62.9066 163.067 75.8668C164.78 88.8271 163.793 98.2639 167.044 98.1346C167.044 98.1346 166.196 100.945 168.958 101.049C171.721 101.152 172.983 101.316 173.198 100.666C173.413 100.017 173.75 97.0135 173 97.0433C173 97.0433 173.046 97.8958 173.36 94.466C173.673 91.0363 172.786 74.8395 173.919 72.6586L178.353 80.3847C178.353 80.3847 178.551 84.0076 179.395 85.6827C180.239 87.3578 182.026 97.1114 182.026 97.1114L181.858 98.6131C181.858 98.6131 187.907 99.2268 188.11 98.3644C188.314 97.502 188.243 96.2233 187.97 95.807C187.697 95.3907 187.697 95.3907 188.15 94.5184C188.351 94.1904 188.467 93.8295 188.49 93.4601C188.513 93.0908 188.442 92.7215 188.283 92.3773C187.998 91.7479 187.239 77.8953 187.239 77.8953C187.239 77.8953 185.817 61.0791 182.769 60.346C179.721 59.6129 162.535 61.5781 162.535 61.5781Z" fill="#2F2E41"/>
<path d="M167.864 99.3834L166.027 102.447C166.027 102.447 162.849 101.612 163.608 104.038C166.659 104.119 169.713 103.962 172.73 103.568C172.73 103.568 174.004 103.945 174.219 103.295C174.434 102.646 173.437 100.443 172.686 100.473C171.936 100.503 167.864 99.3834 167.864 99.3834Z" fill="#2F2E41"/>
<path d="M182.323 97.9538C182.323 97.9538 180.532 101.87 181.294 102.053C182.056 102.236 188.856 102.82 189.367 103.013C189.879 103.206 192.392 103.32 192.572 102.031C192.752 100.743 191.228 100.376 191.228 100.376C191.228 100.376 188.454 100.059 187.587 97.958C186.72 95.8567 182.323 97.9538 182.323 97.9538Z" fill="#2F2E41"/>
<path d="M165.346 29.8075C168.238 29.8075 170.582 27.8097 170.582 25.3453C170.582 22.8808 168.238 20.883 165.346 20.883C162.454 20.883 160.109 22.8808 160.109 25.3453C160.109 27.8097 162.454 29.8075 165.346 29.8075Z" fill="#FFB8B8"/>
<path d="M162.589 27.4589C162.589 27.4589 163.967 33.5652 163.416 34.7395C162.865 35.9137 171.133 34.2698 171.133 34.2698C171.133 34.2698 169.48 28.1635 169.755 26.7544C170.031 25.3452 162.589 27.4589 162.589 27.4589Z" fill="#FFB8B8"/>
<path d="M165.186 19.8337C164.751 19.7665 164.303 19.7833 163.877 19.883C163.535 20.0119 163.22 20.1877 162.946 20.4034C162.447 20.742 161.914 21.0427 161.354 21.302C160.886 21.4736 160.465 21.7254 160.116 22.0418C159.968 22.2146 159.851 22.4044 159.766 22.6056C159.229 23.7744 159.085 25.0477 159.349 26.2826C159.379 26.458 159.441 26.6284 159.533 26.7875C159.819 27.2372 160.452 27.4145 160.985 27.6502C161.997 28.0978 162.764 28.8515 163.594 29.5176C163.902 29.7798 164.248 30.0073 164.624 30.1945C165.808 30.7446 167.255 30.5651 168.585 30.3706C168.679 30.3704 168.772 30.3544 168.859 30.3234C168.946 30.2924 169.025 30.2471 169.091 30.19C169.157 30.1329 169.209 30.0652 169.245 29.9908C169.28 29.9165 169.298 29.8369 169.297 29.7566L170.346 25.7358C170.536 25.14 170.627 24.5244 170.615 23.9071C170.542 22.931 169.921 21.579 169.081 20.8856C168.101 20.0778 166.467 19.9492 165.186 19.8337Z" fill="#2F2E41"/>
<path d="M161.332 35.0999C161.332 35.0999 161.724 32.7613 164.076 32.5942C165.406 32.4872 166.72 32.2633 167.997 31.926C168.193 31.926 170.741 32.0931 171.917 33.0954C171.917 33.0954 172.701 34.0976 173.093 33.4295C173.486 32.7613 173.486 32.4272 174.27 32.7613C175.054 33.0954 175.054 31.759 176.426 31.926C177.798 32.0931 181.327 39.6102 181.327 39.6102L180.151 40.7796C180.151 40.7796 178.582 49.8001 181.327 53.6422C184.071 57.4843 185.247 61.6605 182.503 62.4958C179.758 63.331 160.548 70.8482 161.332 66.1708C162.116 61.4935 161.528 54.1434 160.744 53.9763C159.959 53.8093 155.647 40.6125 155.647 40.6125C155.82 39.7746 156.233 38.986 156.848 38.316C157.463 37.646 158.263 37.1152 159.175 36.7704C162.312 35.6011 161.332 35.0999 161.332 35.0999Z" fill="#575A88"/>
<path d="M175.446 32.5942L176.426 31.926C176.426 31.926 178.19 31.926 178.386 31.5919C178.582 31.2578 179.562 31.2578 180.347 30.9237C181.131 30.5896 180.151 30.0885 181.131 29.7544C182.111 29.4203 182.111 29.7544 182.111 28.9192C182.111 28.0839 184.659 27.2487 184.855 26.2464C185.051 25.2441 187.012 20.5668 187.012 20.5668L190.736 21.5691L189.756 27.5828C189.756 27.5828 189.756 30.5896 187.992 32.5942C186.227 34.5988 182.307 39.6102 180.347 39.7773C178.386 39.9443 175.446 32.5942 175.446 32.5942Z" fill="#575A88"/>
<path d="M156.823 39.7773L155.647 40.6125C155.647 40.6125 155.255 44.2876 155.255 44.4546C155.255 44.6217 155.647 46.6262 155.255 46.7933C154.863 46.9603 154.079 50.3013 154.275 50.4683V50.9695L151.53 54.6445V58.1525L157.999 54.6445C157.999 54.6445 161.724 54.3104 161.136 51.4706C160.548 48.6308 156.823 39.7773 156.823 39.7773Z" fill="#575A88"/>
<path d="M124.5 117.38C126.512 117.38 128.142 115.99 128.142 114.276C128.142 112.562 126.512 111.172 124.5 111.172C122.488 111.172 120.858 112.562 120.858 114.276C120.858 115.99 122.488 117.38 124.5 117.38Z" fill="#6C63FF"/>
</g>
<defs>
<clipPath id="clip0_597_455">
<rect width="249" height="173" fill="white"/>
</clipPath>
</defs>
</svg>
