<svg width="196" height="180" viewBox="0 0 196 180" fill="none" xmlns="http://www.w3.org/2000/svg">
<g clip-path="url(#clip0_608_455)">
<path d="M124.429 40.4814H71.6154C70.4118 40.4828 69.258 40.9332 68.407 41.7339C67.556 42.5345 67.0772 43.6201 67.0758 44.7524V155.186L66.4705 155.359L53.5145 159.092C52.9005 159.268 52.2373 159.208 51.6705 158.925C51.1036 158.641 50.6795 158.158 50.4912 157.58L11.9531 39.146C11.7655 38.5683 11.8294 37.9442 12.1308 37.4108C12.4321 36.8775 12.9462 36.4785 13.5601 36.3015L33.5253 30.55L91.405 13.8818L111.37 8.13018C111.674 8.0422 111.993 8.01146 112.31 8.03971C112.626 8.06796 112.934 8.15465 113.214 8.29482C113.495 8.43499 113.744 8.62588 113.946 8.85658C114.149 9.08727 114.3 9.35324 114.393 9.63926L124.244 39.9119L124.429 40.4814Z" fill="#F2F2F2"/>
<path d="M135.953 39.912L124.081 3.42642C123.883 2.8185 123.56 2.25316 123.131 1.7627C122.701 1.27224 122.172 0.866283 121.576 0.568014C120.979 0.269746 120.326 0.0850131 119.653 0.0243798C118.981 -0.0362535 118.302 0.0284007 117.656 0.214641L89.586 8.29818L31.7095 24.9692L3.63969 33.0556C2.33572 33.4323 1.24388 34.2804 0.603843 35.4137C-0.0361964 36.547 -0.17215 37.873 0.22583 39.1005L40.8037 163.793C41.127 164.784 41.7793 165.651 42.665 166.268C43.5506 166.884 44.623 167.217 45.7247 167.218C46.2346 167.219 46.7416 167.147 47.2287 167.005L66.4705 161.464L67.0758 161.287V160.692L66.4705 160.866L47.0502 166.461C45.8992 166.791 44.656 166.678 43.5934 166.147C42.5307 165.616 41.7354 164.71 41.3818 163.628L0.807021 38.9325C0.63182 38.3963 0.570759 37.8329 0.627329 37.2745C0.6839 36.7161 0.856989 36.1736 1.13669 35.6783C1.4164 35.1829 1.79723 34.7443 2.25736 34.3876C2.71749 34.0308 3.24789 33.763 3.81819 33.5994L31.888 25.5131L89.7647 8.84487L117.834 0.758484C118.267 0.634284 118.717 0.570957 119.169 0.57056C120.14 0.572611 121.084 0.867011 121.864 1.41064C122.644 1.95427 123.218 2.71856 123.503 3.59157L135.321 39.912L135.509 40.4814H136.138L135.953 39.912Z" fill="#3F3D56"/>
<path d="M37.128 36.3946C36.5447 36.3942 35.9769 36.218 35.5079 35.8917C35.0389 35.5655 34.6933 35.1064 34.5219 34.5818L30.6238 22.6027C30.5191 22.2809 30.4827 21.9428 30.5169 21.6078C30.551 21.2728 30.6549 20.9475 30.8227 20.6503C30.9905 20.3531 31.2189 20.0899 31.4949 19.8757C31.7708 19.6616 32.0889 19.5007 32.4309 19.4022L85.677 4.06548C86.3677 3.86718 87.1138 3.93481 87.7516 4.25354C88.3894 4.57227 88.8667 5.11605 89.0788 5.76553L92.9769 17.7448C93.1876 18.3947 93.1156 19.0967 92.7769 19.6967C92.4381 20.2967 91.8602 20.7458 91.17 20.9454L37.9238 36.2822C37.666 36.3566 37.3978 36.3945 37.128 36.3946V36.3946Z" fill="#F73636"/>
<path d="M57.5479 12.8C60.8907 12.8 63.6007 10.2504 63.6007 7.10537C63.6007 3.96031 60.8907 1.41074 57.5479 1.41074C54.205 1.41074 51.4951 3.96031 51.4951 7.10537C51.4951 10.2504 54.205 12.8 57.5479 12.8Z" fill="#F73636"/>
<path d="M57.5479 10.7114C59.6647 10.7114 61.3807 9.09693 61.3807 7.10538C61.3807 5.11383 59.6647 3.49936 57.5479 3.49936C55.4311 3.49936 53.7151 5.11383 53.7151 7.10538C53.7151 9.09693 55.4311 10.7114 57.5479 10.7114Z" fill="white"/>
<path d="M182.381 165.763H80.0893C79.4073 165.763 78.7535 165.507 78.2712 165.054C77.789 164.6 77.5177 163.985 77.5169 163.343V48.0268C77.5177 47.3851 77.7889 46.7699 78.2712 46.3162C78.7534 45.8625 79.4073 45.6073 80.0893 45.6066H182.381C183.063 45.6073 183.717 45.8625 184.199 46.3163C184.682 46.77 184.953 47.3851 184.954 48.0268V163.343C184.953 163.985 184.682 164.6 184.199 165.054C183.717 165.507 183.063 165.763 182.381 165.763V165.763Z" fill="#E6E6E6"/>
<path d="M135.321 39.912H71.6154C70.2515 39.9138 68.944 40.4243 67.9795 41.3317C67.0151 42.2391 66.4724 43.4692 66.4705 44.7524V160.866L67.0758 160.692V44.7524C67.0772 43.6201 67.556 42.5345 68.407 41.7339C69.258 40.9332 70.4118 40.4828 71.6154 40.4814H135.509L135.321 39.912ZM190.855 39.912H71.6154C70.2515 39.9138 68.944 40.4243 67.9795 41.3317C67.0151 42.2391 66.4724 43.4692 66.4705 44.7524V175.16C66.4724 176.443 67.0151 177.673 67.9795 178.58C68.944 179.488 70.2515 179.998 71.6154 180H190.855C192.219 179.998 193.527 179.488 194.491 178.58C195.455 177.673 195.998 176.443 196 175.16V44.7524C195.998 43.4692 195.455 42.2391 194.491 41.3317C193.527 40.4243 192.219 39.9138 190.855 39.912V39.912ZM195.395 175.16C195.393 176.292 194.915 177.377 194.063 178.178C193.212 178.979 192.059 179.429 190.855 179.431H71.6154C70.4118 179.429 69.258 178.979 68.407 178.178C67.556 177.377 67.0772 176.292 67.0758 175.16V44.7524C67.0772 43.6201 67.556 42.5345 68.407 41.7339C69.258 40.9332 70.4118 40.4828 71.6154 40.4814H190.855C192.059 40.4828 193.212 40.9332 194.063 41.7339C194.915 42.5345 195.393 43.6201 195.395 44.7524V175.16Z" fill="#3F3D56"/>
<path d="M159.078 52.4401H103.393C102.67 52.4394 101.978 52.1691 101.467 51.6887C100.957 51.2083 100.67 50.557 100.669 49.8776V37.3494C100.67 36.67 100.957 36.0186 101.467 35.5382C101.978 35.0578 102.67 34.7875 103.393 34.7868H159.078C159.8 34.7875 160.493 35.0578 161.003 35.5382C161.514 36.0186 161.801 36.67 161.802 37.3494V49.8776C161.801 50.557 161.514 51.2083 161.003 51.6887C160.493 52.1691 159.8 52.4394 159.078 52.4401V52.4401Z" fill="#F73636"/>
<path d="M131.235 35.641C134.578 35.641 137.288 33.0914 137.288 29.9463C137.288 26.8013 134.578 24.2517 131.235 24.2517C127.892 24.2517 125.182 26.8013 125.182 29.9463C125.182 33.0914 127.892 35.641 131.235 35.641Z" fill="#F73636"/>
<path d="M131.235 33.4149C133.271 33.4149 134.922 31.862 134.922 29.9463C134.922 28.0307 133.271 26.4778 131.235 26.4778C129.199 26.4778 127.549 28.0307 127.549 29.9463C127.549 31.862 129.199 33.4149 131.235 33.4149Z" fill="white"/>
</g>
<defs>
<clipPath id="clip0_608_455">
<rect width="196" height="180" fill="white"/>
</clipPath>
</defs>
</svg>
