<svg width="278" height="227" viewBox="0 0 278 227" fill="none" xmlns="http://www.w3.org/2000/svg">
<g clip-path="url(#clip0)">
<path d="M68.8787 57.5822C64.0985 44.6313 49.3368 37.4333 39.6257 40.3777C29.9146 43.3222 22.903 57.1219 27.6832 70.0729C32.1079 82.0606 45.5152 88.9811 54.7385 87.7462C54.6719 87.851 54.6282 87.9664 54.6095 88.0861L54.3274 90.2181C54.306 90.3806 54.3307 90.5454 54.3992 90.6968C54.4677 90.8483 54.5778 90.9813 54.7191 91.0833C54.8603 91.1854 55.0279 91.253 55.2061 91.2797C55.3843 91.3065 55.567 91.2916 55.737 91.2363L60.4881 89.6923C60.6581 89.637 60.8097 89.5433 60.9285 89.4201C61.0473 89.2968 61.1294 89.148 61.1669 88.9879C61.2044 88.8278 61.1962 88.6616 61.1429 88.5052C61.0897 88.3488 60.9932 88.2073 60.8627 88.0942L59.1501 86.6105C59.0892 86.56 59.0219 86.5161 58.9497 86.4799C67.176 82.4619 73.313 69.596 68.8787 57.5822Z" fill="#F2F2F2"/>
<path d="M51.5737 48.054C55.5435 49.9109 58.5751 53.0783 60.0429 56.9024C61.5107 60.7265 61.3025 64.9154 59.4614 68.6045C59.0503 69.4527 60.5621 69.8988 60.9705 69.0561C62.9036 65.0645 63.1002 60.5582 61.521 56.4407C59.9417 52.3233 56.7034 48.8992 52.4554 46.8551C51.5588 46.4245 50.6705 47.6202 51.5737 48.054Z" fill="white"/>
<path d="M262.411 38.7042C257.631 25.7532 242.869 18.5552 233.158 21.4997C223.447 24.4441 216.435 38.2438 221.216 51.1948C225.64 63.1826 239.048 70.1031 248.271 68.8681C248.204 68.9729 248.161 69.0883 248.142 69.2081L247.86 71.34C247.838 71.5025 247.863 71.6673 247.932 71.8188C248 71.9702 248.11 72.1033 248.252 72.2053C248.393 72.3073 248.56 72.3749 248.739 72.4017C248.917 72.4284 249.1 72.4135 249.269 72.3583L254.021 70.8142C254.191 70.759 254.342 70.6653 254.461 70.542C254.58 70.4187 254.662 70.2699 254.699 70.1098C254.737 69.9497 254.729 69.7835 254.675 69.6271C254.622 69.4707 254.526 69.3292 254.395 69.2161L252.683 67.7324C252.622 67.6819 252.554 67.6381 252.482 67.6019C260.708 63.5838 266.845 50.718 262.411 38.7042Z" fill="#F2F2F2"/>
<path d="M245.106 29.176C249.076 31.0329 252.108 34.2002 253.576 38.0244C255.043 41.8485 254.835 46.0374 252.994 49.7264C252.583 50.5746 254.095 51.0207 254.503 50.178C256.436 46.1865 256.633 41.6801 255.054 37.5627C253.474 33.4452 250.236 30.0211 245.988 27.9771C245.091 27.5465 244.203 28.7421 245.106 29.176Z" fill="white"/>
<path d="M150.023 17.8597C145.243 4.90872 130.482 -2.28925 120.77 0.655205C111.059 3.59966 104.048 17.3994 108.828 30.3503C113.253 42.3381 126.66 49.2586 135.883 48.0236C135.817 48.1284 135.773 48.2438 135.754 48.3636L135.472 50.4955C135.451 50.6581 135.475 50.8229 135.544 50.9743C135.612 51.1257 135.723 51.2588 135.864 51.3608C136.005 51.4628 136.173 51.5304 136.351 51.5572C136.529 51.584 136.712 51.569 136.882 51.5138L141.633 49.9697C141.803 49.9145 141.954 49.8208 142.073 49.6975C142.192 49.5742 142.274 49.4254 142.312 49.2653C142.349 49.1052 142.341 48.9391 142.288 48.7826C142.234 48.6262 142.138 48.4848 142.007 48.3716L140.295 46.8879C140.234 46.8374 140.167 46.7936 140.094 46.7574C148.321 42.7393 154.458 29.8735 150.023 17.8597Z" fill="#F2F2F2"/>
<path d="M132.718 8.33147C136.688 10.1884 139.72 13.3558 141.188 17.1799C142.655 21.004 142.447 25.1929 140.606 28.8819C140.195 29.7301 141.707 30.1762 142.115 29.3335C144.048 25.342 144.245 20.8356 142.666 16.7182C141.086 12.6007 137.848 9.17666 133.6 7.1326C132.704 6.70197 131.815 7.89765 132.718 8.33147Z" fill="white"/>
<path d="M126.049 80.1774C126.678 80.1774 127.188 79.7153 127.188 79.1452C127.188 78.5752 126.678 78.113 126.049 78.113C125.42 78.113 124.91 78.5752 124.91 79.1452C124.91 79.7153 125.42 80.1774 126.049 80.1774Z" fill="#CCCCCC"/>
<path d="M123.622 121.583C124.864 121.583 125.871 120.67 125.871 119.544C125.871 118.418 124.864 117.505 123.622 117.505C122.379 117.505 121.372 118.418 121.372 119.544C121.372 120.67 122.379 121.583 123.622 121.583Z" fill="#CCCCCC"/>
<path d="M85.9584 113.731C86.6764 113.731 87.2584 113.204 87.2584 112.553C87.2584 111.903 86.6764 111.375 85.9584 111.375C85.2405 111.375 84.6584 111.903 84.6584 112.553C84.6584 113.204 85.2405 113.731 85.9584 113.731Z" fill="#CCCCCC"/>
<path d="M105.708 94.439C106.485 94.439 107.115 93.8677 107.115 93.163C107.115 92.4584 106.485 91.8871 105.708 91.8871C104.93 91.8871 104.3 92.4584 104.3 93.163C104.3 93.8677 104.93 94.439 105.708 94.439Z" fill="#CCCCCC"/>
<path d="M174.982 169.144C175.611 169.144 176.121 168.682 176.121 168.112C176.121 167.541 175.611 167.079 174.982 167.079C174.353 167.079 173.843 167.541 173.843 168.112C173.843 168.682 174.353 169.144 174.982 169.144Z" fill="#CCCCCC"/>
<path d="M137.686 147.92C138.928 147.92 139.936 147.007 139.936 145.881C139.936 144.754 138.928 143.842 137.686 143.842C136.444 143.842 135.436 144.754 135.436 145.881C135.436 147.007 136.444 147.92 137.686 147.92Z" fill="#CCCCCC"/>
<path d="M163.305 121.078C164.023 121.078 164.605 120.551 164.605 119.9C164.605 119.249 164.023 118.722 163.305 118.722C162.587 118.722 162.005 119.249 162.005 119.9C162.005 120.551 162.587 121.078 163.305 121.078Z" fill="#CCCCCC"/>
<path d="M171.853 146.402C172.631 146.402 173.261 145.83 173.261 145.126C173.261 144.421 172.631 143.85 171.853 143.85C171.076 143.85 170.446 144.421 170.446 145.126C170.446 145.83 171.076 146.402 171.853 146.402Z" fill="#CCCCCC"/>
<path d="M247.681 212.119C248.923 211.176 247.245 207.505 243.932 203.919C240.619 200.332 236.926 198.189 235.684 199.132C234.442 200.074 236.121 203.746 239.434 207.332C242.747 210.918 246.439 213.062 247.681 212.119Z" fill="#ECBA07"/>
<path d="M221.806 219.622C232.127 219.622 240.494 212.039 240.494 202.684C240.494 193.33 232.127 185.746 221.806 185.746C211.485 185.746 203.118 193.33 203.118 202.684C203.118 212.039 211.485 219.622 221.806 219.622Z" fill="#ECBA07"/>
<path d="M229.716 215.978H224.038V225.197H229.716V215.978Z" fill="#ECBA07"/>
<path d="M218.361 215.978H212.684V225.197H218.361V215.978Z" fill="#ECBA07"/>
<path d="M224.985 226.912C227.598 226.912 229.716 226.192 229.716 225.304C229.716 224.416 227.598 223.696 224.985 223.696C222.372 223.696 220.253 224.416 220.253 225.304C220.253 226.192 222.372 226.912 224.985 226.912Z" fill="#ECBA07"/>
<path d="M213.63 226.698C216.243 226.698 218.361 225.978 218.361 225.09C218.361 224.202 216.243 223.482 213.63 223.482C211.017 223.482 208.898 224.202 208.898 225.09C208.898 225.978 211.017 226.698 213.63 226.698Z" fill="#ECBA07"/>
<path d="M215.938 181.393C217.607 175.302 224.973 171.718 232.39 173.387C239.808 175.056 244.468 181.347 242.8 187.438C241.131 193.529 235.595 193.549 228.177 191.879C220.759 190.21 214.269 187.484 215.938 181.393Z" fill="#E6E6E6"/>
<path d="M209.199 198.454C209.893 197.127 206.676 194.427 202.014 192.423C197.351 190.418 193.008 189.869 192.314 191.196C191.62 192.522 194.837 195.223 199.5 197.227C204.162 199.231 208.505 199.781 209.199 198.454Z" fill="#ECBA07"/>
<path d="M219.012 204.757C222.453 204.757 225.243 202.229 225.243 199.11C225.243 195.991 222.453 193.463 219.012 193.463C215.571 193.463 212.781 195.991 212.781 199.11C212.781 202.229 215.571 204.757 219.012 204.757Z" fill="white"/>
<path d="M216.451 198.968C217.598 198.968 218.528 198.126 218.528 197.086C218.528 196.047 217.598 195.204 216.451 195.204C215.304 195.204 214.374 196.047 214.374 197.086C214.374 198.126 215.304 198.968 216.451 198.968Z" fill="#3F3D56"/>
<path d="M222.921 210.876C223.018 211.362 223.009 211.861 222.894 212.345C222.779 212.828 222.56 213.286 222.25 213.692C221.939 214.099 221.544 214.446 221.085 214.714C220.627 214.982 220.115 215.165 219.578 215.254C219.041 215.342 218.491 215.334 217.957 215.23C217.424 215.126 216.919 214.927 216.47 214.646C216.022 214.365 215.639 214.006 215.343 213.59C215.047 213.175 214.845 212.711 214.747 212.224V212.224L214.746 212.217C214.337 210.171 216.083 209.447 218.34 209.077C220.597 208.706 222.512 208.83 222.921 210.876Z" fill="white"/>
<path d="M68.1619 190.843C70.0044 186.474 70.2713 182.507 68.758 181.983C67.2447 181.459 64.5243 184.575 62.6818 188.944C60.8393 193.314 60.5725 197.28 62.0858 197.805C63.5991 198.329 66.3195 195.212 68.1619 190.843Z" fill="#ECBA07"/>
<path d="M48.1484 219.622C58.4696 219.622 66.8366 212.039 66.8366 202.684C66.8366 193.33 58.4696 185.746 48.1484 185.746C37.8272 185.746 29.4602 193.33 29.4602 202.684C29.4602 212.039 37.8272 219.622 48.1484 219.622Z" fill="#ECBA07"/>
<path d="M45.3098 215.978H39.6323V225.197H45.3098V215.978Z" fill="#ECBA07"/>
<path d="M56.6645 215.978H50.9871V225.197H56.6645V215.978Z" fill="#ECBA07"/>
<path d="M44.3635 226.912C46.9765 226.912 49.0947 226.192 49.0947 225.304C49.0947 224.416 46.9765 223.696 44.3635 223.696C41.7506 223.696 39.6323 224.416 39.6323 225.304C39.6323 226.192 41.7506 226.912 44.3635 226.912Z" fill="#ECBA07"/>
<path d="M55.7183 226.698C58.3312 226.698 60.4494 225.978 60.4494 225.09C60.4494 224.202 58.3312 223.482 55.7183 223.482C53.1053 223.482 50.9871 224.202 50.9871 225.09C50.9871 225.978 53.1053 226.698 55.7183 226.698Z" fill="#ECBA07"/>
<path d="M48.6215 204.185C52.149 204.185 55.0086 201.593 55.0086 198.396C55.0086 195.199 52.149 192.607 48.6215 192.607C45.094 192.607 42.2344 195.199 42.2344 198.396C42.2344 201.593 45.094 204.185 48.6215 204.185Z" fill="white"/>
<path d="M48.6215 200.326C49.7973 200.326 50.7505 199.462 50.7505 198.396C50.7505 197.33 49.7973 196.467 48.6215 196.467C47.4456 196.467 46.4924 197.33 46.4924 198.396C46.4924 199.462 47.4456 200.326 48.6215 200.326Z" fill="#3F3D56"/>
<path d="M30.0202 186.932C28.5112 180.807 33.3348 174.618 40.794 173.109C48.2533 171.599 55.5234 175.341 57.0324 181.466C58.5414 187.591 53.5979 189.85 46.1387 191.359C38.6795 192.869 31.5292 193.058 30.0202 186.932Z" fill="#E6E6E6"/>
<path d="M35.542 198.454C36.2363 197.128 33.0192 194.427 28.3564 192.423C23.6937 190.418 19.3509 189.869 18.6567 191.196C17.9625 192.523 21.1796 195.223 25.8423 197.227C30.5051 199.232 34.8478 199.781 35.542 198.454Z" fill="#ECBA07"/>
<path d="M38.969 208.795C38.969 210.453 43.6785 213.726 48.9045 213.726C54.1304 213.726 59.0303 209.059 59.0303 207.401C59.0303 205.743 54.1304 207.723 48.9045 207.723C43.6786 207.723 38.969 207.137 38.969 208.795Z" fill="white"/>
<path d="M137.416 203.497C147.737 203.497 156.104 195.914 156.104 186.559C156.104 177.205 147.737 169.621 137.416 169.621C127.095 169.621 118.728 177.205 118.728 186.559C118.728 195.914 127.095 203.497 137.416 203.497Z" fill="#ECBA07"/>
<path d="M134.577 199.853H128.9V209.072H134.577V199.853Z" fill="#ECBA07"/>
<path d="M145.932 199.853H140.255V209.072H145.932V199.853Z" fill="#ECBA07"/>
<path d="M133.631 210.787C136.244 210.787 138.362 210.067 138.362 209.179C138.362 208.291 136.244 207.571 133.631 207.571C131.018 207.571 128.9 208.291 128.9 209.179C128.9 210.067 131.018 210.787 133.631 210.787Z" fill="#ECBA07"/>
<path d="M144.986 210.573C147.599 210.573 149.717 209.853 149.717 208.965C149.717 208.077 147.599 207.357 144.986 207.357C142.373 207.357 140.255 208.077 140.255 208.965C140.255 209.853 142.373 210.573 144.986 210.573Z" fill="#ECBA07"/>
<path d="M119.288 170.807C117.779 164.682 122.602 158.493 130.062 156.984C137.521 155.474 144.791 159.216 146.3 165.341C147.809 171.466 142.866 173.725 135.406 175.234C127.947 176.744 120.797 176.933 119.288 170.807Z" fill="#FF6366"/>
<path d="M157.554 179.158C161.602 175.487 163.852 171.577 162.58 170.426C161.309 169.274 156.997 171.317 152.95 174.988C148.903 178.659 146.652 182.568 147.924 183.72C149.195 184.871 153.507 182.829 157.554 179.158Z" fill="#ECBA07"/>
<path d="M122.353 184.9C123.624 183.748 121.374 179.839 117.327 176.168C113.28 172.496 108.968 170.454 107.696 171.606C106.425 172.757 108.675 176.667 112.722 180.338C116.769 184.009 121.081 186.051 122.353 184.9Z" fill="#ECBA07"/>
<path d="M251.031 79.06C250.411 61.6923 237.286 47.9834 221.717 48.4403C187.067 49.3709 186.22 106.963 219.674 111.1L218.966 116.203L229.298 115.9L228.227 110.849C241.685 108.153 251.594 94.8058 251.031 79.06Z" fill="#FF6584"/>
<path d="M204.486 88.6893L200.583 88.8038C199.053 82.2107 198.81 75.4254 199.867 68.7564L203.77 68.6418C202.328 75.6229 202.567 82.3054 204.486 88.6893Z" fill="white"/>
<path d="M229.805 110.769L218.095 111.113L218.179 113.471L229.889 113.128L229.805 110.769Z" fill="#3F3D56"/>
<path d="M195.792 201.08L194.613 200.58L223.605 111.47L224.784 111.971L195.792 201.08Z" fill="#3F3D56"/>
<path d="M275.026 93.7465C282.107 77.5981 276.111 60.2805 261.634 55.0666C229.454 43.3837 203.314 95.8822 232.166 111.779L229.269 116.201L238.876 119.661L240.118 114.643C253.645 117.04 268.607 108.387 275.026 93.7465Z" fill="#FF6366"/>
<path d="M228.11 85.7359L224.48 84.4288C225.981 77.8301 228.747 71.5212 232.653 65.7887L236.282 67.0958C231.886 72.975 229.162 79.1884 228.11 85.7359Z" fill="white"/>
<path d="M230.711 111.219L229.75 113.412L240.638 117.333L241.599 115.14L230.711 111.219Z" fill="#3F3D56"/>
<path d="M195.563 198.734L194.432 198.151L234.908 114.431L236.039 115.014L195.563 198.734Z" fill="#3F3D56"/>
<path d="M55.0189 80.1822C47.3587 64.2527 29.5727 55.9122 15.2927 61.5532C-16.5238 74.0276 6.17976 127.823 38.9514 120.458L40.3746 125.437L49.8513 121.694L46.796 117.359C58.2009 110.345 61.9637 94.6242 55.0189 80.1822Z" fill="#FF6366"/>
<path d="M15.6985 104.724L12.1184 106.139C8.00757 100.525 5.01487 94.3017 3.27637 87.7511L6.85647 86.3369C8.36425 93.3065 11.3116 99.4356 15.6985 104.724Z" fill="white"/>
<path d="M48.2293 116.757L37.489 121L38.5293 123.163L49.2696 118.92L48.2293 116.757Z" fill="#3F3D56"/>
<path d="M73.0786 201.308C72.9111 201.345 72.7339 201.321 72.5861 201.24C72.4383 201.16 72.3319 201.029 72.2903 200.877L43.9949 119.617L45.2583 119.333L73.5537 200.593C73.5743 200.668 73.5783 200.746 73.5656 200.823C73.5529 200.9 73.5236 200.973 73.4795 201.04C73.4354 201.106 73.3773 201.164 73.3085 201.21C73.2397 201.256 73.1616 201.289 73.0786 201.308Z" fill="#3F3D56"/>
<path d="M80.6409 227H12.514C12.3989 227 12.2886 226.959 12.2072 226.885C12.1258 226.811 12.0801 226.711 12.0801 226.607C12.0801 226.502 12.1258 226.402 12.2072 226.329C12.2886 226.255 12.3989 226.213 12.514 226.213H80.6409C80.756 226.213 80.8664 226.255 80.9478 226.329C81.0291 226.402 81.0748 226.502 81.0748 226.607C81.0748 226.711 81.0291 226.811 80.9478 226.885C80.8664 226.959 80.756 227 80.6409 227Z" fill="#CCCCCC"/>
<path d="M253.779 227H185.652C185.537 227 185.426 226.959 185.345 226.885C185.263 226.811 185.218 226.711 185.218 226.607C185.218 226.502 185.263 226.402 185.345 226.329C185.426 226.255 185.537 226.213 185.652 226.213H253.779C253.894 226.213 254.004 226.255 254.085 226.329C254.167 226.402 254.213 226.502 254.213 226.607C254.213 226.711 254.167 226.811 254.085 226.885C254.004 226.959 253.894 227 253.779 227Z" fill="#CCCCCC"/>
<path d="M172.634 210.875H104.507C104.392 210.875 104.281 210.834 104.2 210.76C104.119 210.686 104.073 210.586 104.073 210.482C104.073 210.377 104.119 210.277 104.2 210.204C104.281 210.13 104.392 210.088 104.507 210.088H172.634C172.749 210.088 172.859 210.13 172.941 210.204C173.022 210.277 173.068 210.377 173.068 210.482C173.068 210.586 173.022 210.686 172.941 210.76C172.859 210.834 172.749 210.875 172.634 210.875Z" fill="#CCCCCC"/>
<path d="M136.63 189.948C140.157 189.948 143.017 187.356 143.017 184.159C143.017 180.962 140.157 178.37 136.63 178.37C133.102 178.37 130.243 180.962 130.243 184.159C130.243 187.356 133.102 189.948 136.63 189.948Z" fill="white"/>
<path d="M136.63 186.089C137.806 186.089 138.759 185.225 138.759 184.159C138.759 183.093 137.806 182.229 136.63 182.229C135.454 182.229 134.501 183.093 134.501 184.159C134.501 185.225 135.454 186.089 136.63 186.089Z" fill="#3F3D56"/>
<path d="M141.7 194.865C141.897 195.848 141.656 196.861 141.029 197.682C140.402 198.503 139.441 199.065 138.357 199.244C137.274 199.422 136.156 199.204 135.25 198.635C134.344 198.067 133.724 197.196 133.527 196.214L133.525 196.207C133.117 194.161 134.862 193.437 137.119 193.066C139.377 192.696 141.291 192.819 141.7 194.865Z" fill="white"/>
</g>
<defs>
<clipPath id="clip0">
<rect width="278" height="227" fill="white"/>
</clipPath>
</defs>
</svg>
